<ttFont>
    <TTGlyph name="A" xMin="-11" yMin="0" xMax="723" yMax="714">
      <contour>
        <pt x="715" y="10" on="1"/>
        <pt x="723" y="10" on="1"/>
        <pt x="723" y="0" on="1"/>
        <pt x="498" y="0" on="1"/>
        <pt x="498" y="10" on="1"/>
        <pt x="507" y="10" on="1"/>
        <pt x="528" y="10" on="0"/>
        <pt x="549" y="37" on="0"/>
        <pt x="549" y="61" on="0"/>
        <pt x="545" y="73" on="1"/>
        <pt x="481" y="243" on="1"/>
        <pt x="211" y="243" on="1"/>
        <pt x="144" y="72" on="1"/>
        <pt x="140" y="60" on="0"/>
        <pt x="140" y="37" on="0"/>
        <pt x="161" y="10" on="0"/>
        <pt x="182" y="10" on="1"/>
        <pt x="191" y="10" on="1"/>
        <pt x="191" y="0" on="1"/>
        <pt x="-10" y="0" on="1"/>
        <pt x="-10" y="10" on="1"/>
        <pt x="-1" y="10" on="1"/>
        <pt x="24" y="10" on="0"/>
        <pt x="72" y="42" on="0"/>
        <pt x="87" y="73" on="1"/>
        <pt x="313" y="611" on="1"/>
        <pt x="350" y="692" on="0"/>
        <pt x="350" y="714" on="1"/>
        <pt x="359" y="714" on="1"/>
        <pt x="627" y="73" on="1"/>
        <pt x="641" y="42" on="0"/>
        <pt x="689" y="10" on="0"/>
      </contour>
      <contour>
        <pt x="223" y="273" on="1"/>
        <pt x="469" y="273" on="1"/>
        <pt x="349" y="594" on="1"/>
      </contour>
    </TTGlyph>
    <TTGlyph name="AE" xMin="-11" yMin="0" xMax="858" yMax="719">
      <contour>
        <pt x="802" y="0" on="1"/>
        <pt x="406" y="0" on="1"/>
        <pt x="407" y="10" on="1"/>
        <pt x="416" y="10" on="1"/>
        <pt x="436" y="10" on="0"/>
        <pt x="465" y="38" on="0"/>
        <pt x="466" y="58" on="1"/>
        <pt x="466" y="320" on="1"/>
        <pt x="302" y="320" on="1"/>
        <pt x="152" y="67" on="1"/>
        <pt x="145" y="54" on="0"/>
        <pt x="145" y="35" on="0"/>
        <pt x="148" y="27" on="1"/>
        <pt x="156" y="10" on="0"/>
        <pt x="176" y="10" on="1"/>
        <pt x="178" y="10" on="0"/>
        <pt x="179" y="10" on="1"/>
        <pt x="189" y="10" on="1"/>
        <pt x="189" y="0" on="1"/>
        <pt x="-10" y="0" on="1"/>
        <pt x="-10" y="10" on="1"/>
        <pt x="-3" y="10" on="1"/>
        <pt x="21" y="10" on="0"/>
        <pt x="74" y="47" on="0"/>
        <pt x="89" y="71" on="1"/>
        <pt x="463" y="655" on="1"/>
        <pt x="469" y="668" on="0"/>
        <pt x="456" y="690" on="0"/>
        <pt x="442" y="690" on="1"/>
        <pt x="438" y="690" on="1"/>
        <pt x="438" y="700" on="1"/>
        <pt x="681" y="700" on="1"/>
        <pt x="712" y="700" on="0"/>
        <pt x="786" y="712" on="0"/>
        <pt x="800" y="718" on="1"/>
        <pt x="800" y="605" on="1"/>
        <pt x="790" y="605" on="1"/>
        <pt x="790" y="620" on="1"/>
        <pt x="790" y="640" on="0"/>
        <pt x="762" y="669" on="0"/>
        <pt x="742" y="669" on="1"/>
        <pt x="531" y="669" on="1"/>
        <pt x="531" y="350" on="1"/>
        <pt x="700" y="350" on="1"/>
        <pt x="720" y="351" on="0"/>
        <pt x="748" y="379" on="0"/>
        <pt x="748" y="400" on="1"/>
        <pt x="748" y="414" on="1"/>
        <pt x="758" y="414" on="1"/>
        <pt x="758" y="256" on="1"/>
        <pt x="748" y="256" on="1"/>
        <pt x="748" y="271" on="1"/>
        <pt x="748" y="291" on="0"/>
        <pt x="720" y="319" on="0"/>
        <pt x="701" y="320" on="1"/>
        <pt x="531" y="320" on="1"/>
        <pt x="531" y="31" on="1"/>
        <pt x="695" y="31" on="1"/>
        <pt x="803" y="32" on="0"/>
        <pt x="848" y="139" on="1"/>
        <pt x="858" y="139" on="1"/>
      </contour>
      <contour>
        <pt x="466" y="350" on="1"/>
        <pt x="466" y="598" on="1"/>
        <pt x="319" y="350" on="1"/>
      </contour>
    </TTGlyph>
    <TTGlyph name="Aacute" xMin="-10" yMin="0" xMax="723" yMax="902">
      <contour>
        <pt x="357" y="764" on="1"/>
        <pt x="350" y="771" on="1"/>
        <pt x="426" y="853" on="0"/>
        <pt x="477" y="902" on="1"/>
        <pt x="503" y="875" on="0"/>
        <pt x="517" y="849" on="1"/>
        <pt x="453" y="812" on="0"/>
      </contour>
      <contour>
        <pt x="715" y="10" on="1"/>
        <pt x="723" y="10" on="1"/>
        <pt x="723" y="0" on="1"/>
        <pt x="498" y="0" on="1"/>
        <pt x="498" y="10" on="1"/>
        <pt x="507" y="10" on="1"/>
        <pt x="528" y="10" on="0"/>
        <pt x="549" y="37" on="0"/>
        <pt x="549" y="61" on="0"/>
        <pt x="545" y="73" on="1"/>
        <pt x="481" y="243" on="1"/>
        <pt x="211" y="243" on="1"/>
        <pt x="144" y="72" on="1"/>
        <pt x="140" y="60" on="0"/>
        <pt x="140" y="37" on="0"/>
        <pt x="161" y="10" on="0"/>
        <pt x="182" y="10" on="1"/>
        <pt x="191" y="10" on="1"/>
        <pt x="191" y="0" on="1"/>
        <pt x="-10" y="0" on="1"/>
        <pt x="-10" y="10" on="1"/>
        <pt x="-1" y="10" on="1"/>
        <pt x="24" y="10" on="0"/>
        <pt x="72" y="42" on="0"/>
        <pt x="87" y="73" on="1"/>
        <pt x="313" y="611" on="1"/>
        <pt x="350" y="692" on="0"/>
        <pt x="350" y="714" on="1"/>
        <pt x="359" y="714" on="1"/>
        <pt x="627" y="73" on="1"/>
        <pt x="641" y="42" on="0"/>
        <pt x="689" y="10" on="0"/>
      </contour>
      <contour>
        <pt x="223" y="273" on="1"/>
        <pt x="469" y="273" on="1"/>
        <pt x="349" y="594" on="1"/>
      </contour>
    </TTGlyph>
    <TTGlyph name="Abreve" xMin="-11" yMin="0" xMax="723" yMax="868">
      <contour>
        <pt x="460" y="868" on="1"/>
        <pt x="460" y="840" on="0"/>
        <pt x="432" y="792" on="0"/>
        <pt x="384" y="764" on="0"/>
        <pt x="315" y="764" on="0"/>
        <pt x="254" y="826" on="0"/>
        <pt x="254" y="868" on="1"/>
        <pt x="264" y="868" on="1"/>
        <pt x="272" y="846" on="0"/>
        <pt x="324" y="814" on="0"/>
        <pt x="390" y="814" on="0"/>
        <pt x="442" y="846" on="0"/>
        <pt x="450" y="868" on="1"/>
      </contour>
      <contour>
        <pt x="715" y="10" on="1"/>
        <pt x="723" y="10" on="1"/>
        <pt x="723" y="0" on="1"/>
        <pt x="498" y="0" on="1"/>
        <pt x="498" y="10" on="1"/>
        <pt x="507" y="10" on="1"/>
        <pt x="528" y="10" on="0"/>
        <pt x="549" y="37" on="0"/>
        <pt x="549" y="61" on="0"/>
        <pt x="545" y="73" on="1"/>
        <pt x="481" y="243" on="1"/>
        <pt x="211" y="243" on="1"/>
        <pt x="144" y="72" on="1"/>
        <pt x="140" y="60" on="0"/>
        <pt x="140" y="37" on="0"/>
        <pt x="161" y="10" on="0"/>
        <pt x="182" y="10" on="1"/>
        <pt x="191" y="10" on="1"/>
        <pt x="191" y="0" on="1"/>
        <pt x="-10" y="0" on="1"/>
        <pt x="-10" y="10" on="1"/>
        <pt x="-1" y="10" on="1"/>
        <pt x="24" y="10" on="0"/>
        <pt x="72" y="42" on="0"/>
        <pt x="87" y="73" on="1"/>
        <pt x="313" y="611" on="1"/>
        <pt x="350" y="692" on="0"/>
        <pt x="350" y="714" on="1"/>
        <pt x="359" y="714" on="1"/>
        <pt x="627" y="73" on="1"/>
        <pt x="641" y="42" on="0"/>
        <pt x="689" y="10" on="0"/>
      </contour>
      <contour>
        <pt x="223" y="273" on="1"/>
        <pt x="469" y="273" on="1"/>
        <pt x="349" y="594" on="1"/>
      </contour>
    </TTGlyph>
    <TTGlyph name="Acircumflex" xMin="-10" yMin="0" xMax="723" yMax="890">
      <contour>
        <pt x="351" y="890" on="1"/>
        <pt x="361" y="890" on="1"/>
        <pt x="476" y="771" on="1"/>
        <pt x="470" y="763" on="1"/>
        <pt x="356" y="829" on="1"/>
        <pt x="251" y="763" on="1"/>
        <pt x="245" y="771" on="1"/>
      </contour>
      <contour>
        <pt x="715" y="10" on="1"/>
        <pt x="723" y="10" on="1"/>
        <pt x="723" y="0" on="1"/>
        <pt x="498" y="0" on="1"/>
        <pt x="498" y="10" on="1"/>
        <pt x="507" y="10" on="1"/>
        <pt x="528" y="10" on="0"/>
        <pt x="549" y="37" on="0"/>
        <pt x="549" y="61" on="0"/>
        <pt x="545" y="73" on="1"/>
        <pt x="481" y="243" on="1"/>
        <pt x="211" y="243" on="1"/>
        <pt x="144" y="72" on="1"/>
        <pt x="140" y="60" on="0"/>
        <pt x="140" y="37" on="0"/>
        <pt x="161" y="10" on="0"/>
        <pt x="182" y="10" on="1"/>
        <pt x="191" y="10" on="1"/>
        <pt x="191" y="0" on="1"/>
        <pt x="-10" y="0" on="1"/>
        <pt x="-10" y="10" on="1"/>
        <pt x="-1" y="10" on="1"/>
        <pt x="24" y="10" on="0"/>
        <pt x="72" y="42" on="0"/>
        <pt x="87" y="73" on="1"/>
        <pt x="313" y="611" on="1"/>
        <pt x="350" y="692" on="0"/>
        <pt x="350" y="714" on="1"/>
        <pt x="359" y="714" on="1"/>
        <pt x="627" y="73" on="1"/>
        <pt x="641" y="42" on="0"/>
        <pt x="689" y="10" on="0"/>
      </contour>
      <contour>
        <pt x="223" y="273" on="1"/>
        <pt x="469" y="273" on="1"/>
        <pt x="349" y="594" on="1"/>
      </contour>
    </TTGlyph>
    <TTGlyph name="Adieresis" xMin="-11" yMin="0" xMax="723" yMax="843">
      <contour>
        <pt x="279" y="764" on="0"/>
        <pt x="246" y="764" on="0"/>
        <pt x="223" y="787" on="0"/>
        <pt x="223" y="819" on="0"/>
        <pt x="246" y="842" on="0"/>
        <pt x="279" y="842" on="0"/>
        <pt x="302" y="819" on="0"/>
        <pt x="302" y="787" on="0"/>
      </contour>
      <contour>
        <pt x="467" y="764" on="0"/>
        <pt x="435" y="764" on="0"/>
        <pt x="412" y="787" on="0"/>
        <pt x="412" y="819" on="0"/>
        <pt x="435" y="842" on="0"/>
        <pt x="467" y="842" on="0"/>
        <pt x="490" y="819" on="0"/>
        <pt x="490" y="787" on="0"/>
      </contour>
      <contour>
        <pt x="715" y="10" on="1"/>
        <pt x="723" y="10" on="1"/>
        <pt x="723" y="0" on="1"/>
        <pt x="498" y="0" on="1"/>
        <pt x="498" y="10" on="1"/>
        <pt x="507" y="10" on="1"/>
        <pt x="528" y="10" on="0"/>
        <pt x="549" y="37" on="0"/>
        <pt x="549" y="61" on="0"/>
        <pt x="545" y="73" on="1"/>
        <pt x="481" y="243" on="1"/>
        <pt x="211" y="243" on="1"/>
        <pt x="144" y="72" on="1"/>
        <pt x="140" y="60" on="0"/>
        <pt x="140" y="37" on="0"/>
        <pt x="161" y="10" on="0"/>
        <pt x="182" y="10" on="1"/>
        <pt x="191" y="10" on="1"/>
        <pt x="191" y="0" on="1"/>
        <pt x="-10" y="0" on="1"/>
        <pt x="-10" y="10" on="1"/>
        <pt x="-1" y="10" on="1"/>
        <pt x="24" y="10" on="0"/>
        <pt x="72" y="42" on="0"/>
        <pt x="87" y="73" on="1"/>
        <pt x="313" y="611" on="1"/>
        <pt x="350" y="692" on="0"/>
        <pt x="350" y="714" on="1"/>
        <pt x="359" y="714" on="1"/>
        <pt x="627" y="73" on="1"/>
        <pt x="641" y="42" on="0"/>
        <pt x="689" y="10" on="0"/>
      </contour>
      <contour>
        <pt x="223" y="273" on="1"/>
        <pt x="469" y="273" on="1"/>
        <pt x="349" y="594" on="1"/>
      </contour>
    </TTGlyph>
    <TTGlyph name="Agrave" xMin="-11" yMin="-1" xMax="723" yMax="902">
      <contour>
        <pt x="364" y="771" on="1"/>
        <pt x="357" y="764" on="1"/>
        <pt x="276" y="802" on="0"/>
        <pt x="196" y="849" on="1"/>
        <pt x="210" y="877" on="0"/>
        <pt x="237" y="902" on="1"/>
        <pt x="300" y="841" on="0"/>
      </contour>
      <contour>
        <pt x="715" y="10" on="1"/>
        <pt x="723" y="10" on="1"/>
        <pt x="723" y="0" on="1"/>
        <pt x="498" y="0" on="1"/>
        <pt x="498" y="10" on="1"/>
        <pt x="507" y="10" on="1"/>
        <pt x="528" y="10" on="0"/>
        <pt x="549" y="37" on="0"/>
        <pt x="549" y="61" on="0"/>
        <pt x="545" y="73" on="1"/>
        <pt x="481" y="243" on="1"/>
        <pt x="211" y="243" on="1"/>
        <pt x="144" y="72" on="1"/>
        <pt x="130" y="30" on="0"/>
        <pt x="164" y="14" on="1"/>
        <pt x="173" y="10" on="0"/>
        <pt x="182" y="10" on="1"/>
        <pt x="191" y="10" on="1"/>
        <pt x="191" y="0" on="1"/>
        <pt x="-10" y="0" on="1"/>
        <pt x="-10" y="10" on="1"/>
        <pt x="-1" y="10" on="1"/>
        <pt x="24" y="10" on="0"/>
        <pt x="72" y="42" on="0"/>
        <pt x="87" y="73" on="1"/>
        <pt x="313" y="611" on="1"/>
        <pt x="350" y="692" on="0"/>
        <pt x="350" y="714" on="1"/>
        <pt x="359" y="714" on="1"/>
        <pt x="627" y="73" on="1"/>
        <pt x="646" y="31" on="0"/>
        <pt x="683" y="16" on="1"/>
        <pt x="698" y="10" on="0"/>
      </contour>
      <contour>
        <pt x="223" y="273" on="1"/>
        <pt x="469" y="273" on="1"/>
        <pt x="349" y="594" on="1"/>
      </contour>
    </TTGlyph>
    <TTGlyph name="Amacron" xMin="-11" yMin="0" xMax="723" yMax="831">
      <contour>
        <pt x="234" y="795" on="1"/>
        <pt x="234" y="830" on="1"/>
        <pt x="484" y="830" on="1"/>
        <pt x="484" y="795" on="1"/>
      </contour>
      <contour>
        <pt x="715" y="10" on="1"/>
        <pt x="723" y="10" on="1"/>
        <pt x="723" y="0" on="1"/>
        <pt x="498" y="0" on="1"/>
        <pt x="498" y="10" on="1"/>
        <pt x="507" y="10" on="1"/>
        <pt x="528" y="10" on="0"/>
        <pt x="549" y="37" on="0"/>
        <pt x="549" y="61" on="0"/>
        <pt x="545" y="73" on="1"/>
        <pt x="481" y="243" on="1"/>
        <pt x="211" y="243" on="1"/>
        <pt x="144" y="72" on="1"/>
        <pt x="140" y="60" on="0"/>
        <pt x="140" y="37" on="0"/>
        <pt x="161" y="10" on="0"/>
        <pt x="182" y="10" on="1"/>
        <pt x="191" y="10" on="1"/>
        <pt x="191" y="0" on="1"/>
        <pt x="-10" y="0" on="1"/>
        <pt x="-10" y="10" on="1"/>
        <pt x="-1" y="10" on="1"/>
        <pt x="24" y="10" on="0"/>
        <pt x="72" y="42" on="0"/>
        <pt x="87" y="73" on="1"/>
        <pt x="313" y="611" on="1"/>
        <pt x="350" y="692" on="0"/>
        <pt x="350" y="714" on="1"/>
        <pt x="359" y="714" on="1"/>
        <pt x="627" y="73" on="1"/>
        <pt x="641" y="42" on="0"/>
        <pt x="689" y="10" on="0"/>
      </contour>
      <contour>
        <pt x="223" y="273" on="1"/>
        <pt x="469" y="273" on="1"/>
        <pt x="349" y="594" on="1"/>
      </contour>
    </TTGlyph>
    <TTGlyph name="Aogonek" xMin="-11" yMin="-176" xMax="749" yMax="715">
      <contour>
        <pt x="674" y="-113" on="1"/>
        <pt x="680" y="-119" on="1"/>
        <pt x="671" y="-143" on="0"/>
        <pt x="629" y="-173" on="0"/>
        <pt x="599" y="-176" on="0"/>
        <pt x="587" y="-176" on="1"/>
        <pt x="543" y="-176" on="0"/>
        <pt x="518" y="-140" on="1"/>
        <pt x="502" y="-117" on="0"/>
        <pt x="502" y="-67" on="0"/>
        <pt x="510" y="-52" on="1"/>
        <pt x="523" y="-24" on="0"/>
        <pt x="548" y="-10" on="1"/>
        <pt x="579" y="7" on="0"/>
        <pt x="579" y="33" on="1"/>
        <pt x="579" y="48" on="0"/>
        <pt x="571" y="71" on="1"/>
        <pt x="502" y="243" on="1"/>
        <pt x="215" y="243" on="1"/>
        <pt x="144" y="72" on="1"/>
        <pt x="140" y="60" on="0"/>
        <pt x="140" y="37" on="0"/>
        <pt x="161" y="10" on="0"/>
        <pt x="182" y="10" on="1"/>
        <pt x="191" y="10" on="1"/>
        <pt x="191" y="0" on="1"/>
        <pt x="-10" y="0" on="1"/>
        <pt x="-10" y="10" on="1"/>
        <pt x="-1" y="10" on="1"/>
        <pt x="24" y="10" on="0"/>
        <pt x="72" y="42" on="0"/>
        <pt x="87" y="73" on="1"/>
        <pt x="327" y="611" on="1"/>
        <pt x="364" y="692" on="0"/>
        <pt x="364" y="714" on="1"/>
        <pt x="373" y="714" on="1"/>
        <pt x="656" y="68" on="1"/>
        <pt x="677" y="22" on="0"/>
        <pt x="721" y="11" on="1"/>
        <pt x="730" y="9" on="0"/>
        <pt x="739" y="9" on="1"/>
        <pt x="748" y="9" on="1"/>
        <pt x="748" y="0" on="1"/>
        <pt x="703" y="0" on="0"/>
        <pt x="678" y="2" on="1"/>
        <pt x="639" y="5" on="0"/>
        <pt x="582" y="-5" on="0"/>
        <pt x="550" y="-46" on="0"/>
        <pt x="550" y="-92" on="0"/>
        <pt x="562" y="-109" on="1"/>
        <pt x="584" y="-137" on="0"/>
        <pt x="650" y="-137" on="0"/>
      </contour>
      <contour>
        <pt x="228" y="273" on="1"/>
        <pt x="490" y="273" on="1"/>
        <pt x="362" y="596" on="1"/>
      </contour>
    </TTGlyph>
    <TTGlyph name="Aring" xMin="-10" yMin="-1" xMax="723" yMax="838">
      <contour>
        <pt x="715" y="10" on="1"/>
        <pt x="723" y="10" on="1"/>
        <pt x="723" y="0" on="1"/>
        <pt x="498" y="0" on="1"/>
        <pt x="498" y="10" on="1"/>
        <pt x="507" y="10" on="1"/>
        <pt x="528" y="10" on="0"/>
        <pt x="549" y="37" on="0"/>
        <pt x="549" y="61" on="0"/>
        <pt x="545" y="73" on="1"/>
        <pt x="481" y="243" on="1"/>
        <pt x="211" y="243" on="1"/>
        <pt x="144" y="72" on="1"/>
        <pt x="130" y="30" on="0"/>
        <pt x="164" y="14" on="1"/>
        <pt x="173" y="10" on="0"/>
        <pt x="182" y="10" on="1"/>
        <pt x="191" y="10" on="1"/>
        <pt x="191" y="0" on="1"/>
        <pt x="-10" y="0" on="1"/>
        <pt x="-10" y="10" on="1"/>
        <pt x="-1" y="10" on="1"/>
        <pt x="24" y="10" on="0"/>
        <pt x="72" y="42" on="0"/>
        <pt x="87" y="73" on="1"/>
        <pt x="313" y="611" on="1"/>
        <pt x="341" y="671" on="0"/>
        <pt x="348" y="702" on="1"/>
        <pt x="315" y="704" on="0"/>
        <pt x="271" y="741" on="0"/>
        <pt x="271" y="799" on="0"/>
        <pt x="319" y="837" on="0"/>
        <pt x="393" y="837" on="0"/>
        <pt x="441" y="801" on="0"/>
        <pt x="441" y="742" on="0"/>
        <pt x="398" y="704" on="0"/>
        <pt x="365" y="702" on="1"/>
        <pt x="627" y="73" on="1"/>
        <pt x="641" y="42" on="0"/>
        <pt x="689" y="10" on="0"/>
      </contour>
      <contour>
        <pt x="311" y="794" on="0"/>
        <pt x="311" y="745" on="0"/>
        <pt x="336" y="717" on="0"/>
        <pt x="375" y="717" on="0"/>
        <pt x="400" y="745" on="0"/>
        <pt x="400" y="794" on="0"/>
        <pt x="375" y="822" on="0"/>
        <pt x="336" y="822" on="0"/>
      </contour>
      <contour>
        <pt x="223" y="273" on="1"/>
        <pt x="469" y="273" on="1"/>
        <pt x="349" y="594" on="1"/>
      </contour>
    </TTGlyph>
    <TTGlyph name="Atilde" xMin="-11" yMin="0" xMax="723" yMax="852">
      <contour>
        <pt x="427" y="809" on="1"/>
        <pt x="468" y="809" on="0"/>
        <pt x="482" y="843" on="1"/>
        <pt x="492" y="843" on="1"/>
        <pt x="487" y="793" on="0"/>
        <pt x="458" y="773" on="1"/>
        <pt x="444" y="764" on="0"/>
        <pt x="404" y="764" on="0"/>
        <pt x="321" y="808" on="0"/>
        <pt x="306" y="808" on="1"/>
        <pt x="269" y="808" on="0"/>
        <pt x="252" y="767" on="1"/>
        <pt x="242" y="767" on="1"/>
        <pt x="248" y="806" on="0"/>
        <pt x="282" y="852" on="0"/>
        <pt x="330" y="852" on="0"/>
        <pt x="411" y="809" on="0"/>
      </contour>
      <contour>
        <pt x="715" y="10" on="1"/>
        <pt x="723" y="10" on="1"/>
        <pt x="723" y="0" on="1"/>
        <pt x="498" y="0" on="1"/>
        <pt x="498" y="10" on="1"/>
        <pt x="507" y="10" on="1"/>
        <pt x="528" y="10" on="0"/>
        <pt x="549" y="37" on="0"/>
        <pt x="549" y="61" on="0"/>
        <pt x="545" y="73" on="1"/>
        <pt x="481" y="243" on="1"/>
        <pt x="211" y="243" on="1"/>
        <pt x="144" y="72" on="1"/>
        <pt x="140" y="60" on="0"/>
        <pt x="140" y="37" on="0"/>
        <pt x="161" y="10" on="0"/>
        <pt x="182" y="10" on="1"/>
        <pt x="191" y="10" on="1"/>
        <pt x="191" y="0" on="1"/>
        <pt x="-10" y="0" on="1"/>
        <pt x="-10" y="10" on="1"/>
        <pt x="-1" y="10" on="1"/>
        <pt x="24" y="10" on="0"/>
        <pt x="72" y="42" on="0"/>
        <pt x="87" y="73" on="1"/>
        <pt x="313" y="611" on="1"/>
        <pt x="350" y="692" on="0"/>
        <pt x="350" y="714" on="1"/>
        <pt x="359" y="714" on="1"/>
        <pt x="627" y="73" on="1"/>
        <pt x="641" y="42" on="0"/>
        <pt x="689" y="10" on="0"/>
      </contour>
      <contour>
        <pt x="223" y="273" on="1"/>
        <pt x="469" y="273" on="1"/>
        <pt x="349" y="594" on="1"/>
      </contour>
    </TTGlyph>
    <TTGlyph name="B" xMin="60" yMin="-1" xMax="537" yMax="700">
      <contour>
        <pt x="304" y="0" on="1"/>
        <pt x="60" y="0" on="1"/>
        <pt x="61" y="10" on="1"/>
        <pt x="73" y="10" on="1"/>
        <pt x="99" y="10" on="0"/>
        <pt x="136" y="46" on="0"/>
        <pt x="137" y="72" on="1"/>
        <pt x="137" y="628" on="1"/>
        <pt x="137" y="654" on="0"/>
        <pt x="99" y="690" on="0"/>
        <pt x="73" y="690" on="1"/>
        <pt x="61" y="690" on="1"/>
        <pt x="60" y="700" on="1"/>
        <pt x="259" y="700" on="1"/>
        <pt x="362" y="700" on="0"/>
        <pt x="476" y="609" on="0"/>
        <pt x="476" y="533" on="1"/>
        <pt x="476" y="473" on="0"/>
        <pt x="412" y="394" on="0"/>
        <pt x="366" y="381" on="1"/>
        <pt x="445" y="369" on="0"/>
        <pt x="537" y="263" on="0"/>
        <pt x="537" y="102" on="0"/>
        <pt x="414" y="0" on="0"/>
      </contour>
      <contour>
        <pt x="202" y="36" on="1"/>
        <pt x="300" y="36" on="1"/>
        <pt x="301" y="36" on="0"/>
        <pt x="302" y="36" on="1"/>
        <pt x="378" y="36" on="0"/>
        <pt x="462" y="119" on="0"/>
        <pt x="462" y="195" on="1"/>
        <pt x="462" y="238" on="0"/>
        <pt x="433" y="303" on="0"/>
        <pt x="411" y="322" on="1"/>
        <pt x="353" y="370" on="0"/>
        <pt x="237" y="370" on="1"/>
        <pt x="237" y="370" on="0"/>
        <pt x="236" y="370" on="1"/>
        <pt x="236" y="379" on="1"/>
        <pt x="237" y="379" on="0"/>
        <pt x="254" y="379" on="0"/>
        <pt x="286" y="383" on="0"/>
        <pt x="326" y="393" on="0"/>
        <pt x="358" y="415" on="0"/>
        <pt x="372" y="430" on="1"/>
        <pt x="401" y="463" on="0"/>
        <pt x="401" y="594" on="0"/>
        <pt x="326" y="668" on="0"/>
        <pt x="255" y="668" on="1"/>
        <pt x="202" y="668" on="1"/>
      </contour>
    </TTGlyph>
    <TTGlyph name="C" xMin="60" yMin="-15" xMax="711" yMax="714">
      <contour>
        <pt x="259" y="-13" on="0"/>
        <pt x="60" y="187" on="0"/>
        <pt x="60" y="514" on="0"/>
        <pt x="259" y="714" on="0"/>
        <pt x="423" y="714" on="1"/>
        <pt x="557" y="714" on="0"/>
        <pt x="660" y="646" on="1"/>
        <pt x="680" y="505" on="1"/>
        <pt x="671" y="505" on="1"/>
        <pt x="649" y="591" on="0"/>
        <pt x="515" y="684" on="0"/>
        <pt x="423" y="684" on="1"/>
        <pt x="292" y="684" on="0"/>
        <pt x="135" y="502" on="0"/>
        <pt x="135" y="202" on="0"/>
        <pt x="290" y="19" on="0"/>
        <pt x="417" y="16" on="1"/>
        <pt x="529" y="16" on="0"/>
        <pt x="604" y="77" on="1"/>
        <pt x="685" y="143" on="0"/>
        <pt x="702" y="292" on="1"/>
        <pt x="710" y="292" on="1"/>
        <pt x="698" y="135" on="1"/>
        <pt x="607" y="-14" on="0"/>
        <pt x="417" y="-14" on="1"/>
      </contour>
    </TTGlyph>
    <TTGlyph name="Cacute" xMin="59" yMin="-15" xMax="711" yMax="902">
      <contour>
        <pt x="417" y="764" on="1"/>
        <pt x="410" y="771" on="1"/>
        <pt x="486" y="853" on="0"/>
        <pt x="537" y="902" on="1"/>
        <pt x="564" y="875" on="0"/>
        <pt x="578" y="849" on="1"/>
        <pt x="514" y="812" on="0"/>
      </contour>
      <contour>
        <pt x="259" y="-13" on="0"/>
        <pt x="60" y="187" on="0"/>
        <pt x="60" y="514" on="0"/>
        <pt x="259" y="714" on="0"/>
        <pt x="423" y="714" on="1"/>
        <pt x="557" y="714" on="0"/>
        <pt x="660" y="646" on="1"/>
        <pt x="680" y="505" on="1"/>
        <pt x="671" y="505" on="1"/>
        <pt x="649" y="591" on="0"/>
        <pt x="515" y="684" on="0"/>
        <pt x="423" y="684" on="1"/>
        <pt x="292" y="684" on="0"/>
        <pt x="135" y="502" on="0"/>
        <pt x="135" y="202" on="0"/>
        <pt x="290" y="19" on="0"/>
        <pt x="417" y="16" on="1"/>
        <pt x="529" y="16" on="0"/>
        <pt x="604" y="77" on="1"/>
        <pt x="685" y="143" on="0"/>
        <pt x="702" y="292" on="1"/>
        <pt x="710" y="292" on="1"/>
        <pt x="698" y="135" on="1"/>
        <pt x="607" y="-14" on="0"/>
        <pt x="417" y="-14" on="1"/>
      </contour>
    </TTGlyph>
    <TTGlyph name="Ccaron" xMin="59" yMin="-15" xMax="711" yMax="891">
      <contour>
        <pt x="422" y="764" on="1"/>
        <pt x="412" y="764" on="1"/>
        <pt x="298" y="883" on="1"/>
        <pt x="304" y="891" on="1"/>
        <pt x="418" y="825" on="1"/>
        <pt x="522" y="891" on="1"/>
        <pt x="528" y="883" on="1"/>
      </contour>
      <contour>
        <pt x="60" y="351" on="1"/>
        <pt x="60" y="459" on="0"/>
        <pt x="149" y="623" on="0"/>
        <pt x="314" y="714" on="0"/>
        <pt x="423" y="714" on="1"/>
        <pt x="557" y="714" on="0"/>
        <pt x="660" y="646" on="1"/>
        <pt x="680" y="505" on="1"/>
        <pt x="671" y="505" on="1"/>
        <pt x="649" y="591" on="0"/>
        <pt x="515" y="684" on="0"/>
        <pt x="423" y="684" on="1"/>
        <pt x="292" y="684" on="0"/>
        <pt x="135" y="502" on="0"/>
        <pt x="135" y="202" on="0"/>
        <pt x="290" y="19" on="0"/>
        <pt x="417" y="16" on="1"/>
        <pt x="529" y="16" on="0"/>
        <pt x="604" y="77" on="1"/>
        <pt x="685" y="143" on="0"/>
        <pt x="702" y="292" on="1"/>
        <pt x="710" y="292" on="1"/>
        <pt x="698" y="135" on="1"/>
        <pt x="607" y="-14" on="0"/>
        <pt x="417" y="-14" on="1"/>
        <pt x="259" y="-13" on="0"/>
        <pt x="60" y="187" on="0"/>
      </contour>
    </TTGlyph>
    <TTGlyph name="Ccedilla" xMin="60" yMin="-196" xMax="711" yMax="714">
      <contour>
        <pt x="394" y="-57" on="1"/>
        <pt x="425" y="-46" on="0"/>
        <pt x="450" y="-53" on="1"/>
        <pt x="499" y="-66" on="0"/>
        <pt x="499" y="-162" on="0"/>
        <pt x="455" y="-183" on="1"/>
        <pt x="430" y="-195" on="0"/>
        <pt x="381" y="-195" on="0"/>
        <pt x="358" y="-188" on="1"/>
        <pt x="359" y="-178" on="1"/>
        <pt x="395" y="-178" on="0"/>
        <pt x="449" y="-148" on="0"/>
        <pt x="449" y="-117" on="1"/>
        <pt x="449" y="-73" on="0"/>
        <pt x="398" y="-73" on="1"/>
        <pt x="382" y="-73" on="0"/>
        <pt x="365" y="-81" on="1"/>
        <pt x="360" y="-71" on="1"/>
        <pt x="404" y="-14" on="1"/>
        <pt x="251" y="-9" on="0"/>
        <pt x="60" y="190" on="0"/>
        <pt x="60" y="514" on="0"/>
        <pt x="259" y="714" on="0"/>
        <pt x="423" y="714" on="1"/>
        <pt x="557" y="714" on="0"/>
        <pt x="660" y="646" on="1"/>
        <pt x="680" y="505" on="1"/>
        <pt x="671" y="505" on="1"/>
        <pt x="649" y="591" on="0"/>
        <pt x="515" y="684" on="0"/>
        <pt x="423" y="684" on="1"/>
        <pt x="292" y="684" on="0"/>
        <pt x="135" y="502" on="0"/>
        <pt x="135" y="202" on="0"/>
        <pt x="290" y="19" on="0"/>
        <pt x="417" y="16" on="1"/>
        <pt x="529" y="16" on="0"/>
        <pt x="604" y="77" on="1"/>
        <pt x="685" y="143" on="0"/>
        <pt x="702" y="292" on="1"/>
        <pt x="710" y="292" on="1"/>
        <pt x="698" y="135" on="1"/>
        <pt x="611" y="-8" on="0"/>
        <pt x="432" y="-14" on="1"/>
      </contour>
    </TTGlyph>
    <TTGlyph name="Cdotaccent" xMin="60" yMin="-15" xMax="711" yMax="851">
      <contour>
        <pt x="434" y="765" on="0"/>
        <pt x="398" y="765" on="0"/>
        <pt x="373" y="790" on="0"/>
        <pt x="373" y="826" on="0"/>
        <pt x="398" y="851" on="0"/>
        <pt x="434" y="851" on="0"/>
        <pt x="459" y="826" on="0"/>
        <pt x="459" y="790" on="0"/>
      </contour>
      <contour>
        <pt x="259" y="-13" on="0"/>
        <pt x="60" y="187" on="0"/>
        <pt x="60" y="514" on="0"/>
        <pt x="259" y="714" on="0"/>
        <pt x="423" y="714" on="1"/>
        <pt x="557" y="714" on="0"/>
        <pt x="660" y="646" on="1"/>
        <pt x="680" y="505" on="1"/>
        <pt x="671" y="505" on="1"/>
        <pt x="649" y="591" on="0"/>
        <pt x="515" y="684" on="0"/>
        <pt x="423" y="684" on="1"/>
        <pt x="292" y="684" on="0"/>
        <pt x="135" y="502" on="0"/>
        <pt x="135" y="202" on="0"/>
        <pt x="290" y="19" on="0"/>
        <pt x="417" y="16" on="1"/>
        <pt x="529" y="16" on="0"/>
        <pt x="604" y="77" on="1"/>
        <pt x="685" y="143" on="0"/>
        <pt x="702" y="292" on="1"/>
        <pt x="710" y="292" on="1"/>
        <pt x="698" y="135" on="1"/>
        <pt x="607" y="-14" on="0"/>
        <pt x="417" y="-14" on="1"/>
      </contour>
    </TTGlyph>
    <TTGlyph name="D" xMin="59" yMin="-1" xMax="758" yMax="700">
      <contour>
        <pt x="559" y="700" on="0"/>
        <pt x="758" y="507" on="0"/>
        <pt x="758" y="193" on="0"/>
        <pt x="559" y="0" on="0"/>
        <pt x="399" y="0" on="1"/>
        <pt x="60" y="0" on="1"/>
        <pt x="60" y="10" on="1"/>
        <pt x="73" y="10" on="1"/>
        <pt x="99" y="10" on="0"/>
        <pt x="136" y="47" on="0"/>
        <pt x="137" y="73" on="1"/>
        <pt x="137" y="633" on="1"/>
        <pt x="137" y="657" on="0"/>
        <pt x="98" y="690" on="0"/>
        <pt x="73" y="690" on="1"/>
        <pt x="61" y="690" on="1"/>
        <pt x="60" y="700" on="1"/>
        <pt x="399" y="700" on="1"/>
      </contour>
      <contour>
        <pt x="202" y="670" on="1"/>
        <pt x="202" y="30" on="1"/>
        <pt x="399" y="30" on="1"/>
        <pt x="483" y="30" on="0"/>
        <pt x="612" y="110" on="0"/>
        <pt x="683" y="255" on="0"/>
        <pt x="683" y="350" on="1"/>
        <pt x="683" y="494" on="0"/>
        <pt x="526" y="670" on="0"/>
        <pt x="399" y="670" on="1"/>
      </contour>
    </TTGlyph>
    <TTGlyph name="Dcaron" xMin="59" yMin="-1" xMax="758" yMax="891">
      <contour>
        <pt x="404" y="764" on="1"/>
        <pt x="394" y="764" on="1"/>
        <pt x="280" y="883" on="1"/>
        <pt x="286" y="891" on="1"/>
        <pt x="400" y="825" on="1"/>
        <pt x="504" y="891" on="1"/>
        <pt x="510" y="883" on="1"/>
      </contour>
      <contour>
        <pt x="559" y="700" on="0"/>
        <pt x="758" y="507" on="0"/>
        <pt x="758" y="193" on="0"/>
        <pt x="559" y="0" on="0"/>
        <pt x="399" y="0" on="1"/>
        <pt x="60" y="0" on="1"/>
        <pt x="60" y="10" on="1"/>
        <pt x="73" y="10" on="1"/>
        <pt x="99" y="10" on="0"/>
        <pt x="136" y="47" on="0"/>
        <pt x="137" y="73" on="1"/>
        <pt x="137" y="633" on="1"/>
        <pt x="137" y="657" on="0"/>
        <pt x="98" y="690" on="0"/>
        <pt x="73" y="690" on="1"/>
        <pt x="60" y="690" on="1"/>
        <pt x="60" y="700" on="1"/>
        <pt x="399" y="700" on="1"/>
      </contour>
      <contour>
        <pt x="202" y="670" on="1"/>
        <pt x="202" y="30" on="1"/>
        <pt x="399" y="30" on="1"/>
        <pt x="483" y="30" on="0"/>
        <pt x="612" y="110" on="0"/>
        <pt x="683" y="255" on="0"/>
        <pt x="683" y="350" on="1"/>
        <pt x="683" y="494" on="0"/>
        <pt x="526" y="670" on="0"/>
        <pt x="399" y="670" on="1"/>
      </contour>
    </TTGlyph>
    <TTGlyph name="Dcroat" xMin="59" yMin="-1" xMax="758" yMax="831">
      <contour>
        <pt x="277" y="795" on="1"/>
        <pt x="277" y="830" on="1"/>
        <pt x="527" y="830" on="1"/>
        <pt x="527" y="795" on="1"/>
      </contour>
      <contour>
        <pt x="559" y="700" on="0"/>
        <pt x="758" y="507" on="0"/>
        <pt x="758" y="193" on="0"/>
        <pt x="559" y="0" on="0"/>
        <pt x="399" y="0" on="1"/>
        <pt x="60" y="0" on="1"/>
        <pt x="60" y="10" on="1"/>
        <pt x="73" y="10" on="1"/>
        <pt x="99" y="10" on="0"/>
        <pt x="136" y="47" on="0"/>
        <pt x="137" y="73" on="1"/>
        <pt x="137" y="633" on="1"/>
        <pt x="137" y="657" on="0"/>
        <pt x="98" y="690" on="0"/>
        <pt x="73" y="690" on="1"/>
        <pt x="61" y="690" on="1"/>
        <pt x="60" y="700" on="1"/>
        <pt x="399" y="700" on="1"/>
      </contour>
      <contour>
        <pt x="202" y="670" on="1"/>
        <pt x="202" y="30" on="1"/>
        <pt x="399" y="30" on="1"/>
        <pt x="483" y="30" on="0"/>
        <pt x="612" y="110" on="0"/>
        <pt x="683" y="255" on="0"/>
        <pt x="683" y="350" on="1"/>
        <pt x="683" y="494" on="0"/>
        <pt x="526" y="670" on="0"/>
        <pt x="399" y="670" on="1"/>
      </contour>
    </TTGlyph>
    <TTGlyph name="Delta" xMin="5" yMin="0" xMax="647" yMax="714">
      <contour>
        <pt x="647" y="0" on="1"/>
        <pt x="5" y="0" on="1"/>
        <pt x="5" y="10" on="1"/>
        <pt x="321" y="714" on="1"/>
        <pt x="331" y="714" on="1"/>
        <pt x="647" y="10" on="1"/>
      </contour>
      <contour>
        <pt x="558" y="30" on="1"/>
        <pt x="307" y="612" on="1"/>
        <pt x="49" y="30" on="1"/>
      </contour>
    </TTGlyph>
    <TTGlyph name="E" xMin="60" yMin="-1" xMax="533" yMax="719">
      <contour>
        <pt x="73" y="10" on="1"/>
        <pt x="99" y="10" on="0"/>
        <pt x="136" y="47" on="0"/>
        <pt x="137" y="73" on="1"/>
        <pt x="137" y="633" on="1"/>
        <pt x="134" y="657" on="0"/>
        <pt x="98" y="690" on="0"/>
        <pt x="73" y="690" on="1"/>
        <pt x="61" y="690" on="1"/>
        <pt x="60" y="700" on="1"/>
        <pt x="353" y="700" on="1"/>
        <pt x="384" y="700" on="0"/>
        <pt x="457" y="712" on="0"/>
        <pt x="472" y="718" on="1"/>
        <pt x="472" y="592" on="1"/>
        <pt x="462" y="592" on="1"/>
        <pt x="462" y="610" on="1"/>
        <pt x="462" y="634" on="0"/>
        <pt x="429" y="668" on="0"/>
        <pt x="406" y="669" on="1"/>
        <pt x="202" y="669" on="1"/>
        <pt x="202" y="360" on="1"/>
        <pt x="371" y="360" on="1"/>
        <pt x="391" y="361" on="0"/>
        <pt x="419" y="389" on="0"/>
        <pt x="419" y="410" on="1"/>
        <pt x="419" y="424" on="1"/>
        <pt x="429" y="424" on="1"/>
        <pt x="429" y="266" on="1"/>
        <pt x="419" y="266" on="1"/>
        <pt x="419" y="281" on="1"/>
        <pt x="419" y="301" on="0"/>
        <pt x="392" y="329" on="0"/>
        <pt x="372" y="330" on="1"/>
        <pt x="202" y="330" on="1"/>
        <pt x="202" y="31" on="1"/>
        <pt x="345" y="31" on="1"/>
        <pt x="419" y="31" on="0"/>
        <pt x="497" y="97" on="0"/>
        <pt x="523" y="162" on="1"/>
        <pt x="533" y="162" on="1"/>
        <pt x="475" y="0" on="1"/>
        <pt x="60" y="0" on="1"/>
        <pt x="60" y="10" on="1"/>
      </contour>
    </TTGlyph>
    <TTGlyph name="Eacute" xMin="60" yMin="-1" xMax="533" yMax="902">
      <contour>
        <pt x="298" y="764" on="1"/>
        <pt x="291" y="771" on="1"/>
        <pt x="367" y="853" on="0"/>
        <pt x="418" y="902" on="1"/>
        <pt x="445" y="875" on="0"/>
        <pt x="459" y="849" on="1"/>
        <pt x="395" y="812" on="0"/>
      </contour>
      <contour>
        <pt x="73" y="10" on="1"/>
        <pt x="99" y="10" on="0"/>
        <pt x="136" y="47" on="0"/>
        <pt x="137" y="73" on="1"/>
        <pt x="137" y="633" on="1"/>
        <pt x="134" y="657" on="0"/>
        <pt x="98" y="690" on="0"/>
        <pt x="73" y="690" on="1"/>
        <pt x="61" y="690" on="1"/>
        <pt x="60" y="700" on="1"/>
        <pt x="353" y="700" on="1"/>
        <pt x="396" y="700" on="0"/>
        <pt x="463" y="714" on="0"/>
        <pt x="472" y="718" on="1"/>
        <pt x="472" y="592" on="1"/>
        <pt x="462" y="592" on="1"/>
        <pt x="462" y="610" on="1"/>
        <pt x="462" y="634" on="0"/>
        <pt x="429" y="668" on="0"/>
        <pt x="406" y="669" on="1"/>
        <pt x="202" y="669" on="1"/>
        <pt x="202" y="360" on="1"/>
        <pt x="371" y="360" on="1"/>
        <pt x="391" y="361" on="0"/>
        <pt x="419" y="389" on="0"/>
        <pt x="419" y="410" on="1"/>
        <pt x="419" y="424" on="1"/>
        <pt x="429" y="424" on="1"/>
        <pt x="429" y="266" on="1"/>
        <pt x="419" y="266" on="1"/>
        <pt x="419" y="281" on="1"/>
        <pt x="419" y="301" on="0"/>
        <pt x="392" y="329" on="0"/>
        <pt x="372" y="330" on="1"/>
        <pt x="202" y="330" on="1"/>
        <pt x="202" y="31" on="1"/>
        <pt x="345" y="31" on="1"/>
        <pt x="419" y="31" on="0"/>
        <pt x="497" y="97" on="0"/>
        <pt x="523" y="162" on="1"/>
        <pt x="533" y="162" on="1"/>
        <pt x="475" y="0" on="1"/>
        <pt x="60" y="0" on="1"/>
        <pt x="60" y="10" on="1"/>
      </contour>
    </TTGlyph>
    <TTGlyph name="Ecaron" xMin="60" yMin="-1" xMax="533" yMax="891">
      <contour>
        <pt x="303" y="764" on="1"/>
        <pt x="293" y="764" on="1"/>
        <pt x="179" y="883" on="1"/>
        <pt x="185" y="891" on="1"/>
        <pt x="299" y="825" on="1"/>
        <pt x="403" y="891" on="1"/>
        <pt x="409" y="883" on="1"/>
      </contour>
      <contour>
        <pt x="73" y="10" on="1"/>
        <pt x="99" y="10" on="0"/>
        <pt x="136" y="47" on="0"/>
        <pt x="137" y="73" on="1"/>
        <pt x="137" y="633" on="1"/>
        <pt x="133" y="666" on="0"/>
        <pt x="104" y="682" on="1"/>
        <pt x="89" y="690" on="0"/>
        <pt x="73" y="690" on="1"/>
        <pt x="61" y="690" on="1"/>
        <pt x="60" y="700" on="1"/>
        <pt x="353" y="700" on="1"/>
        <pt x="384" y="700" on="0"/>
        <pt x="457" y="712" on="0"/>
        <pt x="472" y="718" on="1"/>
        <pt x="472" y="592" on="1"/>
        <pt x="462" y="592" on="1"/>
        <pt x="462" y="610" on="1"/>
        <pt x="462" y="634" on="0"/>
        <pt x="429" y="668" on="0"/>
        <pt x="406" y="669" on="1"/>
        <pt x="202" y="669" on="1"/>
        <pt x="202" y="360" on="1"/>
        <pt x="371" y="360" on="1"/>
        <pt x="391" y="361" on="0"/>
        <pt x="419" y="389" on="0"/>
        <pt x="419" y="410" on="1"/>
        <pt x="419" y="424" on="1"/>
        <pt x="429" y="424" on="1"/>
        <pt x="429" y="266" on="1"/>
        <pt x="419" y="266" on="1"/>
        <pt x="419" y="281" on="1"/>
        <pt x="419" y="301" on="0"/>
        <pt x="392" y="329" on="0"/>
        <pt x="372" y="330" on="1"/>
        <pt x="202" y="330" on="1"/>
        <pt x="202" y="31" on="1"/>
        <pt x="345" y="31" on="1"/>
        <pt x="419" y="31" on="0"/>
        <pt x="497" y="97" on="0"/>
        <pt x="523" y="162" on="1"/>
        <pt x="533" y="162" on="1"/>
        <pt x="475" y="0" on="1"/>
        <pt x="60" y="0" on="1"/>
        <pt x="60" y="10" on="1"/>
      </contour>
    </TTGlyph>
    <TTGlyph name="Ecircumflex" xMin="60" yMin="-1" xMax="533" yMax="890">
      <contour>
        <pt x="293" y="890" on="1"/>
        <pt x="303" y="890" on="1"/>
        <pt x="417" y="771" on="1"/>
        <pt x="411" y="763" on="1"/>
        <pt x="298" y="829" on="1"/>
        <pt x="193" y="763" on="1"/>
        <pt x="187" y="771" on="1"/>
      </contour>
      <contour>
        <pt x="73" y="10" on="1"/>
        <pt x="99" y="10" on="0"/>
        <pt x="136" y="47" on="0"/>
        <pt x="137" y="73" on="1"/>
        <pt x="137" y="633" on="1"/>
        <pt x="133" y="666" on="0"/>
        <pt x="104" y="683" on="1"/>
        <pt x="90" y="690" on="0"/>
        <pt x="73" y="690" on="1"/>
        <pt x="61" y="690" on="1"/>
        <pt x="60" y="700" on="1"/>
        <pt x="353" y="700" on="1"/>
        <pt x="396" y="700" on="0"/>
        <pt x="463" y="714" on="0"/>
        <pt x="472" y="718" on="1"/>
        <pt x="472" y="592" on="1"/>
        <pt x="462" y="592" on="1"/>
        <pt x="462" y="610" on="1"/>
        <pt x="462" y="634" on="0"/>
        <pt x="429" y="668" on="0"/>
        <pt x="406" y="669" on="1"/>
        <pt x="202" y="669" on="1"/>
        <pt x="202" y="360" on="1"/>
        <pt x="371" y="360" on="1"/>
        <pt x="391" y="361" on="0"/>
        <pt x="419" y="389" on="0"/>
        <pt x="419" y="410" on="1"/>
        <pt x="419" y="424" on="1"/>
        <pt x="429" y="424" on="1"/>
        <pt x="429" y="266" on="1"/>
        <pt x="419" y="266" on="1"/>
        <pt x="419" y="281" on="1"/>
        <pt x="419" y="301" on="0"/>
        <pt x="392" y="329" on="0"/>
        <pt x="372" y="330" on="1"/>
        <pt x="202" y="330" on="1"/>
        <pt x="202" y="31" on="1"/>
        <pt x="345" y="31" on="1"/>
        <pt x="419" y="31" on="0"/>
        <pt x="497" y="97" on="0"/>
        <pt x="523" y="162" on="1"/>
        <pt x="533" y="162" on="1"/>
        <pt x="475" y="0" on="1"/>
        <pt x="60" y="0" on="1"/>
        <pt x="60" y="10" on="1"/>
      </contour>
    </TTGlyph>
    <TTGlyph name="Edieresis" xMin="60" yMin="-1" xMax="533" yMax="843">
      <contour>
        <pt x="220" y="764" on="0"/>
        <pt x="188" y="764" on="0"/>
        <pt x="165" y="787" on="0"/>
        <pt x="165" y="819" on="0"/>
        <pt x="188" y="842" on="0"/>
        <pt x="220" y="842" on="0"/>
        <pt x="243" y="819" on="0"/>
        <pt x="243" y="787" on="0"/>
      </contour>
      <contour>
        <pt x="409" y="764" on="0"/>
        <pt x="376" y="764" on="0"/>
        <pt x="353" y="787" on="0"/>
        <pt x="353" y="819" on="0"/>
        <pt x="376" y="842" on="0"/>
        <pt x="409" y="842" on="0"/>
        <pt x="432" y="819" on="0"/>
        <pt x="432" y="787" on="0"/>
      </contour>
      <contour>
        <pt x="73" y="10" on="1"/>
        <pt x="99" y="10" on="0"/>
        <pt x="136" y="47" on="0"/>
        <pt x="137" y="73" on="1"/>
        <pt x="137" y="633" on="1"/>
        <pt x="133" y="666" on="0"/>
        <pt x="104" y="683" on="1"/>
        <pt x="89" y="690" on="0"/>
        <pt x="73" y="690" on="1"/>
        <pt x="61" y="690" on="1"/>
        <pt x="60" y="700" on="1"/>
        <pt x="353" y="700" on="1"/>
        <pt x="396" y="700" on="0"/>
        <pt x="463" y="714" on="0"/>
        <pt x="472" y="718" on="1"/>
        <pt x="472" y="592" on="1"/>
        <pt x="462" y="592" on="1"/>
        <pt x="462" y="610" on="1"/>
        <pt x="462" y="634" on="0"/>
        <pt x="429" y="668" on="0"/>
        <pt x="406" y="669" on="1"/>
        <pt x="202" y="669" on="1"/>
        <pt x="202" y="360" on="1"/>
        <pt x="371" y="360" on="1"/>
        <pt x="391" y="361" on="0"/>
        <pt x="419" y="389" on="0"/>
        <pt x="419" y="410" on="1"/>
        <pt x="419" y="424" on="1"/>
        <pt x="429" y="424" on="1"/>
        <pt x="429" y="266" on="1"/>
        <pt x="419" y="266" on="1"/>
        <pt x="419" y="281" on="1"/>
        <pt x="419" y="312" on="0"/>
        <pt x="390" y="326" on="1"/>
        <pt x="382" y="330" on="0"/>
        <pt x="372" y="330" on="1"/>
        <pt x="202" y="330" on="1"/>
        <pt x="202" y="31" on="1"/>
        <pt x="345" y="31" on="1"/>
        <pt x="419" y="31" on="0"/>
        <pt x="497" y="97" on="0"/>
        <pt x="523" y="162" on="1"/>
        <pt x="533" y="162" on="1"/>
        <pt x="475" y="0" on="1"/>
        <pt x="60" y="0" on="1"/>
        <pt x="60" y="10" on="1"/>
      </contour>
    </TTGlyph>
    <TTGlyph name="Edotaccent" xMin="60" yMin="-1" xMax="533" yMax="851">
      <contour>
        <pt x="315" y="765" on="0"/>
        <pt x="279" y="765" on="0"/>
        <pt x="254" y="790" on="0"/>
        <pt x="254" y="826" on="0"/>
        <pt x="279" y="851" on="0"/>
        <pt x="315" y="851" on="0"/>
        <pt x="340" y="826" on="0"/>
        <pt x="340" y="790" on="0"/>
      </contour>
      <contour>
        <pt x="73" y="10" on="1"/>
        <pt x="99" y="10" on="0"/>
        <pt x="136" y="47" on="0"/>
        <pt x="137" y="73" on="1"/>
        <pt x="137" y="633" on="1"/>
        <pt x="133" y="666" on="0"/>
        <pt x="104" y="683" on="1"/>
        <pt x="89" y="690" on="0"/>
        <pt x="73" y="690" on="1"/>
        <pt x="61" y="690" on="1"/>
        <pt x="60" y="700" on="1"/>
        <pt x="353" y="700" on="1"/>
        <pt x="396" y="700" on="0"/>
        <pt x="463" y="714" on="0"/>
        <pt x="472" y="718" on="1"/>
        <pt x="472" y="592" on="1"/>
        <pt x="462" y="592" on="1"/>
        <pt x="462" y="610" on="1"/>
        <pt x="462" y="634" on="0"/>
        <pt x="429" y="668" on="0"/>
        <pt x="406" y="669" on="1"/>
        <pt x="202" y="669" on="1"/>
        <pt x="202" y="360" on="1"/>
        <pt x="371" y="360" on="1"/>
        <pt x="391" y="361" on="0"/>
        <pt x="419" y="389" on="0"/>
        <pt x="419" y="410" on="1"/>
        <pt x="419" y="424" on="1"/>
        <pt x="429" y="424" on="1"/>
        <pt x="429" y="266" on="1"/>
        <pt x="419" y="266" on="1"/>
        <pt x="419" y="281" on="1"/>
        <pt x="419" y="301" on="0"/>
        <pt x="392" y="329" on="0"/>
        <pt x="372" y="330" on="1"/>
        <pt x="202" y="330" on="1"/>
        <pt x="202" y="31" on="1"/>
        <pt x="345" y="31" on="1"/>
        <pt x="419" y="31" on="0"/>
        <pt x="497" y="97" on="0"/>
        <pt x="523" y="162" on="1"/>
        <pt x="533" y="162" on="1"/>
        <pt x="475" y="0" on="1"/>
        <pt x="60" y="0" on="1"/>
        <pt x="60" y="10" on="1"/>
      </contour>
    </TTGlyph>
    <TTGlyph name="Egrave" xMin="60" yMin="-1" xMax="533" yMax="902">
      <contour>
        <pt x="305" y="771" on="1"/>
        <pt x="298" y="764" on="1"/>
        <pt x="218" y="802" on="0"/>
        <pt x="137" y="849" on="1"/>
        <pt x="152" y="877" on="0"/>
        <pt x="178" y="902" on="1"/>
        <pt x="242" y="841" on="0"/>
      </contour>
      <contour>
        <pt x="73" y="10" on="1"/>
        <pt x="99" y="10" on="0"/>
        <pt x="136" y="47" on="0"/>
        <pt x="137" y="73" on="1"/>
        <pt x="137" y="633" on="1"/>
        <pt x="134" y="657" on="0"/>
        <pt x="98" y="690" on="0"/>
        <pt x="73" y="690" on="1"/>
        <pt x="61" y="690" on="1"/>
        <pt x="60" y="700" on="1"/>
        <pt x="353" y="700" on="1"/>
        <pt x="396" y="700" on="0"/>
        <pt x="463" y="714" on="0"/>
        <pt x="472" y="718" on="1"/>
        <pt x="472" y="592" on="1"/>
        <pt x="462" y="592" on="1"/>
        <pt x="462" y="610" on="1"/>
        <pt x="462" y="634" on="0"/>
        <pt x="429" y="668" on="0"/>
        <pt x="406" y="669" on="1"/>
        <pt x="202" y="669" on="1"/>
        <pt x="202" y="360" on="1"/>
        <pt x="371" y="360" on="1"/>
        <pt x="391" y="361" on="0"/>
        <pt x="419" y="389" on="0"/>
        <pt x="419" y="410" on="1"/>
        <pt x="419" y="424" on="1"/>
        <pt x="429" y="424" on="1"/>
        <pt x="429" y="266" on="1"/>
        <pt x="419" y="266" on="1"/>
        <pt x="419" y="281" on="1"/>
        <pt x="419" y="301" on="0"/>
        <pt x="392" y="329" on="0"/>
        <pt x="372" y="330" on="1"/>
        <pt x="202" y="330" on="1"/>
        <pt x="202" y="31" on="1"/>
        <pt x="345" y="31" on="1"/>
        <pt x="419" y="31" on="0"/>
        <pt x="497" y="97" on="0"/>
        <pt x="523" y="162" on="1"/>
        <pt x="533" y="162" on="1"/>
        <pt x="475" y="0" on="1"/>
        <pt x="60" y="0" on="1"/>
        <pt x="60" y="10" on="1"/>
      </contour>
    </TTGlyph>
    <TTGlyph name="Emacron" xMin="60" yMin="-1" xMax="533" yMax="831">
      <contour>
        <pt x="176" y="795" on="1"/>
        <pt x="176" y="830" on="1"/>
        <pt x="426" y="830" on="1"/>
        <pt x="426" y="795" on="1"/>
      </contour>
      <contour>
        <pt x="73" y="10" on="1"/>
        <pt x="99" y="10" on="0"/>
        <pt x="136" y="47" on="0"/>
        <pt x="137" y="73" on="1"/>
        <pt x="137" y="633" on="1"/>
        <pt x="134" y="657" on="0"/>
        <pt x="98" y="690" on="0"/>
        <pt x="73" y="690" on="1"/>
        <pt x="61" y="690" on="1"/>
        <pt x="60" y="700" on="1"/>
        <pt x="353" y="700" on="1"/>
        <pt x="384" y="700" on="0"/>
        <pt x="457" y="712" on="0"/>
        <pt x="472" y="718" on="1"/>
        <pt x="472" y="592" on="1"/>
        <pt x="462" y="592" on="1"/>
        <pt x="462" y="610" on="1"/>
        <pt x="462" y="634" on="0"/>
        <pt x="429" y="668" on="0"/>
        <pt x="406" y="669" on="1"/>
        <pt x="202" y="669" on="1"/>
        <pt x="202" y="360" on="1"/>
        <pt x="371" y="360" on="1"/>
        <pt x="391" y="361" on="0"/>
        <pt x="419" y="389" on="0"/>
        <pt x="419" y="410" on="1"/>
        <pt x="419" y="424" on="1"/>
        <pt x="429" y="424" on="1"/>
        <pt x="429" y="266" on="1"/>
        <pt x="419" y="266" on="1"/>
        <pt x="419" y="281" on="1"/>
        <pt x="419" y="301" on="0"/>
        <pt x="392" y="329" on="0"/>
        <pt x="372" y="330" on="1"/>
        <pt x="202" y="330" on="1"/>
        <pt x="202" y="31" on="1"/>
        <pt x="345" y="31" on="1"/>
        <pt x="419" y="31" on="0"/>
        <pt x="497" y="97" on="0"/>
        <pt x="523" y="162" on="1"/>
        <pt x="533" y="162" on="1"/>
        <pt x="475" y="0" on="1"/>
        <pt x="60" y="0" on="1"/>
        <pt x="60" y="10" on="1"/>
      </contour>
    </TTGlyph>
    <TTGlyph name="Eng" xMin="45" yMin="-201" xMax="775" yMax="715">
      <contour>
        <pt x="758" y="687" on="1"/>
        <pt x="736" y="687" on="0"/>
        <pt x="705" y="657" on="0"/>
        <pt x="705" y="635" on="1"/>
        <pt x="705" y="-32" on="1"/>
        <pt x="705" y="-83" on="0"/>
        <pt x="668" y="-157" on="0"/>
        <pt x="613" y="-193" on="0"/>
        <pt x="577" y="-201" on="1"/>
        <pt x="572" y="-193" on="1"/>
        <pt x="609" y="-176" on="0"/>
        <pt x="660" y="-97" on="0"/>
        <pt x="660" y="-30" on="1"/>
        <pt x="660" y="33" on="1"/>
        <pt x="160" y="568" on="1"/>
        <pt x="160" y="65" on="1"/>
        <pt x="160" y="43" on="0"/>
        <pt x="191" y="13" on="0"/>
        <pt x="213" y="13" on="1"/>
        <pt x="229" y="13" on="1"/>
        <pt x="229" y="0" on="1"/>
        <pt x="45" y="0" on="1"/>
        <pt x="45" y="13" on="1"/>
        <pt x="61" y="13" on="1"/>
        <pt x="83" y="13" on="0"/>
        <pt x="114" y="43" on="0"/>
        <pt x="114" y="65" on="1"/>
        <pt x="114" y="590" on="1"/>
        <pt x="114" y="651" on="0"/>
        <pt x="107" y="699" on="1"/>
        <pt x="105" y="715" on="1"/>
        <pt x="115" y="715" on="1"/>
        <pt x="659" y="134" on="1"/>
        <pt x="659" y="635" on="1"/>
        <pt x="659" y="657" on="0"/>
        <pt x="628" y="687" on="0"/>
        <pt x="606" y="687" on="1"/>
        <pt x="590" y="687" on="1"/>
        <pt x="590" y="700" on="1"/>
        <pt x="774" y="700" on="1"/>
        <pt x="774" y="687" on="1"/>
      </contour>
    </TTGlyph>
    <TTGlyph name="Eogonek" xMin="60" yMin="-176" xMax="533" yMax="719">
      <contour>
        <pt x="400" y="-75" on="1"/>
        <pt x="400" y="-105" on="0"/>
        <pt x="440" y="-145" on="0"/>
        <pt x="498" y="-145" on="0"/>
        <pt x="522" y="-120" on="1"/>
        <pt x="528" y="-126" on="1"/>
        <pt x="519" y="-150" on="0"/>
        <pt x="498" y="-165" on="1"/>
        <pt x="459" y="-193" on="0"/>
        <pt x="407" y="-176" on="1"/>
        <pt x="384" y="-168" on="0"/>
        <pt x="354" y="-122" on="0"/>
        <pt x="354" y="-56" on="0"/>
        <pt x="400" y="-8" on="0"/>
        <pt x="436" y="0" on="1"/>
        <pt x="60" y="0" on="1"/>
        <pt x="60" y="10" on="1"/>
        <pt x="73" y="10" on="1"/>
        <pt x="99" y="10" on="0"/>
        <pt x="136" y="47" on="0"/>
        <pt x="137" y="73" on="1"/>
        <pt x="137" y="633" on="1"/>
        <pt x="134" y="657" on="0"/>
        <pt x="98" y="690" on="0"/>
        <pt x="73" y="690" on="1"/>
        <pt x="61" y="690" on="1"/>
        <pt x="60" y="700" on="1"/>
        <pt x="353" y="700" on="1"/>
        <pt x="396" y="700" on="0"/>
        <pt x="463" y="714" on="0"/>
        <pt x="472" y="718" on="1"/>
        <pt x="472" y="592" on="1"/>
        <pt x="462" y="592" on="1"/>
        <pt x="462" y="610" on="1"/>
        <pt x="462" y="634" on="0"/>
        <pt x="429" y="668" on="0"/>
        <pt x="406" y="669" on="1"/>
        <pt x="202" y="669" on="1"/>
        <pt x="202" y="360" on="1"/>
        <pt x="371" y="360" on="1"/>
        <pt x="391" y="361" on="0"/>
        <pt x="419" y="389" on="0"/>
        <pt x="419" y="410" on="1"/>
        <pt x="419" y="424" on="1"/>
        <pt x="429" y="424" on="1"/>
        <pt x="429" y="266" on="1"/>
        <pt x="419" y="266" on="1"/>
        <pt x="419" y="281" on="1"/>
        <pt x="419" y="301" on="0"/>
        <pt x="392" y="329" on="0"/>
        <pt x="372" y="330" on="1"/>
        <pt x="202" y="330" on="1"/>
        <pt x="202" y="31" on="1"/>
        <pt x="345" y="31" on="1"/>
        <pt x="419" y="31" on="0"/>
        <pt x="497" y="97" on="0"/>
        <pt x="523" y="162" on="1"/>
        <pt x="533" y="162" on="1"/>
        <pt x="474" y="0" on="1"/>
        <pt x="400" y="-18" on="0"/>
      </contour>
    </TTGlyph>
    <TTGlyph name="Eth" xMin="60" yMin="-1" xMax="758" yMax="700">
      <contour>
        <pt x="563" y="700" on="0"/>
        <pt x="758" y="507" on="0"/>
        <pt x="758" y="192" on="0"/>
        <pt x="563" y="0" on="0"/>
        <pt x="403" y="0" on="1"/>
        <pt x="65" y="0" on="1"/>
        <pt x="65" y="10" on="1"/>
        <pt x="78" y="10" on="1"/>
        <pt x="104" y="10" on="0"/>
        <pt x="141" y="47" on="0"/>
        <pt x="142" y="73" on="1"/>
        <pt x="142" y="335" on="1"/>
        <pt x="60" y="335" on="1"/>
        <pt x="60" y="365" on="1"/>
        <pt x="142" y="365" on="1"/>
        <pt x="142" y="633" on="1"/>
        <pt x="142" y="657" on="0"/>
        <pt x="103" y="690" on="0"/>
        <pt x="78" y="690" on="1"/>
        <pt x="65" y="690" on="1"/>
        <pt x="65" y="700" on="1"/>
        <pt x="403" y="700" on="1"/>
      </contour>
      <contour>
        <pt x="207" y="335" on="1"/>
        <pt x="207" y="30" on="1"/>
        <pt x="403" y="30" on="1"/>
        <pt x="531" y="30" on="0"/>
        <pt x="688" y="206" on="0"/>
        <pt x="688" y="494" on="0"/>
        <pt x="531" y="670" on="0"/>
        <pt x="403" y="670" on="1"/>
        <pt x="207" y="670" on="1"/>
        <pt x="207" y="365" on="1"/>
        <pt x="370" y="365" on="1"/>
        <pt x="370" y="335" on="1"/>
      </contour>
    </TTGlyph>
    <TTGlyph name="Euro" xMin="-10" yMin="-14" xMax="684" yMax="714">
      <contour>
        <pt x="463" y="-13" on="1"/>
        <pt x="327" y="-13" on="0"/>
        <pt x="125" y="155" on="0"/>
        <pt x="102" y="284" on="1"/>
        <pt x="-10" y="284" on="1"/>
        <pt x="1" y="314" on="1"/>
        <pt x="97" y="314" on="1"/>
        <pt x="96" y="332" on="0"/>
        <pt x="96" y="367" on="0"/>
        <pt x="97" y="384" on="1"/>
        <pt x="-10" y="384" on="1"/>
        <pt x="1" y="414" on="1"/>
        <pt x="101" y="414" on="1"/>
        <pt x="123" y="544" on="0"/>
        <pt x="326" y="714" on="0"/>
        <pt x="463" y="714" on="1"/>
        <pt x="633" y="714" on="0"/>
        <pt x="682" y="655" on="1"/>
        <pt x="650" y="559" on="1"/>
        <pt x="640" y="559" on="1"/>
        <pt x="642" y="572" on="0"/>
        <pt x="642" y="599" on="0"/>
        <pt x="627" y="637" on="0"/>
        <pt x="590" y="663" on="0"/>
        <pt x="563" y="671" on="1"/>
        <pt x="519" y="684" on="0"/>
        <pt x="463" y="684" on="1"/>
        <pt x="355" y="684" on="0"/>
        <pt x="195" y="531" on="0"/>
        <pt x="176" y="414" on="1"/>
        <pt x="601" y="414" on="1"/>
        <pt x="590" y="384" on="1"/>
        <pt x="172" y="384" on="1"/>
        <pt x="171" y="367" on="0"/>
        <pt x="171" y="332" on="0"/>
        <pt x="172" y="314" on="1"/>
        <pt x="566" y="314" on="1"/>
        <pt x="556" y="284" on="1"/>
        <pt x="176" y="284" on="1"/>
        <pt x="197" y="167" on="0"/>
        <pt x="356" y="17" on="0"/>
        <pt x="557" y="17" on="0"/>
        <pt x="660" y="82" on="0"/>
        <pt x="673" y="154" on="1"/>
        <pt x="683" y="154" on="1"/>
        <pt x="682" y="49" on="1"/>
        <pt x="652" y="18" on="0"/>
        <pt x="531" y="-13" on="0"/>
      </contour>
    </TTGlyph>
    <TTGlyph name="F" xMin="59" yMin="-1" xMax="472" yMax="719">
      <contour>
        <pt x="472" y="689" on="1"/>
        <pt x="472" y="605" on="1"/>
        <pt x="462" y="605" on="1"/>
        <pt x="462" y="620" on="1"/>
        <pt x="462" y="640" on="0"/>
        <pt x="434" y="669" on="0"/>
        <pt x="413" y="669" on="1"/>
        <pt x="202" y="669" on="1"/>
        <pt x="202" y="360" on="1"/>
        <pt x="371" y="360" on="1"/>
        <pt x="391" y="361" on="0"/>
        <pt x="419" y="389" on="0"/>
        <pt x="419" y="409" on="1"/>
        <pt x="419" y="424" on="1"/>
        <pt x="429" y="424" on="1"/>
        <pt x="429" y="266" on="1"/>
        <pt x="419" y="266" on="1"/>
        <pt x="419" y="281" on="1"/>
        <pt x="419" y="301" on="0"/>
        <pt x="392" y="329" on="0"/>
        <pt x="372" y="330" on="1"/>
        <pt x="202" y="330" on="1"/>
        <pt x="202" y="73" on="1"/>
        <pt x="202" y="47" on="0"/>
        <pt x="240" y="10" on="0"/>
        <pt x="266" y="10" on="1"/>
        <pt x="279" y="10" on="1"/>
        <pt x="279" y="0" on="1"/>
        <pt x="60" y="0" on="1"/>
        <pt x="60" y="10" on="1"/>
        <pt x="73" y="10" on="1"/>
        <pt x="99" y="10" on="0"/>
        <pt x="136" y="47" on="0"/>
        <pt x="137" y="73" on="1"/>
        <pt x="137" y="633" on="1"/>
        <pt x="137" y="657" on="0"/>
        <pt x="98" y="690" on="0"/>
        <pt x="73" y="690" on="1"/>
        <pt x="61" y="690" on="1"/>
        <pt x="60" y="700" on="1"/>
        <pt x="353" y="700" on="1"/>
        <pt x="384" y="700" on="0"/>
        <pt x="457" y="712" on="0"/>
        <pt x="472" y="718" on="1"/>
      </contour>
    </TTGlyph>
    <TTGlyph name="G" xMin="60" yMin="-15" xMax="774" yMax="714">
      <contour>
        <pt x="259" y="-13" on="0"/>
        <pt x="60" y="187" on="0"/>
        <pt x="60" y="513" on="0"/>
        <pt x="259" y="714" on="0"/>
        <pt x="419" y="714" on="1"/>
        <pt x="557" y="714" on="0"/>
        <pt x="662" y="646" on="1"/>
        <pt x="682" y="505" on="1"/>
        <pt x="673" y="505" on="1"/>
        <pt x="651" y="591" on="0"/>
        <pt x="518" y="684" on="0"/>
        <pt x="419" y="684" on="1"/>
        <pt x="292" y="684" on="0"/>
        <pt x="135" y="500" on="0"/>
        <pt x="135" y="200" on="0"/>
        <pt x="292" y="17" on="0"/>
        <pt x="419" y="16" on="1"/>
        <pt x="484" y="16" on="0"/>
        <pt x="601" y="62" on="0"/>
        <pt x="645" y="103" on="1"/>
        <pt x="645" y="280" on="1"/>
        <pt x="645" y="302" on="0"/>
        <pt x="618" y="325" on="0"/>
        <pt x="594" y="325" on="1"/>
        <pt x="578" y="325" on="1"/>
        <pt x="578" y="335" on="1"/>
        <pt x="774" y="335" on="1"/>
        <pt x="774" y="325" on="1"/>
        <pt x="759" y="325" on="1"/>
        <pt x="734" y="325" on="0"/>
        <pt x="708" y="302" on="0"/>
        <pt x="709" y="280" on="1"/>
        <pt x="709" y="115" on="1"/>
        <pt x="683" y="81" on="0"/>
        <pt x="611" y="27" on="0"/>
        <pt x="490" y="-14" on="0"/>
        <pt x="419" y="-14" on="1"/>
      </contour>
    </TTGlyph>
    <TTGlyph name="Gbreve" xMin="59" yMin="-15" xMax="774" yMax="868">
      <contour>
        <pt x="523" y="868" on="1"/>
        <pt x="523" y="840" on="0"/>
        <pt x="495" y="792" on="0"/>
        <pt x="447" y="764" on="0"/>
        <pt x="378" y="764" on="0"/>
        <pt x="317" y="826" on="0"/>
        <pt x="317" y="868" on="1"/>
        <pt x="327" y="868" on="1"/>
        <pt x="335" y="846" on="0"/>
        <pt x="386" y="814" on="0"/>
        <pt x="453" y="814" on="0"/>
        <pt x="505" y="846" on="0"/>
        <pt x="513" y="868" on="1"/>
      </contour>
      <contour>
        <pt x="259" y="-13" on="0"/>
        <pt x="60" y="187" on="0"/>
        <pt x="60" y="513" on="0"/>
        <pt x="259" y="714" on="0"/>
        <pt x="419" y="714" on="1"/>
        <pt x="557" y="714" on="0"/>
        <pt x="662" y="646" on="1"/>
        <pt x="682" y="505" on="1"/>
        <pt x="673" y="505" on="1"/>
        <pt x="651" y="591" on="0"/>
        <pt x="518" y="684" on="0"/>
        <pt x="419" y="684" on="1"/>
        <pt x="292" y="684" on="0"/>
        <pt x="135" y="500" on="0"/>
        <pt x="135" y="200" on="0"/>
        <pt x="292" y="17" on="0"/>
        <pt x="419" y="16" on="1"/>
        <pt x="551" y="16" on="0"/>
        <pt x="645" y="103" on="1"/>
        <pt x="645" y="280" on="1"/>
        <pt x="645" y="302" on="0"/>
        <pt x="618" y="325" on="0"/>
        <pt x="594" y="325" on="1"/>
        <pt x="578" y="325" on="1"/>
        <pt x="578" y="335" on="1"/>
        <pt x="774" y="335" on="1"/>
        <pt x="774" y="325" on="1"/>
        <pt x="759" y="325" on="1"/>
        <pt x="734" y="325" on="0"/>
        <pt x="708" y="302" on="0"/>
        <pt x="709" y="280" on="1"/>
        <pt x="709" y="115" on="1"/>
        <pt x="668" y="61" on="0"/>
        <pt x="522" y="-14" on="0"/>
        <pt x="419" y="-14" on="1"/>
      </contour>
    </TTGlyph>
    <TTGlyph name="Gcommaaccent" xMin="60" yMin="-209" xMax="774" yMax="714">
      <contour>
        <pt x="259" y="-13" on="0"/>
        <pt x="60" y="187" on="0"/>
        <pt x="60" y="513" on="0"/>
        <pt x="259" y="714" on="0"/>
        <pt x="419" y="714" on="1"/>
        <pt x="557" y="714" on="0"/>
        <pt x="662" y="646" on="1"/>
        <pt x="682" y="505" on="1"/>
        <pt x="673" y="505" on="1"/>
        <pt x="651" y="591" on="0"/>
        <pt x="518" y="684" on="0"/>
        <pt x="419" y="684" on="1"/>
        <pt x="292" y="684" on="0"/>
        <pt x="135" y="500" on="0"/>
        <pt x="135" y="200" on="0"/>
        <pt x="292" y="17" on="0"/>
        <pt x="419" y="16" on="1"/>
        <pt x="484" y="16" on="0"/>
        <pt x="601" y="62" on="0"/>
        <pt x="645" y="103" on="1"/>
        <pt x="645" y="280" on="1"/>
        <pt x="645" y="302" on="0"/>
        <pt x="618" y="325" on="0"/>
        <pt x="594" y="325" on="1"/>
        <pt x="578" y="325" on="1"/>
        <pt x="578" y="335" on="1"/>
        <pt x="774" y="335" on="1"/>
        <pt x="774" y="325" on="1"/>
        <pt x="759" y="325" on="1"/>
        <pt x="734" y="325" on="0"/>
        <pt x="708" y="302" on="0"/>
        <pt x="709" y="280" on="1"/>
        <pt x="709" y="115" on="1"/>
        <pt x="683" y="81" on="0"/>
        <pt x="611" y="27" on="0"/>
        <pt x="490" y="-14" on="0"/>
        <pt x="419" y="-14" on="1"/>
      </contour>
      <contour>
        <pt x="392" y="-81" on="1"/>
        <pt x="400" y="-64" on="0"/>
        <pt x="421" y="-64" on="1"/>
        <pt x="444" y="-64" on="0"/>
        <pt x="463" y="-109" on="0"/>
        <pt x="463" y="-123" on="1"/>
        <pt x="463" y="-166" on="0"/>
        <pt x="412" y="-207" on="0"/>
        <pt x="386" y="-208" on="1"/>
        <pt x="384" y="-201" on="1"/>
        <pt x="406" y="-194" on="0"/>
        <pt x="415" y="-179" on="1"/>
        <pt x="431" y="-152" on="0"/>
        <pt x="411" y="-128" on="1"/>
        <pt x="409" y="-126" on="0"/>
        <pt x="401" y="-117" on="0"/>
        <pt x="397" y="-112" on="0"/>
        <pt x="391" y="-103" on="0"/>
        <pt x="391" y="-99" on="1"/>
        <pt x="388" y="-90" on="0"/>
      </contour>
    </TTGlyph>
    <TTGlyph name="Gdotaccent" xMin="60" yMin="-15" xMax="774" yMax="851">
      <contour>
        <pt x="436" y="765" on="0"/>
        <pt x="400" y="765" on="0"/>
        <pt x="375" y="790" on="0"/>
        <pt x="375" y="826" on="0"/>
        <pt x="400" y="851" on="0"/>
        <pt x="436" y="851" on="0"/>
        <pt x="461" y="826" on="0"/>
        <pt x="461" y="790" on="0"/>
      </contour>
      <contour>
        <pt x="259" y="-13" on="0"/>
        <pt x="60" y="187" on="0"/>
        <pt x="60" y="513" on="0"/>
        <pt x="259" y="714" on="0"/>
        <pt x="419" y="714" on="1"/>
        <pt x="557" y="714" on="0"/>
        <pt x="662" y="646" on="1"/>
        <pt x="682" y="505" on="1"/>
        <pt x="673" y="505" on="1"/>
        <pt x="651" y="591" on="0"/>
        <pt x="518" y="684" on="0"/>
        <pt x="419" y="684" on="1"/>
        <pt x="292" y="684" on="0"/>
        <pt x="135" y="500" on="0"/>
        <pt x="135" y="200" on="0"/>
        <pt x="292" y="17" on="0"/>
        <pt x="419" y="16" on="1"/>
        <pt x="484" y="16" on="0"/>
        <pt x="601" y="62" on="0"/>
        <pt x="645" y="103" on="1"/>
        <pt x="645" y="280" on="1"/>
        <pt x="645" y="302" on="0"/>
        <pt x="618" y="325" on="0"/>
        <pt x="594" y="325" on="1"/>
        <pt x="578" y="325" on="1"/>
        <pt x="578" y="335" on="1"/>
        <pt x="774" y="335" on="1"/>
        <pt x="774" y="325" on="1"/>
        <pt x="759" y="325" on="1"/>
        <pt x="734" y="325" on="0"/>
        <pt x="708" y="302" on="0"/>
        <pt x="709" y="280" on="1"/>
        <pt x="709" y="115" on="1"/>
        <pt x="683" y="81" on="0"/>
        <pt x="611" y="27" on="0"/>
        <pt x="490" y="-14" on="0"/>
        <pt x="419" y="-14" on="1"/>
      </contour>
    </TTGlyph>
    <TTGlyph name="H" xMin="59" yMin="-1" xMax="754" yMax="701">
      <contour>
        <pt x="547" y="10" on="1"/>
        <pt x="573" y="10" on="0"/>
        <pt x="610" y="46" on="0"/>
        <pt x="611" y="72" on="1"/>
        <pt x="611" y="331" on="1"/>
        <pt x="202" y="331" on="1"/>
        <pt x="202" y="73" on="1"/>
        <pt x="202" y="47" on="0"/>
        <pt x="240" y="10" on="0"/>
        <pt x="266" y="10" on="1"/>
        <pt x="279" y="10" on="1"/>
        <pt x="279" y="0" on="1"/>
        <pt x="60" y="0" on="1"/>
        <pt x="60" y="10" on="1"/>
        <pt x="73" y="10" on="1"/>
        <pt x="99" y="10" on="0"/>
        <pt x="136" y="47" on="0"/>
        <pt x="137" y="73" on="1"/>
        <pt x="137" y="628" on="1"/>
        <pt x="136" y="654" on="0"/>
        <pt x="99" y="690" on="0"/>
        <pt x="73" y="690" on="1"/>
        <pt x="60" y="690" on="1"/>
        <pt x="60" y="700" on="1"/>
        <pt x="279" y="700" on="1"/>
        <pt x="279" y="690" on="1"/>
        <pt x="266" y="690" on="1"/>
        <pt x="240" y="690" on="0"/>
        <pt x="203" y="654" on="0"/>
        <pt x="202" y="628" on="1"/>
        <pt x="202" y="361" on="1"/>
        <pt x="611" y="361" on="1"/>
        <pt x="611" y="628" on="1"/>
        <pt x="610" y="664" on="0"/>
        <pt x="579" y="682" on="1"/>
        <pt x="564" y="690" on="0"/>
        <pt x="547" y="690" on="1"/>
        <pt x="534" y="690" on="1"/>
        <pt x="534" y="700" on="1"/>
        <pt x="753" y="700" on="1"/>
        <pt x="753" y="690" on="1"/>
        <pt x="740" y="690" on="1"/>
        <pt x="714" y="690" on="0"/>
        <pt x="677" y="653" on="0"/>
        <pt x="676" y="627" on="1"/>
        <pt x="676" y="73" on="1"/>
        <pt x="677" y="47" on="0"/>
        <pt x="714" y="10" on="0"/>
        <pt x="740" y="10" on="1"/>
        <pt x="753" y="10" on="1"/>
        <pt x="753" y="0" on="1"/>
        <pt x="534" y="0" on="1"/>
        <pt x="534" y="10" on="1"/>
      </contour>
    </TTGlyph>
    <TTGlyph name="Hbar" xMin="42" yMin="-1" xMax="736" yMax="701">
      <contour>
        <pt x="530" y="10" on="1"/>
        <pt x="556" y="10" on="0"/>
        <pt x="593" y="46" on="0"/>
        <pt x="594" y="72" on="1"/>
        <pt x="594" y="331" on="1"/>
        <pt x="185" y="331" on="1"/>
        <pt x="185" y="73" on="1"/>
        <pt x="185" y="36" on="0"/>
        <pt x="217" y="18" on="1"/>
        <pt x="231" y="10" on="0"/>
        <pt x="249" y="10" on="1"/>
        <pt x="261" y="10" on="1"/>
        <pt x="261" y="0" on="1"/>
        <pt x="43" y="0" on="1"/>
        <pt x="43" y="10" on="1"/>
        <pt x="56" y="10" on="1"/>
        <pt x="82" y="10" on="0"/>
        <pt x="119" y="47" on="0"/>
        <pt x="120" y="73" on="1"/>
        <pt x="120" y="498" on="1"/>
        <pt x="56" y="498" on="1"/>
        <pt x="56" y="528" on="1"/>
        <pt x="120" y="528" on="1"/>
        <pt x="120" y="628" on="1"/>
        <pt x="119" y="654" on="0"/>
        <pt x="82" y="690" on="0"/>
        <pt x="56" y="690" on="1"/>
        <pt x="43" y="690" on="1"/>
        <pt x="43" y="700" on="1"/>
        <pt x="261" y="700" on="1"/>
        <pt x="261" y="690" on="1"/>
        <pt x="249" y="690" on="1"/>
        <pt x="223" y="690" on="0"/>
        <pt x="185" y="654" on="0"/>
        <pt x="185" y="628" on="1"/>
        <pt x="185" y="528" on="1"/>
        <pt x="594" y="528" on="1"/>
        <pt x="594" y="628" on="1"/>
        <pt x="593" y="654" on="0"/>
        <pt x="556" y="690" on="0"/>
        <pt x="530" y="690" on="1"/>
        <pt x="517" y="690" on="1"/>
        <pt x="517" y="700" on="1"/>
        <pt x="736" y="700" on="1"/>
        <pt x="736" y="690" on="1"/>
        <pt x="723" y="690" on="1"/>
        <pt x="686" y="690" on="0"/>
        <pt x="668" y="659" on="1"/>
        <pt x="659" y="644" on="0"/>
        <pt x="659" y="627" on="1"/>
        <pt x="659" y="528" on="1"/>
        <pt x="725" y="528" on="1"/>
        <pt x="725" y="498" on="1"/>
        <pt x="659" y="498" on="1"/>
        <pt x="659" y="73" on="1"/>
        <pt x="659" y="47" on="0"/>
        <pt x="697" y="10" on="0"/>
        <pt x="723" y="10" on="1"/>
        <pt x="736" y="10" on="1"/>
        <pt x="736" y="0" on="1"/>
        <pt x="517" y="0" on="1"/>
        <pt x="517" y="10" on="1"/>
      </contour>
      <contour>
        <pt x="185" y="361" on="1"/>
        <pt x="594" y="361" on="1"/>
        <pt x="594" y="498" on="1"/>
        <pt x="185" y="498" on="1"/>
      </contour>
    </TTGlyph>
    <TTGlyph name="I" xMin="59" yMin="0" xMax="279" yMax="701">
      <contour>
        <pt x="73" y="10" on="1"/>
        <pt x="99" y="10" on="0"/>
        <pt x="136" y="47" on="0"/>
        <pt x="137" y="73" on="1"/>
        <pt x="137" y="628" on="1"/>
        <pt x="136" y="654" on="0"/>
        <pt x="99" y="690" on="0"/>
        <pt x="73" y="690" on="1"/>
        <pt x="60" y="690" on="1"/>
        <pt x="60" y="700" on="1"/>
        <pt x="279" y="700" on="1"/>
        <pt x="279" y="690" on="1"/>
        <pt x="266" y="690" on="1"/>
        <pt x="240" y="690" on="0"/>
        <pt x="203" y="654" on="0"/>
        <pt x="202" y="628" on="1"/>
        <pt x="202" y="73" on="1"/>
        <pt x="202" y="47" on="0"/>
        <pt x="240" y="10" on="0"/>
        <pt x="266" y="10" on="1"/>
        <pt x="279" y="10" on="1"/>
        <pt x="279" y="0" on="1"/>
        <pt x="60" y="0" on="1"/>
        <pt x="60" y="10" on="1"/>
      </contour>
    </TTGlyph>
    <TTGlyph name="IJ" xMin="59" yMin="-201" xMax="618" yMax="701">
      <contour>
        <pt x="73" y="10" on="1"/>
        <pt x="99" y="10" on="0"/>
        <pt x="136" y="47" on="0"/>
        <pt x="137" y="73" on="1"/>
        <pt x="137" y="628" on="1"/>
        <pt x="136" y="654" on="0"/>
        <pt x="99" y="690" on="0"/>
        <pt x="73" y="690" on="1"/>
        <pt x="60" y="690" on="1"/>
        <pt x="60" y="700" on="1"/>
        <pt x="279" y="700" on="1"/>
        <pt x="279" y="690" on="1"/>
        <pt x="266" y="690" on="1"/>
        <pt x="240" y="690" on="0"/>
        <pt x="203" y="654" on="0"/>
        <pt x="202" y="628" on="1"/>
        <pt x="202" y="73" on="1"/>
        <pt x="202" y="47" on="0"/>
        <pt x="240" y="10" on="0"/>
        <pt x="266" y="10" on="1"/>
        <pt x="279" y="10" on="1"/>
        <pt x="279" y="0" on="1"/>
        <pt x="60" y="0" on="1"/>
        <pt x="60" y="10" on="1"/>
      </contour>
      <contour>
        <pt x="604" y="690" on="1"/>
        <pt x="568" y="690" on="0"/>
        <pt x="549" y="659" on="1"/>
        <pt x="541" y="645" on="0"/>
        <pt x="540" y="627" on="1"/>
        <pt x="540" y="0" on="1"/>
        <pt x="540" y="-84" on="0"/>
        <pt x="435" y="-200" on="0"/>
        <pt x="358" y="-200" on="1"/>
        <pt x="358" y="-191" on="1"/>
        <pt x="407" y="-174" on="0"/>
        <pt x="475" y="-61" on="0"/>
        <pt x="475" y="3" on="1"/>
        <pt x="475" y="627" on="1"/>
        <pt x="474" y="653" on="0"/>
        <pt x="437" y="690" on="0"/>
        <pt x="411" y="690" on="1"/>
        <pt x="398" y="690" on="1"/>
        <pt x="398" y="700" on="1"/>
        <pt x="617" y="700" on="1"/>
        <pt x="617" y="690" on="1"/>
      </contour>
    </TTGlyph>
    <TTGlyph name="Iacute" xMin="59" yMin="0" xMax="331" yMax="902">
      <contour>
        <pt x="169" y="764" on="1"/>
        <pt x="162" y="771" on="1"/>
        <pt x="238" y="853" on="0"/>
        <pt x="289" y="902" on="1"/>
        <pt x="316" y="875" on="0"/>
        <pt x="330" y="849" on="1"/>
        <pt x="266" y="812" on="0"/>
      </contour>
      <contour>
        <pt x="73" y="10" on="1"/>
        <pt x="99" y="10" on="0"/>
        <pt x="136" y="47" on="0"/>
        <pt x="137" y="73" on="1"/>
        <pt x="137" y="628" on="1"/>
        <pt x="136" y="654" on="0"/>
        <pt x="99" y="690" on="0"/>
        <pt x="73" y="690" on="1"/>
        <pt x="60" y="690" on="1"/>
        <pt x="60" y="700" on="1"/>
        <pt x="279" y="700" on="1"/>
        <pt x="279" y="690" on="1"/>
        <pt x="266" y="690" on="1"/>
        <pt x="240" y="690" on="0"/>
        <pt x="203" y="654" on="0"/>
        <pt x="202" y="628" on="1"/>
        <pt x="202" y="73" on="1"/>
        <pt x="202" y="47" on="0"/>
        <pt x="240" y="10" on="0"/>
        <pt x="266" y="10" on="1"/>
        <pt x="279" y="10" on="1"/>
        <pt x="279" y="0" on="1"/>
        <pt x="60" y="0" on="1"/>
        <pt x="60" y="10" on="1"/>
      </contour>
    </TTGlyph>
    <TTGlyph name="Icircumflex" xMin="57" yMin="0" xMax="289" yMax="890">
      <contour>
        <pt x="164" y="890" on="1"/>
        <pt x="174" y="890" on="1"/>
        <pt x="288" y="771" on="1"/>
        <pt x="282" y="763" on="1"/>
        <pt x="169" y="829" on="1"/>
        <pt x="64" y="763" on="1"/>
        <pt x="58" y="771" on="1"/>
      </contour>
      <contour>
        <pt x="73" y="10" on="1"/>
        <pt x="99" y="10" on="0"/>
        <pt x="136" y="47" on="0"/>
        <pt x="137" y="73" on="1"/>
        <pt x="137" y="628" on="1"/>
        <pt x="136" y="654" on="0"/>
        <pt x="99" y="690" on="0"/>
        <pt x="73" y="690" on="1"/>
        <pt x="60" y="690" on="1"/>
        <pt x="60" y="700" on="1"/>
        <pt x="279" y="700" on="1"/>
        <pt x="279" y="690" on="1"/>
        <pt x="266" y="690" on="1"/>
        <pt x="240" y="690" on="0"/>
        <pt x="203" y="654" on="0"/>
        <pt x="202" y="628" on="1"/>
        <pt x="202" y="73" on="1"/>
        <pt x="202" y="47" on="0"/>
        <pt x="240" y="10" on="0"/>
        <pt x="266" y="10" on="1"/>
        <pt x="279" y="10" on="1"/>
        <pt x="279" y="0" on="1"/>
        <pt x="60" y="0" on="1"/>
        <pt x="60" y="10" on="1"/>
      </contour>
    </TTGlyph>
    <TTGlyph name="Idieresis" xMin="36" yMin="0" xMax="303" yMax="843">
      <contour>
        <pt x="91" y="764" on="0"/>
        <pt x="59" y="764" on="0"/>
        <pt x="36" y="787" on="0"/>
        <pt x="36" y="819" on="0"/>
        <pt x="59" y="842" on="0"/>
        <pt x="91" y="842" on="0"/>
        <pt x="114" y="819" on="0"/>
        <pt x="114" y="787" on="0"/>
      </contour>
      <contour>
        <pt x="280" y="764" on="0"/>
        <pt x="247" y="764" on="0"/>
        <pt x="224" y="787" on="0"/>
        <pt x="224" y="819" on="0"/>
        <pt x="247" y="842" on="0"/>
        <pt x="280" y="842" on="0"/>
        <pt x="303" y="819" on="0"/>
        <pt x="303" y="787" on="0"/>
      </contour>
      <contour>
        <pt x="73" y="10" on="1"/>
        <pt x="99" y="10" on="0"/>
        <pt x="136" y="47" on="0"/>
        <pt x="137" y="73" on="1"/>
        <pt x="137" y="628" on="1"/>
        <pt x="136" y="654" on="0"/>
        <pt x="99" y="690" on="0"/>
        <pt x="73" y="690" on="1"/>
        <pt x="60" y="690" on="1"/>
        <pt x="60" y="700" on="1"/>
        <pt x="279" y="700" on="1"/>
        <pt x="279" y="690" on="1"/>
        <pt x="266" y="690" on="1"/>
        <pt x="240" y="690" on="0"/>
        <pt x="203" y="654" on="0"/>
        <pt x="202" y="628" on="1"/>
        <pt x="202" y="73" on="1"/>
        <pt x="202" y="47" on="0"/>
        <pt x="240" y="10" on="0"/>
        <pt x="266" y="10" on="1"/>
        <pt x="279" y="10" on="1"/>
        <pt x="279" y="0" on="1"/>
        <pt x="60" y="0" on="1"/>
        <pt x="60" y="10" on="1"/>
      </contour>
    </TTGlyph>
    <TTGlyph name="Idotaccent" xMin="59" yMin="0" xMax="279" yMax="851">
      <contour>
        <pt x="186" y="765" on="0"/>
        <pt x="150" y="765" on="0"/>
        <pt x="125" y="790" on="0"/>
        <pt x="125" y="826" on="0"/>
        <pt x="150" y="851" on="0"/>
        <pt x="186" y="851" on="0"/>
        <pt x="211" y="826" on="0"/>
        <pt x="211" y="790" on="0"/>
      </contour>
      <contour>
        <pt x="73" y="10" on="1"/>
        <pt x="99" y="10" on="0"/>
        <pt x="136" y="47" on="0"/>
        <pt x="137" y="73" on="1"/>
        <pt x="137" y="628" on="1"/>
        <pt x="136" y="654" on="0"/>
        <pt x="99" y="690" on="0"/>
        <pt x="73" y="690" on="1"/>
        <pt x="60" y="690" on="1"/>
        <pt x="60" y="700" on="1"/>
        <pt x="279" y="700" on="1"/>
        <pt x="279" y="690" on="1"/>
        <pt x="266" y="690" on="1"/>
        <pt x="240" y="690" on="0"/>
        <pt x="203" y="654" on="0"/>
        <pt x="202" y="628" on="1"/>
        <pt x="202" y="73" on="1"/>
        <pt x="202" y="47" on="0"/>
        <pt x="240" y="10" on="0"/>
        <pt x="266" y="10" on="1"/>
        <pt x="279" y="10" on="1"/>
        <pt x="279" y="0" on="1"/>
        <pt x="60" y="0" on="1"/>
        <pt x="60" y="10" on="1"/>
      </contour>
    </TTGlyph>
    <TTGlyph name="Igrave" xMin="8" yMin="-1" xMax="279" yMax="902">
      <contour>
        <pt x="176" y="771" on="1"/>
        <pt x="169" y="764" on="1"/>
        <pt x="89" y="802" on="0"/>
        <pt x="8" y="849" on="1"/>
        <pt x="23" y="877" on="0"/>
        <pt x="49" y="902" on="1"/>
        <pt x="113" y="841" on="0"/>
      </contour>
      <contour>
        <pt x="73" y="10" on="1"/>
        <pt x="99" y="10" on="0"/>
        <pt x="136" y="47" on="0"/>
        <pt x="137" y="73" on="1"/>
        <pt x="137" y="628" on="1"/>
        <pt x="136" y="654" on="0"/>
        <pt x="99" y="690" on="0"/>
        <pt x="73" y="690" on="1"/>
        <pt x="60" y="690" on="1"/>
        <pt x="60" y="700" on="1"/>
        <pt x="279" y="700" on="1"/>
        <pt x="279" y="690" on="1"/>
        <pt x="266" y="690" on="1"/>
        <pt x="240" y="690" on="0"/>
        <pt x="203" y="654" on="0"/>
        <pt x="202" y="628" on="1"/>
        <pt x="202" y="73" on="1"/>
        <pt x="202" y="47" on="0"/>
        <pt x="240" y="10" on="0"/>
        <pt x="266" y="10" on="1"/>
        <pt x="279" y="10" on="1"/>
        <pt x="279" y="0" on="1"/>
        <pt x="60" y="0" on="1"/>
        <pt x="60" y="10" on="1"/>
      </contour>
    </TTGlyph>
    <TTGlyph name="Imacron" xMin="47" yMin="0" xMax="298" yMax="831">
      <contour>
        <pt x="47" y="795" on="1"/>
        <pt x="47" y="830" on="1"/>
        <pt x="297" y="830" on="1"/>
        <pt x="297" y="795" on="1"/>
      </contour>
      <contour>
        <pt x="73" y="10" on="1"/>
        <pt x="99" y="10" on="0"/>
        <pt x="136" y="47" on="0"/>
        <pt x="137" y="73" on="1"/>
        <pt x="137" y="628" on="1"/>
        <pt x="136" y="654" on="0"/>
        <pt x="99" y="690" on="0"/>
        <pt x="73" y="690" on="1"/>
        <pt x="60" y="690" on="1"/>
        <pt x="60" y="700" on="1"/>
        <pt x="279" y="700" on="1"/>
        <pt x="279" y="690" on="1"/>
        <pt x="266" y="690" on="1"/>
        <pt x="240" y="690" on="0"/>
        <pt x="203" y="654" on="0"/>
        <pt x="202" y="628" on="1"/>
        <pt x="202" y="73" on="1"/>
        <pt x="202" y="47" on="0"/>
        <pt x="240" y="10" on="0"/>
        <pt x="266" y="10" on="1"/>
        <pt x="279" y="10" on="1"/>
        <pt x="279" y="0" on="1"/>
        <pt x="60" y="0" on="1"/>
        <pt x="60" y="10" on="1"/>
      </contour>
    </TTGlyph>
    <TTGlyph name="Iogonek" xMin="59" yMin="-183" xMax="279" yMax="701">
      <contour>
        <pt x="113" y="-75" on="1"/>
        <pt x="113" y="-105" on="0"/>
        <pt x="154" y="-145" on="0"/>
        <pt x="212" y="-145" on="0"/>
        <pt x="236" y="-120" on="1"/>
        <pt x="242" y="-126" on="1"/>
        <pt x="233" y="-150" on="0"/>
        <pt x="212" y="-165" on="1"/>
        <pt x="189" y="-182" on="0"/>
        <pt x="139" y="-182" on="0"/>
        <pt x="98" y="-168" on="0"/>
        <pt x="67" y="-122" on="0"/>
        <pt x="67" y="-56" on="0"/>
        <pt x="113" y="-8" on="0"/>
        <pt x="149" y="0" on="1"/>
        <pt x="60" y="0" on="1"/>
        <pt x="60" y="10" on="1"/>
        <pt x="73" y="10" on="1"/>
        <pt x="99" y="10" on="0"/>
        <pt x="136" y="47" on="0"/>
        <pt x="137" y="73" on="1"/>
        <pt x="137" y="628" on="1"/>
        <pt x="136" y="654" on="0"/>
        <pt x="99" y="690" on="0"/>
        <pt x="73" y="690" on="1"/>
        <pt x="60" y="690" on="1"/>
        <pt x="60" y="700" on="1"/>
        <pt x="279" y="700" on="1"/>
        <pt x="279" y="690" on="1"/>
        <pt x="266" y="690" on="1"/>
        <pt x="240" y="690" on="0"/>
        <pt x="203" y="654" on="0"/>
        <pt x="202" y="628" on="1"/>
        <pt x="202" y="73" on="1"/>
        <pt x="202" y="47" on="0"/>
        <pt x="240" y="10" on="0"/>
        <pt x="266" y="10" on="1"/>
        <pt x="279" y="10" on="1"/>
        <pt x="279" y="0" on="1"/>
        <pt x="188" y="0" on="1"/>
        <pt x="113" y="-17" on="0"/>
      </contour>
    </TTGlyph>
    <TTGlyph name="J" xMin="20" yMin="-201" xMax="280" yMax="701">
      <contour>
        <pt x="266" y="690" on="1"/>
        <pt x="230" y="690" on="0"/>
        <pt x="211" y="659" on="1"/>
        <pt x="203" y="645" on="0"/>
        <pt x="202" y="627" on="1"/>
        <pt x="202" y="0" on="1"/>
        <pt x="202" y="-84" on="0"/>
        <pt x="97" y="-200" on="0"/>
        <pt x="20" y="-200" on="1"/>
        <pt x="20" y="-191" on="1"/>
        <pt x="69" y="-174" on="0"/>
        <pt x="137" y="-61" on="0"/>
        <pt x="137" y="3" on="1"/>
        <pt x="137" y="627" on="1"/>
        <pt x="136" y="653" on="0"/>
        <pt x="99" y="690" on="0"/>
        <pt x="73" y="690" on="1"/>
        <pt x="60" y="690" on="1"/>
        <pt x="60" y="700" on="1"/>
        <pt x="279" y="700" on="1"/>
        <pt x="279" y="690" on="1"/>
      </contour>
    </TTGlyph>
    <TTGlyph name="K" xMin="59" yMin="0" xMax="668" yMax="701">
      <contour>
        <pt x="266" y="10" on="1"/>
        <pt x="279" y="10" on="1"/>
        <pt x="279" y="0" on="1"/>
        <pt x="60" y="0" on="1"/>
        <pt x="60" y="10" on="1"/>
        <pt x="73" y="10" on="1"/>
        <pt x="99" y="10" on="0"/>
        <pt x="136" y="47" on="0"/>
        <pt x="137" y="73" on="1"/>
        <pt x="137" y="628" on="1"/>
        <pt x="136" y="654" on="0"/>
        <pt x="99" y="690" on="0"/>
        <pt x="73" y="690" on="1"/>
        <pt x="60" y="690" on="1"/>
        <pt x="60" y="700" on="1"/>
        <pt x="279" y="700" on="1"/>
        <pt x="279" y="690" on="1"/>
        <pt x="266" y="690" on="1"/>
        <pt x="240" y="690" on="0"/>
        <pt x="203" y="654" on="0"/>
        <pt x="202" y="628" on="1"/>
        <pt x="202" y="73" on="1"/>
        <pt x="202" y="47" on="0"/>
        <pt x="240" y="10" on="0"/>
      </contour>
      <contour>
        <pt x="668" y="0" on="1"/>
        <pt x="625" y="0" on="1"/>
        <pt x="523" y="0" on="0"/>
        <pt x="475" y="57" on="1"/>
        <pt x="234" y="348" on="1"/>
        <pt x="470" y="644" on="1"/>
        <pt x="478" y="654" on="0"/>
        <pt x="478" y="670" on="0"/>
        <pt x="475" y="676" on="1"/>
        <pt x="467" y="691" on="0"/>
        <pt x="446" y="691" on="1"/>
        <pt x="436" y="691" on="1"/>
        <pt x="436" y="700" on="1"/>
        <pt x="647" y="700" on="1"/>
        <pt x="647" y="691" on="1"/>
        <pt x="643" y="691" on="1"/>
        <pt x="577" y="691" on="0"/>
        <pt x="535" y="644" on="1"/>
        <pt x="300" y="372" on="1"/>
        <pt x="573" y="51" on="1"/>
        <pt x="613" y="11" on="0"/>
        <pt x="668" y="10" on="1"/>
      </contour>
    </TTGlyph>
    <TTGlyph name="Kcommaaccent" xMin="59" yMin="-209" xMax="668" yMax="701">
      <contour>
        <pt x="266" y="10" on="1"/>
        <pt x="279" y="10" on="1"/>
        <pt x="279" y="0" on="1"/>
        <pt x="60" y="0" on="1"/>
        <pt x="60" y="10" on="1"/>
        <pt x="73" y="10" on="1"/>
        <pt x="99" y="10" on="0"/>
        <pt x="136" y="47" on="0"/>
        <pt x="137" y="73" on="1"/>
        <pt x="137" y="628" on="1"/>
        <pt x="136" y="654" on="0"/>
        <pt x="99" y="690" on="0"/>
        <pt x="73" y="690" on="1"/>
        <pt x="60" y="690" on="1"/>
        <pt x="60" y="700" on="1"/>
        <pt x="279" y="700" on="1"/>
        <pt x="279" y="690" on="1"/>
        <pt x="266" y="690" on="1"/>
        <pt x="240" y="690" on="0"/>
        <pt x="203" y="654" on="0"/>
        <pt x="202" y="628" on="1"/>
        <pt x="202" y="73" on="1"/>
        <pt x="202" y="47" on="0"/>
        <pt x="240" y="10" on="0"/>
      </contour>
      <contour>
        <pt x="668" y="0" on="1"/>
        <pt x="625" y="0" on="1"/>
        <pt x="523" y="0" on="0"/>
        <pt x="475" y="57" on="1"/>
        <pt x="234" y="348" on="1"/>
        <pt x="470" y="644" on="1"/>
        <pt x="478" y="654" on="0"/>
        <pt x="478" y="670" on="0"/>
        <pt x="475" y="676" on="1"/>
        <pt x="467" y="691" on="0"/>
        <pt x="446" y="691" on="1"/>
        <pt x="436" y="691" on="1"/>
        <pt x="436" y="700" on="1"/>
        <pt x="647" y="700" on="1"/>
        <pt x="647" y="691" on="1"/>
        <pt x="643" y="691" on="1"/>
        <pt x="577" y="691" on="0"/>
        <pt x="535" y="644" on="1"/>
        <pt x="300" y="372" on="1"/>
        <pt x="573" y="51" on="1"/>
        <pt x="613" y="11" on="0"/>
        <pt x="668" y="10" on="1"/>
      </contour>
      <contour>
        <pt x="359" y="-81" on="1"/>
        <pt x="367" y="-64" on="0"/>
        <pt x="388" y="-64" on="1"/>
        <pt x="411" y="-64" on="0"/>
        <pt x="429" y="-109" on="0"/>
        <pt x="429" y="-123" on="1"/>
        <pt x="429" y="-166" on="0"/>
        <pt x="379" y="-207" on="0"/>
        <pt x="352" y="-208" on="1"/>
        <pt x="350" y="-201" on="1"/>
        <pt x="373" y="-194" on="0"/>
        <pt x="382" y="-179" on="1"/>
        <pt x="398" y="-152" on="0"/>
        <pt x="377" y="-128" on="1"/>
        <pt x="376" y="-126" on="0"/>
        <pt x="368" y="-117" on="0"/>
        <pt x="364" y="-112" on="0"/>
        <pt x="358" y="-103" on="0"/>
        <pt x="357" y="-99" on="1"/>
        <pt x="355" y="-90" on="0"/>
      </contour>
    </TTGlyph>
    <TTGlyph name="L" xMin="60" yMin="-1" xMax="533" yMax="700">
      <contour>
        <pt x="73" y="10" on="1"/>
        <pt x="99" y="10" on="0"/>
        <pt x="136" y="47" on="0"/>
        <pt x="137" y="73" on="1"/>
        <pt x="137" y="627" on="1"/>
        <pt x="136" y="653" on="0"/>
        <pt x="99" y="690" on="0"/>
        <pt x="73" y="690" on="1"/>
        <pt x="60" y="690" on="1"/>
        <pt x="60" y="700" on="1"/>
        <pt x="279" y="700" on="1"/>
        <pt x="279" y="690" on="1"/>
        <pt x="266" y="690" on="1"/>
        <pt x="230" y="690" on="0"/>
        <pt x="211" y="659" on="1"/>
        <pt x="202" y="644" on="0"/>
        <pt x="202" y="627" on="1"/>
        <pt x="202" y="31" on="1"/>
        <pt x="345" y="31" on="1"/>
        <pt x="419" y="31" on="0"/>
        <pt x="497" y="97" on="0"/>
        <pt x="523" y="162" on="1"/>
        <pt x="533" y="162" on="1"/>
        <pt x="475" y="0" on="1"/>
        <pt x="60" y="0" on="1"/>
        <pt x="60" y="10" on="1"/>
      </contour>
    </TTGlyph>
    <TTGlyph name="Lacute" xMin="60" yMin="0" xMax="533" yMax="902">
      <contour>
        <pt x="169" y="764" on="1"/>
        <pt x="162" y="771" on="1"/>
        <pt x="239" y="853" on="0"/>
        <pt x="289" y="902" on="1"/>
        <pt x="316" y="875" on="0"/>
        <pt x="330" y="849" on="1"/>
        <pt x="266" y="812" on="0"/>
      </contour>
      <contour>
        <pt x="73" y="10" on="1"/>
        <pt x="99" y="10" on="0"/>
        <pt x="136" y="47" on="0"/>
        <pt x="137" y="73" on="1"/>
        <pt x="137" y="627" on="1"/>
        <pt x="136" y="653" on="0"/>
        <pt x="99" y="690" on="0"/>
        <pt x="73" y="690" on="1"/>
        <pt x="60" y="690" on="1"/>
        <pt x="60" y="700" on="1"/>
        <pt x="279" y="700" on="1"/>
        <pt x="279" y="690" on="1"/>
        <pt x="266" y="690" on="1"/>
        <pt x="230" y="690" on="0"/>
        <pt x="211" y="659" on="1"/>
        <pt x="202" y="644" on="0"/>
        <pt x="202" y="627" on="1"/>
        <pt x="202" y="31" on="1"/>
        <pt x="345" y="31" on="1"/>
        <pt x="419" y="31" on="0"/>
        <pt x="497" y="97" on="0"/>
        <pt x="523" y="162" on="1"/>
        <pt x="533" y="162" on="1"/>
        <pt x="475" y="0" on="1"/>
        <pt x="60" y="0" on="1"/>
        <pt x="60" y="10" on="1"/>
      </contour>
    </TTGlyph>
    <TTGlyph name="Lcaron" xMin="60" yMin="-1" xMax="533" yMax="706">
      <contour>
        <pt x="423" y="706" on="0"/>
        <pt x="441" y="661" on="0"/>
        <pt x="441" y="620" on="0"/>
        <pt x="428" y="599" on="1"/>
        <pt x="405" y="563" on="0"/>
        <pt x="364" y="562" on="1"/>
        <pt x="362" y="568" on="1"/>
        <pt x="384" y="575" on="0"/>
        <pt x="393" y="590" on="1"/>
        <pt x="409" y="619" on="0"/>
        <pt x="384" y="647" on="1"/>
        <pt x="363" y="671" on="0"/>
        <pt x="377" y="706" on="0"/>
      </contour>
      <contour>
        <pt x="73" y="10" on="1"/>
        <pt x="99" y="10" on="0"/>
        <pt x="136" y="47" on="0"/>
        <pt x="137" y="73" on="1"/>
        <pt x="137" y="627" on="1"/>
        <pt x="136" y="653" on="0"/>
        <pt x="99" y="690" on="0"/>
        <pt x="73" y="690" on="1"/>
        <pt x="60" y="690" on="1"/>
        <pt x="60" y="700" on="1"/>
        <pt x="279" y="700" on="1"/>
        <pt x="279" y="690" on="1"/>
        <pt x="266" y="690" on="1"/>
        <pt x="240" y="690" on="0"/>
        <pt x="202" y="653" on="0"/>
        <pt x="202" y="627" on="1"/>
        <pt x="202" y="31" on="1"/>
        <pt x="345" y="31" on="1"/>
        <pt x="419" y="31" on="0"/>
        <pt x="497" y="97" on="0"/>
        <pt x="523" y="162" on="1"/>
        <pt x="533" y="162" on="1"/>
        <pt x="475" y="0" on="1"/>
        <pt x="60" y="0" on="1"/>
        <pt x="60" y="10" on="1"/>
      </contour>
    </TTGlyph>
    <TTGlyph name="Lcommaaccent" xMin="60" yMin="-195" xMax="533" yMax="700">
      <contour>
        <pt x="73" y="10" on="1"/>
        <pt x="99" y="10" on="0"/>
        <pt x="136" y="47" on="0"/>
        <pt x="137" y="73" on="1"/>
        <pt x="137" y="627" on="1"/>
        <pt x="136" y="653" on="0"/>
        <pt x="99" y="690" on="0"/>
        <pt x="73" y="690" on="1"/>
        <pt x="60" y="690" on="1"/>
        <pt x="60" y="700" on="1"/>
        <pt x="279" y="700" on="1"/>
        <pt x="279" y="690" on="1"/>
        <pt x="266" y="690" on="1"/>
        <pt x="230" y="690" on="0"/>
        <pt x="211" y="659" on="1"/>
        <pt x="202" y="644" on="0"/>
        <pt x="202" y="627" on="1"/>
        <pt x="202" y="31" on="1"/>
        <pt x="345" y="31" on="1"/>
        <pt x="419" y="31" on="0"/>
        <pt x="497" y="97" on="0"/>
        <pt x="523" y="162" on="1"/>
        <pt x="533" y="162" on="1"/>
        <pt x="475" y="0" on="1"/>
        <pt x="60" y="0" on="1"/>
        <pt x="60" y="10" on="1"/>
      </contour>
      <contour>
        <pt x="280" y="-67" on="1"/>
        <pt x="288" y="-50" on="0"/>
        <pt x="309" y="-50" on="1"/>
        <pt x="332" y="-50" on="0"/>
        <pt x="350" y="-95" on="0"/>
        <pt x="350" y="-109" on="1"/>
        <pt x="350" y="-152" on="0"/>
        <pt x="300" y="-193" on="0"/>
        <pt x="273" y="-194" on="1"/>
        <pt x="272" y="-187" on="1"/>
        <pt x="294" y="-180" on="0"/>
        <pt x="303" y="-165" on="1"/>
        <pt x="319" y="-138" on="0"/>
        <pt x="299" y="-114" on="1"/>
        <pt x="297" y="-112" on="0"/>
        <pt x="289" y="-103" on="0"/>
        <pt x="285" y="-98" on="0"/>
        <pt x="279" y="-89" on="0"/>
        <pt x="278" y="-85" on="1"/>
        <pt x="276" y="-76" on="0"/>
      </contour>
    </TTGlyph>
    <TTGlyph name="Ldot" xMin="60" yMin="-1" xMax="533" yMax="700">
      <contour>
        <pt x="73" y="10" on="1"/>
        <pt x="99" y="10" on="0"/>
        <pt x="136" y="47" on="0"/>
        <pt x="137" y="73" on="1"/>
        <pt x="137" y="627" on="1"/>
        <pt x="136" y="653" on="0"/>
        <pt x="99" y="690" on="0"/>
        <pt x="73" y="690" on="1"/>
        <pt x="60" y="690" on="1"/>
        <pt x="60" y="700" on="1"/>
        <pt x="279" y="700" on="1"/>
        <pt x="279" y="690" on="1"/>
        <pt x="266" y="690" on="1"/>
        <pt x="230" y="690" on="0"/>
        <pt x="211" y="659" on="1"/>
        <pt x="202" y="644" on="0"/>
        <pt x="202" y="627" on="1"/>
        <pt x="202" y="31" on="1"/>
        <pt x="345" y="31" on="1"/>
        <pt x="419" y="31" on="0"/>
        <pt x="497" y="97" on="0"/>
        <pt x="523" y="162" on="1"/>
        <pt x="533" y="162" on="1"/>
        <pt x="475" y="0" on="1"/>
        <pt x="60" y="0" on="1"/>
        <pt x="60" y="10" on="1"/>
      </contour>
      <contour>
        <pt x="353" y="403" on="0"/>
        <pt x="316" y="403" on="0"/>
        <pt x="289" y="429" on="0"/>
        <pt x="289" y="467" on="0"/>
        <pt x="316" y="493" on="0"/>
        <pt x="353" y="493" on="0"/>
        <pt x="379" y="467" on="0"/>
        <pt x="379" y="429" on="0"/>
      </contour>
    </TTGlyph>
    <TTGlyph name="Lslash" xMin="17" yMin="-1" xMax="533" yMax="700">
      <contour>
        <pt x="73" y="10" on="1"/>
        <pt x="99" y="10" on="0"/>
        <pt x="136" y="47" on="0"/>
        <pt x="137" y="73" on="1"/>
        <pt x="137" y="308" on="1"/>
        <pt x="33" y="248" on="1"/>
        <pt x="18" y="274" on="1"/>
        <pt x="137" y="343" on="1"/>
        <pt x="137" y="627" on="1"/>
        <pt x="136" y="653" on="0"/>
        <pt x="99" y="690" on="0"/>
        <pt x="73" y="690" on="1"/>
        <pt x="60" y="690" on="1"/>
        <pt x="60" y="700" on="1"/>
        <pt x="279" y="700" on="1"/>
        <pt x="279" y="690" on="1"/>
        <pt x="266" y="690" on="1"/>
        <pt x="240" y="690" on="0"/>
        <pt x="202" y="653" on="0"/>
        <pt x="202" y="627" on="1"/>
        <pt x="202" y="380" on="1"/>
        <pt x="326" y="452" on="1"/>
        <pt x="341" y="426" on="1"/>
        <pt x="202" y="346" on="1"/>
        <pt x="202" y="31" on="1"/>
        <pt x="345" y="31" on="1"/>
        <pt x="419" y="31" on="0"/>
        <pt x="497" y="97" on="0"/>
        <pt x="523" y="162" on="1"/>
        <pt x="533" y="162" on="1"/>
        <pt x="475" y="0" on="1"/>
        <pt x="60" y="0" on="1"/>
        <pt x="60" y="10" on="1"/>
      </contour>
    </TTGlyph>
    <TTGlyph name="M" xMin="15" yMin="-14" xMax="917" yMax="715">
      <contour>
        <pt x="900" y="10" on="1"/>
        <pt x="916" y="10" on="1"/>
        <pt x="916" y="0" on="1"/>
        <pt x="699" y="0" on="1"/>
        <pt x="699" y="9" on="1"/>
        <pt x="714" y="9" on="1"/>
        <pt x="731" y="9" on="0"/>
        <pt x="755" y="36" on="0"/>
        <pt x="753" y="52" on="1"/>
        <pt x="708" y="555" on="1"/>
        <pt x="498" y="88" on="1"/>
        <pt x="470" y="27" on="0"/>
        <pt x="464" y="-14" on="1"/>
        <pt x="454" y="-14" on="1"/>
        <pt x="198" y="541" on="1"/>
        <pt x="155" y="52" on="1"/>
        <pt x="153" y="36" on="0"/>
        <pt x="177" y="9" on="0"/>
        <pt x="193" y="9" on="1"/>
        <pt x="209" y="9" on="1"/>
        <pt x="209" y="0" on="1"/>
        <pt x="15" y="0" on="1"/>
        <pt x="15" y="10" on="1"/>
        <pt x="31" y="10" on="1"/>
        <pt x="59" y="10" on="0"/>
        <pt x="100" y="44" on="0"/>
        <pt x="104" y="73" on="1"/>
        <pt x="179" y="714" on="1"/>
        <pt x="189" y="714" on="1"/>
        <pt x="468" y="111" on="1"/>
        <pt x="741" y="714" on="1"/>
        <pt x="750" y="714" on="1"/>
        <pt x="827" y="73" on="1"/>
        <pt x="832" y="33" on="0"/>
        <pt x="867" y="17" on="1"/>
        <pt x="882" y="10" on="0"/>
      </contour>
    </TTGlyph>
    <TTGlyph name="N" xMin="44" yMin="-15" xMax="797" yMax="715">
      <contour>
        <pt x="778" y="690" on="1"/>
        <pt x="753" y="690" on="0"/>
        <pt x="717" y="655" on="0"/>
        <pt x="716" y="630" on="1"/>
        <pt x="716" y="114" on="1"/>
        <pt x="716" y="56" on="0"/>
        <pt x="723" y="4" on="1"/>
        <pt x="725" y="-14" on="1"/>
        <pt x="716" y="-14" on="1"/>
        <pt x="171" y="568" on="1"/>
        <pt x="171" y="70" on="1"/>
        <pt x="172" y="35" on="0"/>
        <pt x="202" y="18" on="1"/>
        <pt x="216" y="10" on="0"/>
        <pt x="232" y="10" on="1"/>
        <pt x="251" y="10" on="1"/>
        <pt x="251" y="0" on="1"/>
        <pt x="45" y="0" on="1"/>
        <pt x="45" y="10" on="1"/>
        <pt x="64" y="10" on="1"/>
        <pt x="89" y="10" on="0"/>
        <pt x="125" y="45" on="0"/>
        <pt x="125" y="71" on="1"/>
        <pt x="125" y="590" on="1"/>
        <pt x="125" y="651" on="0"/>
        <pt x="118" y="699" on="1"/>
        <pt x="116" y="715" on="1"/>
        <pt x="126" y="715" on="1"/>
        <pt x="671" y="133" on="1"/>
        <pt x="671" y="629" on="1"/>
        <pt x="670" y="655" on="0"/>
        <pt x="634" y="690" on="0"/>
        <pt x="609" y="690" on="1"/>
        <pt x="590" y="690" on="1"/>
        <pt x="590" y="700" on="1"/>
        <pt x="796" y="700" on="1"/>
        <pt x="796" y="690" on="1"/>
      </contour>
    </TTGlyph>
    <TTGlyph name="Nacute" xMin="44" yMin="-15" xMax="797" yMax="902">
      <contour>
        <pt x="426" y="764" on="1"/>
        <pt x="419" y="771" on="1"/>
        <pt x="495" y="853" on="0"/>
        <pt x="546" y="902" on="1"/>
        <pt x="573" y="875" on="0"/>
        <pt x="587" y="849" on="1"/>
        <pt x="522" y="812" on="0"/>
      </contour>
      <contour>
        <pt x="778" y="690" on="1"/>
        <pt x="753" y="690" on="0"/>
        <pt x="717" y="655" on="0"/>
        <pt x="716" y="630" on="1"/>
        <pt x="716" y="114" on="1"/>
        <pt x="716" y="56" on="0"/>
        <pt x="723" y="4" on="1"/>
        <pt x="725" y="-14" on="1"/>
        <pt x="716" y="-14" on="1"/>
        <pt x="171" y="568" on="1"/>
        <pt x="171" y="70" on="1"/>
        <pt x="172" y="35" on="0"/>
        <pt x="202" y="18" on="1"/>
        <pt x="216" y="10" on="0"/>
        <pt x="232" y="10" on="1"/>
        <pt x="251" y="10" on="1"/>
        <pt x="251" y="0" on="1"/>
        <pt x="45" y="0" on="1"/>
        <pt x="45" y="10" on="1"/>
        <pt x="64" y="10" on="1"/>
        <pt x="89" y="10" on="0"/>
        <pt x="125" y="45" on="0"/>
        <pt x="125" y="71" on="1"/>
        <pt x="125" y="590" on="1"/>
        <pt x="125" y="651" on="0"/>
        <pt x="118" y="699" on="1"/>
        <pt x="116" y="715" on="1"/>
        <pt x="126" y="715" on="1"/>
        <pt x="671" y="133" on="1"/>
        <pt x="671" y="629" on="1"/>
        <pt x="670" y="655" on="0"/>
        <pt x="634" y="690" on="0"/>
        <pt x="609" y="690" on="1"/>
        <pt x="590" y="690" on="1"/>
        <pt x="590" y="700" on="1"/>
        <pt x="796" y="700" on="1"/>
        <pt x="796" y="690" on="1"/>
      </contour>
    </TTGlyph>
    <TTGlyph name="Ncaron" xMin="44" yMin="-15" xMax="797" yMax="891">
      <contour>
        <pt x="431" y="764" on="1"/>
        <pt x="421" y="764" on="1"/>
        <pt x="307" y="883" on="1"/>
        <pt x="313" y="891" on="1"/>
        <pt x="426" y="825" on="1"/>
        <pt x="531" y="891" on="1"/>
        <pt x="537" y="883" on="1"/>
      </contour>
      <contour>
        <pt x="778" y="690" on="1"/>
        <pt x="753" y="690" on="0"/>
        <pt x="717" y="655" on="0"/>
        <pt x="716" y="630" on="1"/>
        <pt x="716" y="114" on="1"/>
        <pt x="716" y="56" on="0"/>
        <pt x="723" y="4" on="1"/>
        <pt x="725" y="-14" on="1"/>
        <pt x="716" y="-14" on="1"/>
        <pt x="171" y="568" on="1"/>
        <pt x="171" y="70" on="1"/>
        <pt x="171" y="45" on="0"/>
        <pt x="207" y="10" on="0"/>
        <pt x="232" y="10" on="1"/>
        <pt x="251" y="10" on="1"/>
        <pt x="251" y="0" on="1"/>
        <pt x="45" y="0" on="1"/>
        <pt x="45" y="10" on="1"/>
        <pt x="64" y="10" on="1"/>
        <pt x="89" y="10" on="0"/>
        <pt x="125" y="45" on="0"/>
        <pt x="125" y="71" on="1"/>
        <pt x="125" y="590" on="1"/>
        <pt x="125" y="651" on="0"/>
        <pt x="118" y="699" on="1"/>
        <pt x="116" y="715" on="1"/>
        <pt x="126" y="715" on="1"/>
        <pt x="671" y="133" on="1"/>
        <pt x="671" y="629" on="1"/>
        <pt x="670" y="655" on="0"/>
        <pt x="634" y="690" on="0"/>
        <pt x="609" y="690" on="1"/>
        <pt x="590" y="690" on="1"/>
        <pt x="590" y="700" on="1"/>
        <pt x="796" y="700" on="1"/>
        <pt x="796" y="690" on="1"/>
      </contour>
    </TTGlyph>
    <TTGlyph name="Ncommaaccent" xMin="44" yMin="-209" xMax="797" yMax="715">
      <contour>
        <pt x="778" y="690" on="1"/>
        <pt x="753" y="690" on="0"/>
        <pt x="717" y="655" on="0"/>
        <pt x="716" y="630" on="1"/>
        <pt x="716" y="114" on="1"/>
        <pt x="716" y="56" on="0"/>
        <pt x="723" y="4" on="1"/>
        <pt x="725" y="-14" on="1"/>
        <pt x="716" y="-14" on="1"/>
        <pt x="171" y="568" on="1"/>
        <pt x="171" y="70" on="1"/>
        <pt x="172" y="35" on="0"/>
        <pt x="202" y="18" on="1"/>
        <pt x="216" y="10" on="0"/>
        <pt x="232" y="10" on="1"/>
        <pt x="251" y="10" on="1"/>
        <pt x="251" y="0" on="1"/>
        <pt x="45" y="0" on="1"/>
        <pt x="45" y="10" on="1"/>
        <pt x="64" y="10" on="1"/>
        <pt x="89" y="10" on="0"/>
        <pt x="125" y="45" on="0"/>
        <pt x="125" y="71" on="1"/>
        <pt x="125" y="590" on="1"/>
        <pt x="125" y="651" on="0"/>
        <pt x="118" y="699" on="1"/>
        <pt x="116" y="715" on="1"/>
        <pt x="126" y="715" on="1"/>
        <pt x="671" y="133" on="1"/>
        <pt x="671" y="629" on="1"/>
        <pt x="670" y="655" on="0"/>
        <pt x="634" y="690" on="0"/>
        <pt x="609" y="690" on="1"/>
        <pt x="590" y="690" on="1"/>
        <pt x="590" y="700" on="1"/>
        <pt x="796" y="700" on="1"/>
        <pt x="796" y="690" on="1"/>
      </contour>
      <contour>
        <pt x="399" y="-81" on="1"/>
        <pt x="406" y="-64" on="0"/>
        <pt x="428" y="-64" on="1"/>
        <pt x="451" y="-64" on="0"/>
        <pt x="470" y="-109" on="0"/>
        <pt x="470" y="-150" on="0"/>
        <pt x="457" y="-170" on="1"/>
        <pt x="433" y="-206" on="0"/>
        <pt x="392" y="-208" on="1"/>
        <pt x="390" y="-201" on="1"/>
        <pt x="412" y="-194" on="0"/>
        <pt x="421" y="-179" on="1"/>
        <pt x="437" y="-152" on="0"/>
        <pt x="417" y="-128" on="1"/>
        <pt x="415" y="-126" on="0"/>
        <pt x="408" y="-117" on="0"/>
        <pt x="403" y="-112" on="0"/>
        <pt x="398" y="-103" on="0"/>
        <pt x="397" y="-99" on="1"/>
        <pt x="395" y="-90" on="0"/>
      </contour>
    </TTGlyph>
    <TTGlyph name="Ntilde" xMin="44" yMin="-15" xMax="797" yMax="852">
      <contour>
        <pt x="496" y="809" on="1"/>
        <pt x="538" y="809" on="0"/>
        <pt x="552" y="843" on="1"/>
        <pt x="562" y="843" on="1"/>
        <pt x="556" y="793" on="0"/>
        <pt x="527" y="773" on="1"/>
        <pt x="513" y="764" on="0"/>
        <pt x="473" y="764" on="0"/>
        <pt x="390" y="808" on="0"/>
        <pt x="376" y="808" on="1"/>
        <pt x="338" y="808" on="0"/>
        <pt x="321" y="767" on="1"/>
        <pt x="311" y="767" on="1"/>
        <pt x="317" y="806" on="0"/>
        <pt x="351" y="852" on="0"/>
        <pt x="400" y="852" on="0"/>
        <pt x="480" y="809" on="0"/>
      </contour>
      <contour>
        <pt x="778" y="690" on="1"/>
        <pt x="753" y="690" on="0"/>
        <pt x="717" y="655" on="0"/>
        <pt x="716" y="630" on="1"/>
        <pt x="716" y="114" on="1"/>
        <pt x="716" y="56" on="0"/>
        <pt x="723" y="4" on="1"/>
        <pt x="725" y="-14" on="1"/>
        <pt x="716" y="-14" on="1"/>
        <pt x="171" y="568" on="1"/>
        <pt x="171" y="70" on="1"/>
        <pt x="172" y="35" on="0"/>
        <pt x="202" y="18" on="1"/>
        <pt x="216" y="10" on="0"/>
        <pt x="232" y="10" on="1"/>
        <pt x="251" y="10" on="1"/>
        <pt x="251" y="0" on="1"/>
        <pt x="45" y="0" on="1"/>
        <pt x="45" y="10" on="1"/>
        <pt x="64" y="10" on="1"/>
        <pt x="89" y="10" on="0"/>
        <pt x="125" y="45" on="0"/>
        <pt x="125" y="71" on="1"/>
        <pt x="125" y="590" on="1"/>
        <pt x="125" y="651" on="0"/>
        <pt x="118" y="699" on="1"/>
        <pt x="116" y="715" on="1"/>
        <pt x="126" y="715" on="1"/>
        <pt x="671" y="133" on="1"/>
        <pt x="671" y="629" on="1"/>
        <pt x="670" y="655" on="0"/>
        <pt x="634" y="690" on="0"/>
        <pt x="609" y="690" on="1"/>
        <pt x="590" y="690" on="1"/>
        <pt x="590" y="700" on="1"/>
        <pt x="796" y="700" on="1"/>
        <pt x="796" y="690" on="1"/>
      </contour>
    </TTGlyph>
    <TTGlyph name="O" xMin="70" yMin="-14" xMax="789" yMax="714">
      <contour>
        <pt x="269" y="714" on="0"/>
        <pt x="589" y="714" on="0"/>
        <pt x="789" y="513" on="0"/>
        <pt x="789" y="187" on="0"/>
        <pt x="589" y="-14" on="0"/>
        <pt x="269" y="-14" on="0"/>
        <pt x="70" y="187" on="0"/>
        <pt x="70" y="513" on="0"/>
      </contour>
      <contour>
        <pt x="302" y="16" on="0"/>
        <pt x="557" y="16" on="0"/>
        <pt x="712" y="200" on="0"/>
        <pt x="712" y="350" on="1"/>
        <pt x="712" y="449" on="0"/>
        <pt x="642" y="601" on="0"/>
        <pt x="513" y="684" on="0"/>
        <pt x="429" y="684" on="1"/>
        <pt x="302" y="684" on="0"/>
        <pt x="147" y="500" on="0"/>
        <pt x="147" y="200" on="0"/>
      </contour>
    </TTGlyph>
    <TTGlyph name="OE" xMin="60" yMin="-15" xMax="933" yMax="719">
      <contour>
        <pt x="874" y="0" on="1"/>
        <pt x="596" y="0" on="1"/>
        <pt x="556" y="0" on="0"/>
        <pt x="436" y="-14" on="0"/>
        <pt x="414" y="-14" on="1"/>
        <pt x="255" y="-14" on="0"/>
        <pt x="60" y="186" on="0"/>
        <pt x="60" y="350" on="1"/>
        <pt x="60" y="431" on="0"/>
        <pt x="111" y="567" on="0"/>
        <pt x="203" y="661" on="0"/>
        <pt x="336" y="714" on="0"/>
        <pt x="466" y="714" on="0"/>
        <pt x="563" y="700" on="0"/>
        <pt x="594" y="700" on="1"/>
        <pt x="752" y="700" on="1"/>
        <pt x="783" y="700" on="0"/>
        <pt x="857" y="712" on="0"/>
        <pt x="871" y="718" on="1"/>
        <pt x="871" y="592" on="1"/>
        <pt x="859" y="592" on="1"/>
        <pt x="859" y="610" on="1"/>
        <pt x="859" y="634" on="0"/>
        <pt x="827" y="668" on="0"/>
        <pt x="803" y="669" on="1"/>
        <pt x="597" y="669" on="1"/>
        <pt x="597" y="360" on="1"/>
        <pt x="770" y="360" on="1"/>
        <pt x="791" y="361" on="0"/>
        <pt x="819" y="389" on="0"/>
        <pt x="819" y="410" on="1"/>
        <pt x="819" y="424" on="1"/>
        <pt x="829" y="424" on="1"/>
        <pt x="829" y="266" on="1"/>
        <pt x="819" y="266" on="1"/>
        <pt x="819" y="281" on="1"/>
        <pt x="819" y="301" on="0"/>
        <pt x="791" y="329" on="0"/>
        <pt x="771" y="330" on="1"/>
        <pt x="597" y="330" on="1"/>
        <pt x="597" y="31" on="1"/>
        <pt x="745" y="31" on="1"/>
        <pt x="818" y="31" on="0"/>
        <pt x="896" y="97" on="0"/>
        <pt x="922" y="162" on="1"/>
        <pt x="932" y="162" on="1"/>
      </contour>
      <contour>
        <pt x="414" y="684" on="1"/>
        <pt x="287" y="684" on="0"/>
        <pt x="132" y="500" on="0"/>
        <pt x="132" y="200" on="0"/>
        <pt x="287" y="16" on="0"/>
        <pt x="414" y="16" on="1"/>
        <pt x="479" y="16" on="0"/>
        <pt x="516" y="37" on="1"/>
        <pt x="536" y="49" on="0"/>
        <pt x="536" y="64" on="1"/>
        <pt x="536" y="636" on="1"/>
        <pt x="536" y="661" on="0"/>
        <pt x="462" y="684" on="0"/>
      </contour>
    </TTGlyph>
    <TTGlyph name="Oacute" xMin="70" yMin="-14" xMax="789" yMax="902">
      <contour>
        <pt x="429" y="764" on="1"/>
        <pt x="422" y="771" on="1"/>
        <pt x="498" y="853" on="0"/>
        <pt x="549" y="902" on="1"/>
        <pt x="576" y="875" on="0"/>
        <pt x="590" y="849" on="1"/>
        <pt x="525" y="812" on="0"/>
      </contour>
      <contour>
        <pt x="269" y="714" on="0"/>
        <pt x="589" y="714" on="0"/>
        <pt x="789" y="513" on="0"/>
        <pt x="789" y="187" on="0"/>
        <pt x="589" y="-14" on="0"/>
        <pt x="269" y="-14" on="0"/>
        <pt x="70" y="187" on="0"/>
        <pt x="70" y="513" on="0"/>
      </contour>
      <contour>
        <pt x="302" y="16" on="0"/>
        <pt x="557" y="16" on="0"/>
        <pt x="712" y="200" on="0"/>
        <pt x="712" y="350" on="1"/>
        <pt x="712" y="449" on="0"/>
        <pt x="642" y="601" on="0"/>
        <pt x="513" y="684" on="0"/>
        <pt x="429" y="684" on="1"/>
        <pt x="302" y="684" on="0"/>
        <pt x="147" y="500" on="0"/>
        <pt x="147" y="200" on="0"/>
      </contour>
    </TTGlyph>
    <TTGlyph name="Ocircumflex" xMin="70" yMin="-14" xMax="789" yMax="890">
      <contour>
        <pt x="424" y="890" on="1"/>
        <pt x="434" y="890" on="1"/>
        <pt x="548" y="771" on="1"/>
        <pt x="542" y="763" on="1"/>
        <pt x="428" y="829" on="1"/>
        <pt x="324" y="763" on="1"/>
        <pt x="318" y="771" on="1"/>
      </contour>
      <contour>
        <pt x="269" y="714" on="0"/>
        <pt x="589" y="714" on="0"/>
        <pt x="789" y="513" on="0"/>
        <pt x="789" y="187" on="0"/>
        <pt x="589" y="-14" on="0"/>
        <pt x="269" y="-14" on="0"/>
        <pt x="70" y="187" on="0"/>
        <pt x="70" y="513" on="0"/>
      </contour>
      <contour>
        <pt x="302" y="16" on="0"/>
        <pt x="557" y="16" on="0"/>
        <pt x="712" y="200" on="0"/>
        <pt x="712" y="350" on="1"/>
        <pt x="712" y="449" on="0"/>
        <pt x="642" y="601" on="0"/>
        <pt x="513" y="684" on="0"/>
        <pt x="429" y="684" on="1"/>
        <pt x="302" y="684" on="0"/>
        <pt x="147" y="500" on="0"/>
        <pt x="147" y="200" on="0"/>
      </contour>
    </TTGlyph>
    <TTGlyph name="Odieresis" xMin="70" yMin="-14" xMax="789" yMax="843">
      <contour>
        <pt x="351" y="764" on="0"/>
        <pt x="319" y="764" on="0"/>
        <pt x="296" y="787" on="0"/>
        <pt x="296" y="819" on="0"/>
        <pt x="319" y="842" on="0"/>
        <pt x="351" y="842" on="0"/>
        <pt x="374" y="819" on="0"/>
        <pt x="374" y="787" on="0"/>
      </contour>
      <contour>
        <pt x="539" y="764" on="0"/>
        <pt x="507" y="764" on="0"/>
        <pt x="484" y="787" on="0"/>
        <pt x="484" y="819" on="0"/>
        <pt x="507" y="842" on="0"/>
        <pt x="539" y="842" on="0"/>
        <pt x="562" y="819" on="0"/>
        <pt x="562" y="787" on="0"/>
      </contour>
      <contour>
        <pt x="269" y="714" on="0"/>
        <pt x="589" y="714" on="0"/>
        <pt x="789" y="513" on="0"/>
        <pt x="789" y="187" on="0"/>
        <pt x="589" y="-14" on="0"/>
        <pt x="269" y="-14" on="0"/>
        <pt x="70" y="187" on="0"/>
        <pt x="70" y="513" on="0"/>
      </contour>
      <contour>
        <pt x="302" y="16" on="0"/>
        <pt x="557" y="16" on="0"/>
        <pt x="712" y="200" on="0"/>
        <pt x="712" y="350" on="1"/>
        <pt x="712" y="449" on="0"/>
        <pt x="642" y="601" on="0"/>
        <pt x="513" y="684" on="0"/>
        <pt x="429" y="684" on="1"/>
        <pt x="302" y="684" on="0"/>
        <pt x="147" y="500" on="0"/>
        <pt x="147" y="200" on="0"/>
      </contour>
    </TTGlyph>
    <TTGlyph name="Ograve" xMin="60" yMin="-15" xMax="779" yMax="902">
      <contour>
        <pt x="426" y="771" on="1"/>
        <pt x="419" y="764" on="1"/>
        <pt x="339" y="802" on="0"/>
        <pt x="258" y="849" on="1"/>
        <pt x="273" y="877" on="0"/>
        <pt x="299" y="902" on="1"/>
        <pt x="363" y="841" on="0"/>
      </contour>
      <contour>
        <pt x="259" y="714" on="0"/>
        <pt x="579" y="714" on="0"/>
        <pt x="779" y="513" on="0"/>
        <pt x="779" y="187" on="0"/>
        <pt x="579" y="-14" on="0"/>
        <pt x="259" y="-14" on="0"/>
        <pt x="60" y="187" on="0"/>
        <pt x="60" y="513" on="0"/>
      </contour>
      <contour>
        <pt x="292" y="16" on="0"/>
        <pt x="547" y="16" on="0"/>
        <pt x="702" y="200" on="0"/>
        <pt x="702" y="350" on="1"/>
        <pt x="702" y="449" on="0"/>
        <pt x="632" y="601" on="0"/>
        <pt x="503" y="684" on="0"/>
        <pt x="419" y="684" on="1"/>
        <pt x="292" y="684" on="0"/>
        <pt x="137" y="500" on="0"/>
        <pt x="137" y="200" on="0"/>
      </contour>
    </TTGlyph>
    <TTGlyph name="Ohungarumlaut" xMin="70" yMin="-14" xMax="789" yMax="902">
      <contour>
        <pt x="372" y="768" on="1"/>
        <pt x="361" y="770" on="1"/>
        <pt x="391" y="836" on="0"/>
        <pt x="428" y="901" on="1"/>
        <pt x="464" y="899" on="0"/>
        <pt x="489" y="889" on="1"/>
        <pt x="435" y="829" on="0"/>
      </contour>
      <contour>
        <pt x="494" y="768" on="1"/>
        <pt x="483" y="770" on="1"/>
        <pt x="514" y="843" on="0"/>
        <pt x="550" y="901" on="1"/>
        <pt x="580" y="901" on="0"/>
        <pt x="611" y="889" on="1"/>
        <pt x="543" y="813" on="0"/>
      </contour>
      <contour>
        <pt x="269" y="714" on="0"/>
        <pt x="590" y="714" on="0"/>
        <pt x="789" y="513" on="0"/>
        <pt x="789" y="187" on="0"/>
        <pt x="590" y="-14" on="0"/>
        <pt x="269" y="-14" on="0"/>
        <pt x="70" y="187" on="0"/>
        <pt x="70" y="513" on="0"/>
      </contour>
      <contour>
        <pt x="302" y="16" on="0"/>
        <pt x="557" y="16" on="0"/>
        <pt x="712" y="200" on="0"/>
        <pt x="712" y="350" on="1"/>
        <pt x="712" y="449" on="0"/>
        <pt x="642" y="601" on="0"/>
        <pt x="513" y="684" on="0"/>
        <pt x="429" y="684" on="1"/>
        <pt x="302" y="684" on="0"/>
        <pt x="147" y="500" on="0"/>
        <pt x="147" y="200" on="0"/>
      </contour>
    </TTGlyph>
    <TTGlyph name="Omacron" xMin="70" yMin="-14" xMax="789" yMax="831">
      <contour>
        <pt x="307" y="795" on="1"/>
        <pt x="307" y="830" on="1"/>
        <pt x="557" y="830" on="1"/>
        <pt x="557" y="795" on="1"/>
      </contour>
      <contour>
        <pt x="269" y="714" on="0"/>
        <pt x="589" y="714" on="0"/>
        <pt x="789" y="513" on="0"/>
        <pt x="789" y="187" on="0"/>
        <pt x="589" y="-14" on="0"/>
        <pt x="269" y="-14" on="0"/>
        <pt x="70" y="187" on="0"/>
        <pt x="70" y="513" on="0"/>
      </contour>
      <contour>
        <pt x="302" y="16" on="0"/>
        <pt x="557" y="16" on="0"/>
        <pt x="712" y="200" on="0"/>
        <pt x="712" y="350" on="1"/>
        <pt x="712" y="449" on="0"/>
        <pt x="642" y="601" on="0"/>
        <pt x="513" y="684" on="0"/>
        <pt x="429" y="684" on="1"/>
        <pt x="302" y="684" on="0"/>
        <pt x="147" y="500" on="0"/>
        <pt x="147" y="200" on="0"/>
      </contour>
    </TTGlyph>
    <TTGlyph name="Omega" xMin="53" yMin="0" xMax="753" yMax="714">
      <contour>
        <pt x="465" y="0" on="1"/>
        <pt x="465" y="65" on="1"/>
        <pt x="543" y="110" on="0"/>
        <pt x="605" y="188" on="1"/>
        <pt x="679" y="280" on="0"/>
        <pt x="679" y="395" on="1"/>
        <pt x="679" y="472" on="0"/>
        <pt x="610" y="605" on="0"/>
        <pt x="483" y="684" on="0"/>
        <pt x="406" y="684" on="1"/>
        <pt x="290" y="684" on="0"/>
        <pt x="130" y="511" on="0"/>
        <pt x="130" y="386" on="1"/>
        <pt x="130" y="235" on="0"/>
        <pt x="263" y="119" on="1"/>
        <pt x="298" y="88" on="0"/>
        <pt x="338" y="65" on="1"/>
        <pt x="338" y="0" on="1"/>
        <pt x="101" y="0" on="1"/>
        <pt x="53" y="140" on="1"/>
        <pt x="63" y="140" on="1"/>
        <pt x="91" y="90" on="0"/>
        <pt x="137" y="55" on="0"/>
        <pt x="180" y="55" on="1"/>
        <pt x="308" y="55" on="1"/>
        <pt x="214" y="87" on="0"/>
        <pt x="158" y="148" on="1"/>
        <pt x="60" y="257" on="0"/>
        <pt x="60" y="397" on="1"/>
        <pt x="60" y="481" on="0"/>
        <pt x="147" y="627" on="0"/>
        <pt x="309" y="714" on="0"/>
        <pt x="501" y="714" on="0"/>
        <pt x="658" y="627" on="0"/>
        <pt x="748" y="477" on="0"/>
        <pt x="748" y="386" on="1"/>
        <pt x="748" y="306" on="0"/>
        <pt x="683" y="204" on="1"/>
        <pt x="653" y="156" on="0"/>
        <pt x="553" y="74" on="0"/>
        <pt x="496" y="55" on="1"/>
        <pt x="626" y="55" on="1"/>
        <pt x="669" y="55" on="0"/>
        <pt x="715" y="90" on="0"/>
        <pt x="743" y="140" on="1"/>
        <pt x="753" y="140" on="1"/>
        <pt x="705" y="0" on="1"/>
      </contour>
    </TTGlyph>
    <TTGlyph name="Oslash" xMin="60" yMin="-23" xMax="769" yMax="723">
      <contour>
        <pt x="769" y="350" on="1"/>
        <pt x="769" y="242" on="0"/>
        <pt x="681" y="76" on="0"/>
        <pt x="520" y="-14" on="0"/>
        <pt x="414" y="-14" on="1"/>
        <pt x="282" y="-14" on="0"/>
        <pt x="190" y="57" on="1"/>
        <pt x="123" y="-23" on="1"/>
        <pt x="98" y="-1" on="1"/>
        <pt x="164" y="79" on="1"/>
        <pt x="60" y="180" on="0"/>
        <pt x="60" y="350" on="1"/>
        <pt x="60" y="431" on="0"/>
        <pt x="111" y="567" on="0"/>
        <pt x="203" y="661" on="0"/>
        <pt x="336" y="714" on="0"/>
        <pt x="414" y="714" on="1"/>
        <pt x="544" y="714" on="0"/>
        <pt x="635" y="646" on="1"/>
        <pt x="699" y="722" on="1"/>
        <pt x="725" y="700" on="1"/>
        <pt x="661" y="624" on="1"/>
        <pt x="769" y="523" on="0"/>
      </contour>
      <contour>
        <pt x="605" y="608" on="1"/>
        <pt x="529" y="684" on="0"/>
        <pt x="287" y="684" on="0"/>
        <pt x="132" y="500" on="0"/>
        <pt x="132" y="211" on="0"/>
        <pt x="199" y="121" on="1"/>
      </contour>
      <contour>
        <pt x="221" y="95" on="1"/>
        <pt x="297" y="16" on="0"/>
        <pt x="542" y="16" on="0"/>
        <pt x="697" y="200" on="0"/>
        <pt x="697" y="492" on="0"/>
        <pt x="627" y="583" on="1"/>
      </contour>
    </TTGlyph>
    <TTGlyph name="Otilde" xMin="70" yMin="-14" xMax="789" yMax="852">
      <contour>
        <pt x="499" y="809" on="1"/>
        <pt x="541" y="809" on="0"/>
        <pt x="555" y="843" on="1"/>
        <pt x="565" y="843" on="1"/>
        <pt x="559" y="793" on="0"/>
        <pt x="530" y="773" on="1"/>
        <pt x="517" y="764" on="0"/>
        <pt x="476" y="764" on="0"/>
        <pt x="394" y="808" on="0"/>
        <pt x="379" y="808" on="1"/>
        <pt x="341" y="808" on="0"/>
        <pt x="325" y="767" on="1"/>
        <pt x="315" y="767" on="1"/>
        <pt x="320" y="806" on="0"/>
        <pt x="355" y="852" on="0"/>
        <pt x="403" y="852" on="0"/>
        <pt x="483" y="809" on="0"/>
      </contour>
      <contour>
        <pt x="269" y="714" on="0"/>
        <pt x="589" y="714" on="0"/>
        <pt x="789" y="513" on="0"/>
        <pt x="789" y="187" on="0"/>
        <pt x="589" y="-14" on="0"/>
        <pt x="269" y="-14" on="0"/>
        <pt x="70" y="187" on="0"/>
        <pt x="70" y="513" on="0"/>
      </contour>
      <contour>
        <pt x="302" y="16" on="0"/>
        <pt x="557" y="16" on="0"/>
        <pt x="712" y="200" on="0"/>
        <pt x="712" y="350" on="1"/>
        <pt x="712" y="449" on="0"/>
        <pt x="642" y="601" on="0"/>
        <pt x="513" y="684" on="0"/>
        <pt x="429" y="684" on="1"/>
        <pt x="302" y="684" on="0"/>
        <pt x="147" y="500" on="0"/>
        <pt x="147" y="200" on="0"/>
      </contour>
    </TTGlyph>
    <TTGlyph name="P" xMin="59" yMin="-1" xMax="528" yMax="700">
      <contour>
        <pt x="527" y="507" on="1"/>
        <pt x="527" y="463" on="0"/>
        <pt x="509" y="425" on="1"/>
        <pt x="476" y="354" on="0"/>
        <pt x="393" y="326" on="1"/>
        <pt x="364" y="316" on="0"/>
        <pt x="343" y="316" on="1"/>
        <pt x="281" y="316" on="0"/>
        <pt x="236" y="339" on="1"/>
        <pt x="236" y="349" on="1"/>
        <pt x="309" y="333" on="0"/>
        <pt x="371" y="365" on="1"/>
        <pt x="426" y="393" on="0"/>
        <pt x="446" y="457" on="1"/>
        <pt x="452" y="477" on="0"/>
        <pt x="452" y="513" on="0"/>
        <pt x="452" y="517" on="1"/>
        <pt x="450" y="587" on="0"/>
        <pt x="380" y="670" on="0"/>
        <pt x="317" y="670" on="1"/>
        <pt x="202" y="670" on="1"/>
        <pt x="202" y="73" on="1"/>
        <pt x="203" y="47" on="0"/>
        <pt x="240" y="10" on="0"/>
        <pt x="266" y="10" on="1"/>
        <pt x="279" y="10" on="1"/>
        <pt x="279" y="0" on="1"/>
        <pt x="60" y="0" on="1"/>
        <pt x="60" y="10" on="1"/>
        <pt x="73" y="10" on="1"/>
        <pt x="99" y="10" on="0"/>
        <pt x="136" y="47" on="0"/>
        <pt x="137" y="73" on="1"/>
        <pt x="137" y="632" on="1"/>
        <pt x="134" y="657" on="0"/>
        <pt x="98" y="690" on="0"/>
        <pt x="73" y="690" on="1"/>
        <pt x="61" y="690" on="1"/>
        <pt x="60" y="700" on="1"/>
        <pt x="321" y="700" on="1"/>
        <pt x="417" y="700" on="0"/>
        <pt x="527" y="597" on="0"/>
      </contour>
    </TTGlyph>
    <TTGlyph name="Q" xMin="60" yMin="-239" xMax="1328" yMax="714">
      <contour>
        <pt x="1270" y="-163" on="0"/>
        <pt x="1178" y="-214" on="0"/>
        <pt x="1084" y="-239" on="0"/>
        <pt x="1048" y="-239" on="1"/>
        <pt x="932" y="-239" on="0"/>
        <pt x="828" y="-194" on="1"/>
        <pt x="791" y="-178" on="0"/>
        <pt x="703" y="-133" on="1"/>
        <pt x="506" y="-32" on="0"/>
        <pt x="408" y="-14" on="1"/>
        <pt x="253" y="-10" on="0"/>
        <pt x="60" y="190" on="0"/>
        <pt x="60" y="513" on="0"/>
        <pt x="259" y="714" on="0"/>
        <pt x="579" y="714" on="0"/>
        <pt x="777" y="513" on="0"/>
        <pt x="777" y="350" on="1"/>
        <pt x="777" y="211" on="0"/>
        <pt x="629" y="21" on="0"/>
        <pt x="505" y="-5" on="1"/>
        <pt x="614" y="-38" on="0"/>
        <pt x="836" y="-133" on="1"/>
        <pt x="942" y="-177" on="0"/>
        <pt x="1052" y="-177" on="1"/>
        <pt x="1114" y="-177" on="0"/>
        <pt x="1177" y="-162" on="1"/>
        <pt x="1265" y="-139" on="0"/>
        <pt x="1324" y="-84" on="1"/>
        <pt x="1328" y="-89" on="1"/>
        <pt x="1320" y="-110" on="0"/>
      </contour>
      <contour>
        <pt x="291" y="684" on="0"/>
        <pt x="135" y="500" on="0"/>
        <pt x="135" y="200" on="0"/>
        <pt x="292" y="16" on="0"/>
        <pt x="547" y="16" on="0"/>
        <pt x="702" y="200" on="0"/>
        <pt x="702" y="350" on="1"/>
        <pt x="702" y="449" on="0"/>
        <pt x="632" y="601" on="0"/>
        <pt x="503" y="684" on="0"/>
        <pt x="419" y="684" on="1"/>
      </contour>
    </TTGlyph>
    <TTGlyph name="R" xMin="60" yMin="-1" xMax="688" yMax="701">
      <contour>
        <pt x="266" y="669" on="1"/>
        <pt x="202" y="669" on="1"/>
        <pt x="202" y="73" on="1"/>
        <pt x="202" y="47" on="0"/>
        <pt x="239" y="10" on="0"/>
        <pt x="266" y="10" on="1"/>
        <pt x="278" y="10" on="1"/>
        <pt x="279" y="0" on="1"/>
        <pt x="60" y="0" on="1"/>
        <pt x="60" y="10" on="1"/>
        <pt x="73" y="10" on="1"/>
        <pt x="99" y="10" on="0"/>
        <pt x="136" y="46" on="0"/>
        <pt x="137" y="72" on="1"/>
        <pt x="137" y="627" on="1"/>
        <pt x="136" y="653" on="0"/>
        <pt x="99" y="690" on="0"/>
        <pt x="73" y="690" on="1"/>
        <pt x="60" y="690" on="1"/>
        <pt x="60" y="700" on="1"/>
        <pt x="330" y="700" on="1"/>
        <pt x="421" y="700" on="0"/>
        <pt x="525" y="599" on="0"/>
        <pt x="525" y="438" on="0"/>
        <pt x="426" y="321" on="0"/>
        <pt x="355" y="321" on="1"/>
        <pt x="370" y="314" on="0"/>
        <pt x="411" y="273" on="0"/>
        <pt x="427" y="251" on="1"/>
        <pt x="513" y="128" on="0"/>
        <pt x="565" y="71" on="0"/>
        <pt x="587" y="50" on="0"/>
        <pt x="613" y="30" on="0"/>
        <pt x="626" y="24" on="1"/>
        <pt x="655" y="10" on="0"/>
        <pt x="688" y="10" on="1"/>
        <pt x="688" y="0" on="1"/>
        <pt x="633" y="0" on="1"/>
        <pt x="590" y="0" on="0"/>
        <pt x="516" y="31" on="0"/>
        <pt x="479" y="64" on="0"/>
        <pt x="452" y="95" on="0"/>
        <pt x="330" y="271" on="0"/>
        <pt x="310" y="296" on="0"/>
        <pt x="299" y="308" on="1"/>
        <pt x="267" y="342" on="0"/>
        <pt x="235" y="342" on="1"/>
        <pt x="235" y="352" on="1"/>
        <pt x="243" y="351" on="0"/>
        <pt x="269" y="351" on="0"/>
        <pt x="288" y="352" on="1"/>
        <pt x="412" y="355" on="0"/>
        <pt x="444" y="456" on="1"/>
        <pt x="450" y="476" on="0"/>
        <pt x="450" y="511" on="0"/>
        <pt x="450" y="516" on="1"/>
        <pt x="448" y="583" on="0"/>
        <pt x="382" y="665" on="0"/>
        <pt x="326" y="668" on="1"/>
        <pt x="302" y="669" on="0"/>
      </contour>
    </TTGlyph>
    <TTGlyph name="Racute" xMin="60" yMin="-1" xMax="688" yMax="902">
      <contour>
        <pt x="324" y="764" on="1"/>
        <pt x="317" y="771" on="1"/>
        <pt x="393" y="853" on="0"/>
        <pt x="443" y="902" on="1"/>
        <pt x="470" y="875" on="0"/>
        <pt x="484" y="849" on="1"/>
        <pt x="420" y="812" on="0"/>
      </contour>
      <contour>
        <pt x="266" y="669" on="1"/>
        <pt x="202" y="669" on="1"/>
        <pt x="202" y="73" on="1"/>
        <pt x="202" y="47" on="0"/>
        <pt x="239" y="10" on="0"/>
        <pt x="266" y="10" on="1"/>
        <pt x="278" y="10" on="1"/>
        <pt x="279" y="0" on="1"/>
        <pt x="60" y="0" on="1"/>
        <pt x="60" y="10" on="1"/>
        <pt x="73" y="10" on="1"/>
        <pt x="99" y="10" on="0"/>
        <pt x="136" y="46" on="0"/>
        <pt x="137" y="72" on="1"/>
        <pt x="137" y="627" on="1"/>
        <pt x="136" y="653" on="0"/>
        <pt x="99" y="690" on="0"/>
        <pt x="73" y="690" on="1"/>
        <pt x="60" y="690" on="1"/>
        <pt x="60" y="700" on="1"/>
        <pt x="330" y="700" on="1"/>
        <pt x="421" y="700" on="0"/>
        <pt x="525" y="599" on="0"/>
        <pt x="525" y="438" on="0"/>
        <pt x="426" y="321" on="0"/>
        <pt x="355" y="321" on="1"/>
        <pt x="370" y="314" on="0"/>
        <pt x="411" y="273" on="0"/>
        <pt x="427" y="251" on="1"/>
        <pt x="513" y="128" on="0"/>
        <pt x="569" y="67" on="0"/>
        <pt x="596" y="43" on="0"/>
        <pt x="612" y="32" on="1"/>
        <pt x="645" y="10" on="0"/>
        <pt x="688" y="10" on="1"/>
        <pt x="688" y="0" on="1"/>
        <pt x="633" y="0" on="1"/>
        <pt x="590" y="0" on="0"/>
        <pt x="516" y="31" on="0"/>
        <pt x="479" y="64" on="0"/>
        <pt x="452" y="95" on="0"/>
        <pt x="330" y="271" on="0"/>
        <pt x="310" y="296" on="0"/>
        <pt x="299" y="308" on="1"/>
        <pt x="267" y="342" on="0"/>
        <pt x="235" y="342" on="1"/>
        <pt x="235" y="352" on="1"/>
        <pt x="243" y="351" on="0"/>
        <pt x="269" y="351" on="0"/>
        <pt x="288" y="352" on="1"/>
        <pt x="412" y="355" on="0"/>
        <pt x="444" y="456" on="1"/>
        <pt x="450" y="476" on="0"/>
        <pt x="450" y="511" on="0"/>
        <pt x="450" y="516" on="1"/>
        <pt x="448" y="583" on="0"/>
        <pt x="382" y="665" on="0"/>
        <pt x="326" y="668" on="1"/>
        <pt x="302" y="669" on="0"/>
      </contour>
    </TTGlyph>
    <TTGlyph name="Rcaron" xMin="59" yMin="-1" xMax="688" yMax="891">
      <contour>
        <pt x="329" y="764" on="1"/>
        <pt x="319" y="764" on="1"/>
        <pt x="204" y="883" on="1"/>
        <pt x="210" y="891" on="1"/>
        <pt x="324" y="825" on="1"/>
        <pt x="429" y="891" on="1"/>
        <pt x="435" y="883" on="1"/>
      </contour>
      <contour>
        <pt x="266" y="669" on="1"/>
        <pt x="202" y="669" on="1"/>
        <pt x="202" y="73" on="1"/>
        <pt x="202" y="47" on="0"/>
        <pt x="239" y="10" on="0"/>
        <pt x="266" y="10" on="1"/>
        <pt x="278" y="10" on="1"/>
        <pt x="278" y="0" on="1"/>
        <pt x="60" y="0" on="1"/>
        <pt x="60" y="10" on="1"/>
        <pt x="73" y="10" on="1"/>
        <pt x="99" y="10" on="0"/>
        <pt x="136" y="46" on="0"/>
        <pt x="137" y="72" on="1"/>
        <pt x="137" y="627" on="1"/>
        <pt x="136" y="653" on="0"/>
        <pt x="99" y="690" on="0"/>
        <pt x="73" y="690" on="1"/>
        <pt x="60" y="690" on="1"/>
        <pt x="60" y="700" on="1"/>
        <pt x="330" y="700" on="1"/>
        <pt x="421" y="700" on="0"/>
        <pt x="525" y="599" on="0"/>
        <pt x="525" y="438" on="0"/>
        <pt x="426" y="321" on="0"/>
        <pt x="355" y="321" on="1"/>
        <pt x="370" y="314" on="0"/>
        <pt x="411" y="273" on="0"/>
        <pt x="427" y="251" on="1"/>
        <pt x="513" y="128" on="0"/>
        <pt x="586" y="48" on="0"/>
        <pt x="647" y="10" on="0"/>
        <pt x="688" y="10" on="1"/>
        <pt x="688" y="0" on="1"/>
        <pt x="633" y="0" on="1"/>
        <pt x="590" y="0" on="0"/>
        <pt x="516" y="31" on="0"/>
        <pt x="479" y="64" on="0"/>
        <pt x="452" y="95" on="0"/>
        <pt x="330" y="271" on="0"/>
        <pt x="310" y="296" on="0"/>
        <pt x="299" y="308" on="1"/>
        <pt x="267" y="342" on="0"/>
        <pt x="235" y="342" on="1"/>
        <pt x="235" y="352" on="1"/>
        <pt x="243" y="351" on="0"/>
        <pt x="269" y="351" on="0"/>
        <pt x="288" y="352" on="1"/>
        <pt x="412" y="355" on="0"/>
        <pt x="444" y="456" on="1"/>
        <pt x="450" y="476" on="0"/>
        <pt x="450" y="511" on="0"/>
        <pt x="450" y="516" on="1"/>
        <pt x="448" y="583" on="0"/>
        <pt x="382" y="665" on="0"/>
        <pt x="326" y="668" on="1"/>
        <pt x="302" y="669" on="0"/>
      </contour>
    </TTGlyph>
    <TTGlyph name="Rcommaaccent" xMin="60" yMin="-194" xMax="688" yMax="701">
      <contour>
        <pt x="266" y="669" on="1"/>
        <pt x="202" y="669" on="1"/>
        <pt x="202" y="73" on="1"/>
        <pt x="202" y="47" on="0"/>
        <pt x="239" y="10" on="0"/>
        <pt x="266" y="10" on="1"/>
        <pt x="278" y="10" on="1"/>
        <pt x="279" y="0" on="1"/>
        <pt x="60" y="0" on="1"/>
        <pt x="60" y="10" on="1"/>
        <pt x="73" y="10" on="1"/>
        <pt x="99" y="10" on="0"/>
        <pt x="136" y="46" on="0"/>
        <pt x="137" y="72" on="1"/>
        <pt x="137" y="627" on="1"/>
        <pt x="136" y="653" on="0"/>
        <pt x="99" y="690" on="0"/>
        <pt x="73" y="690" on="1"/>
        <pt x="60" y="690" on="1"/>
        <pt x="60" y="700" on="1"/>
        <pt x="330" y="700" on="1"/>
        <pt x="421" y="700" on="0"/>
        <pt x="525" y="599" on="0"/>
        <pt x="525" y="438" on="0"/>
        <pt x="426" y="321" on="0"/>
        <pt x="355" y="321" on="1"/>
        <pt x="370" y="314" on="0"/>
        <pt x="411" y="273" on="0"/>
        <pt x="427" y="251" on="1"/>
        <pt x="513" y="128" on="0"/>
        <pt x="565" y="71" on="0"/>
        <pt x="587" y="50" on="0"/>
        <pt x="613" y="30" on="0"/>
        <pt x="626" y="24" on="1"/>
        <pt x="655" y="10" on="0"/>
        <pt x="688" y="10" on="1"/>
        <pt x="688" y="0" on="1"/>
        <pt x="633" y="0" on="1"/>
        <pt x="590" y="0" on="0"/>
        <pt x="516" y="31" on="0"/>
        <pt x="479" y="64" on="0"/>
        <pt x="452" y="95" on="0"/>
        <pt x="330" y="271" on="0"/>
        <pt x="310" y="296" on="0"/>
        <pt x="299" y="308" on="1"/>
        <pt x="267" y="342" on="0"/>
        <pt x="235" y="342" on="1"/>
        <pt x="235" y="352" on="1"/>
        <pt x="243" y="351" on="0"/>
        <pt x="269" y="351" on="0"/>
        <pt x="288" y="352" on="1"/>
        <pt x="412" y="355" on="0"/>
        <pt x="444" y="456" on="1"/>
        <pt x="450" y="476" on="0"/>
        <pt x="450" y="511" on="0"/>
        <pt x="450" y="516" on="1"/>
        <pt x="448" y="583" on="0"/>
        <pt x="382" y="665" on="0"/>
        <pt x="326" y="668" on="1"/>
        <pt x="302" y="669" on="0"/>
      </contour>
      <contour>
        <pt x="350" y="-67" on="1"/>
        <pt x="358" y="-50" on="0"/>
        <pt x="379" y="-50" on="1"/>
        <pt x="403" y="-50" on="0"/>
        <pt x="421" y="-95" on="0"/>
        <pt x="421" y="-136" on="0"/>
        <pt x="408" y="-156" on="1"/>
        <pt x="385" y="-192" on="0"/>
        <pt x="344" y="-194" on="1"/>
        <pt x="342" y="-187" on="1"/>
        <pt x="364" y="-180" on="0"/>
        <pt x="373" y="-165" on="1"/>
        <pt x="389" y="-138" on="0"/>
        <pt x="369" y="-114" on="1"/>
        <pt x="367" y="-112" on="0"/>
        <pt x="359" y="-103" on="0"/>
        <pt x="355" y="-98" on="0"/>
        <pt x="350" y="-89" on="0"/>
        <pt x="349" y="-85" on="1"/>
        <pt x="346" y="-76" on="0"/>
      </contour>
    </TTGlyph>
    <TTGlyph name="S" xMin="57" yMin="-15" xMax="419" yMax="715">
      <contour>
        <pt x="61" y="41" on="1"/>
        <pt x="58" y="55" on="0"/>
        <pt x="58" y="135" on="0"/>
        <pt x="73" y="180" on="1"/>
        <pt x="82" y="180" on="1"/>
        <pt x="81" y="169" on="0"/>
        <pt x="81" y="158" on="1"/>
        <pt x="81" y="97" on="0"/>
        <pt x="155" y="16" on="0"/>
        <pt x="216" y="16" on="1"/>
        <pt x="279" y="16" on="0"/>
        <pt x="360" y="92" on="0"/>
        <pt x="360" y="207" on="0"/>
        <pt x="321" y="243" on="1"/>
        <pt x="129" y="421" on="1"/>
        <pt x="75" y="471" on="0"/>
        <pt x="75" y="613" on="0"/>
        <pt x="170" y="714" on="0"/>
        <pt x="251" y="714" on="1"/>
        <pt x="289" y="714" on="0"/>
        <pt x="337" y="704" on="1"/>
        <pt x="376" y="704" on="1"/>
        <pt x="376" y="581" on="1"/>
        <pt x="367" y="581" on="1"/>
        <pt x="367" y="628" on="0"/>
        <pt x="302" y="684" on="0"/>
        <pt x="200" y="684" on="0"/>
        <pt x="131" y="616" on="0"/>
        <pt x="131" y="514" on="0"/>
        <pt x="171" y="477" on="1"/>
        <pt x="368" y="295" on="1"/>
        <pt x="418" y="249" on="0"/>
        <pt x="418" y="89" on="0"/>
        <pt x="316" y="-14" on="0"/>
        <pt x="231" y="-14" on="1"/>
        <pt x="187" y="-14" on="0"/>
        <pt x="88" y="13" on="0"/>
      </contour>
    </TTGlyph>
    <TTGlyph name="Sacute" xMin="57" yMin="-14" xMax="419" yMax="902">
      <contour>
        <pt x="239" y="764" on="1"/>
        <pt x="232" y="771" on="1"/>
        <pt x="309" y="853" on="0"/>
        <pt x="359" y="902" on="1"/>
        <pt x="386" y="875" on="0"/>
        <pt x="400" y="849" on="1"/>
        <pt x="336" y="812" on="0"/>
      </contour>
      <contour>
        <pt x="61" y="41" on="1"/>
        <pt x="58" y="55" on="0"/>
        <pt x="58" y="135" on="0"/>
        <pt x="73" y="180" on="1"/>
        <pt x="82" y="180" on="1"/>
        <pt x="81" y="169" on="0"/>
        <pt x="81" y="158" on="1"/>
        <pt x="81" y="97" on="0"/>
        <pt x="155" y="16" on="0"/>
        <pt x="216" y="16" on="1"/>
        <pt x="279" y="16" on="0"/>
        <pt x="360" y="92" on="0"/>
        <pt x="360" y="207" on="0"/>
        <pt x="321" y="243" on="1"/>
        <pt x="129" y="421" on="1"/>
        <pt x="75" y="471" on="0"/>
        <pt x="75" y="613" on="0"/>
        <pt x="170" y="714" on="0"/>
        <pt x="251" y="714" on="1"/>
        <pt x="289" y="714" on="0"/>
        <pt x="337" y="704" on="1"/>
        <pt x="376" y="704" on="1"/>
        <pt x="376" y="581" on="1"/>
        <pt x="367" y="581" on="1"/>
        <pt x="367" y="628" on="0"/>
        <pt x="302" y="684" on="0"/>
        <pt x="200" y="684" on="0"/>
        <pt x="131" y="616" on="0"/>
        <pt x="131" y="514" on="0"/>
        <pt x="171" y="477" on="1"/>
        <pt x="368" y="295" on="1"/>
        <pt x="418" y="249" on="0"/>
        <pt x="418" y="89" on="0"/>
        <pt x="316" y="-14" on="0"/>
        <pt x="231" y="-14" on="1"/>
        <pt x="187" y="-14" on="0"/>
        <pt x="88" y="13" on="0"/>
      </contour>
    </TTGlyph>
    <TTGlyph name="Scaron" xMin="57" yMin="-15" xMax="418" yMax="891">
      <contour>
        <pt x="244" y="764" on="1"/>
        <pt x="234" y="764" on="1"/>
        <pt x="120" y="883" on="1"/>
        <pt x="126" y="891" on="1"/>
        <pt x="240" y="825" on="1"/>
        <pt x="344" y="891" on="1"/>
        <pt x="350" y="883" on="1"/>
      </contour>
      <contour>
        <pt x="61" y="41" on="1"/>
        <pt x="58" y="55" on="0"/>
        <pt x="58" y="135" on="0"/>
        <pt x="73" y="180" on="1"/>
        <pt x="82" y="180" on="1"/>
        <pt x="81" y="169" on="0"/>
        <pt x="81" y="158" on="1"/>
        <pt x="81" y="97" on="0"/>
        <pt x="155" y="16" on="0"/>
        <pt x="216" y="16" on="1"/>
        <pt x="279" y="16" on="0"/>
        <pt x="360" y="92" on="0"/>
        <pt x="360" y="207" on="0"/>
        <pt x="321" y="243" on="1"/>
        <pt x="129" y="421" on="1"/>
        <pt x="75" y="471" on="0"/>
        <pt x="75" y="613" on="0"/>
        <pt x="170" y="714" on="0"/>
        <pt x="251" y="714" on="1"/>
        <pt x="289" y="714" on="0"/>
        <pt x="337" y="704" on="1"/>
        <pt x="376" y="704" on="1"/>
        <pt x="376" y="581" on="1"/>
        <pt x="366" y="581" on="1"/>
        <pt x="367" y="628" on="0"/>
        <pt x="302" y="684" on="0"/>
        <pt x="200" y="684" on="0"/>
        <pt x="131" y="616" on="0"/>
        <pt x="131" y="514" on="0"/>
        <pt x="171" y="477" on="1"/>
        <pt x="368" y="295" on="1"/>
        <pt x="418" y="249" on="0"/>
        <pt x="418" y="89" on="0"/>
        <pt x="316" y="-14" on="0"/>
        <pt x="231" y="-14" on="1"/>
        <pt x="187" y="-14" on="0"/>
        <pt x="88" y="13" on="0"/>
      </contour>
    </TTGlyph>
    <TTGlyph name="Scedilla" xMin="57" yMin="-199" xMax="419" yMax="715">
      <contour>
        <pt x="61" y="41" on="1"/>
        <pt x="58" y="55" on="0"/>
        <pt x="58" y="135" on="0"/>
        <pt x="73" y="180" on="1"/>
        <pt x="82" y="180" on="1"/>
        <pt x="81" y="169" on="0"/>
        <pt x="81" y="158" on="1"/>
        <pt x="81" y="97" on="0"/>
        <pt x="155" y="16" on="0"/>
        <pt x="216" y="16" on="1"/>
        <pt x="279" y="16" on="0"/>
        <pt x="360" y="92" on="0"/>
        <pt x="360" y="207" on="0"/>
        <pt x="321" y="243" on="1"/>
        <pt x="129" y="421" on="1"/>
        <pt x="75" y="471" on="0"/>
        <pt x="75" y="613" on="0"/>
        <pt x="170" y="714" on="0"/>
        <pt x="251" y="714" on="1"/>
        <pt x="289" y="714" on="0"/>
        <pt x="337" y="704" on="1"/>
        <pt x="376" y="704" on="1"/>
        <pt x="376" y="581" on="1"/>
        <pt x="367" y="581" on="1"/>
        <pt x="367" y="628" on="0"/>
        <pt x="302" y="684" on="0"/>
        <pt x="200" y="684" on="0"/>
        <pt x="131" y="616" on="0"/>
        <pt x="131" y="514" on="0"/>
        <pt x="171" y="477" on="1"/>
        <pt x="368" y="295" on="1"/>
        <pt x="418" y="249" on="0"/>
        <pt x="418" y="95" on="0"/>
        <pt x="329" y="-6" on="0"/>
        <pt x="253" y="-13" on="1"/>
        <pt x="212" y="-60" on="1"/>
        <pt x="228" y="-54" on="0"/>
        <pt x="245" y="-54" on="1"/>
        <pt x="287" y="-54" on="0"/>
        <pt x="317" y="-95" on="0"/>
        <pt x="317" y="-121" on="1"/>
        <pt x="317" y="-165" on="0"/>
        <pt x="273" y="-186" on="1"/>
        <pt x="247" y="-198" on="0"/>
        <pt x="198" y="-198" on="0"/>
        <pt x="176" y="-191" on="1"/>
        <pt x="177" y="-181" on="1"/>
        <pt x="213" y="-181" on="0"/>
        <pt x="267" y="-151" on="0"/>
        <pt x="267" y="-120" on="1"/>
        <pt x="267" y="-76" on="0"/>
        <pt x="216" y="-76" on="1"/>
        <pt x="199" y="-76" on="0"/>
        <pt x="183" y="-84" on="1"/>
        <pt x="178" y="-74" on="1"/>
        <pt x="225" y="-14" on="1"/>
        <pt x="181" y="-13" on="0"/>
        <pt x="87" y="14" on="0"/>
      </contour>
    </TTGlyph>
    <TTGlyph name="Scommaaccent" xMin="57" yMin="-208" xMax="416" yMax="714">
      <contour>
        <pt x="365" y="294" on="1"/>
        <pt x="416" y="243" on="0"/>
        <pt x="416" y="90" on="0"/>
        <pt x="316" y="-13" on="0"/>
        <pt x="234" y="-14" on="1"/>
        <pt x="182" y="-14" on="0"/>
        <pt x="86" y="14" on="0"/>
        <pt x="60" y="41" on="1"/>
        <pt x="58" y="59" on="0"/>
        <pt x="58" y="119" on="0"/>
        <pt x="69" y="160" on="1"/>
        <pt x="78" y="160" on="1"/>
        <pt x="78" y="117" on="0"/>
        <pt x="97" y="85" on="1"/>
        <pt x="138" y="16" on="0"/>
        <pt x="234" y="16" on="1"/>
        <pt x="310" y="20" on="0"/>
        <pt x="343" y="82" on="1"/>
        <pt x="358" y="111" on="0"/>
        <pt x="358" y="149" on="1"/>
        <pt x="358" y="206" on="0"/>
        <pt x="320" y="244" on="1"/>
        <pt x="129" y="422" on="1"/>
        <pt x="74" y="477" on="0"/>
        <pt x="74" y="614" on="0"/>
        <pt x="171" y="714" on="0"/>
        <pt x="299" y="714" on="0"/>
        <pt x="339" y="704" on="1"/>
        <pt x="374" y="704" on="1"/>
        <pt x="374" y="596" on="1"/>
        <pt x="365" y="596" on="1"/>
        <pt x="365" y="620" on="0"/>
        <pt x="337" y="649" on="1"/>
        <pt x="329" y="658" on="0"/>
        <pt x="318" y="665" on="1"/>
        <pt x="293" y="684" on="0"/>
        <pt x="212" y="684" on="0"/>
        <pt x="159" y="652" on="0"/>
        <pt x="129" y="600" on="0"/>
        <pt x="129" y="570" on="1"/>
        <pt x="129" y="515" on="0"/>
        <pt x="169" y="476" on="1"/>
      </contour>
      <contour>
        <pt x="259" y="-63" on="0"/>
        <pt x="277" y="-108" on="0"/>
        <pt x="277" y="-123" on="1"/>
        <pt x="277" y="-165" on="0"/>
        <pt x="226" y="-207" on="0"/>
        <pt x="200" y="-207" on="1"/>
        <pt x="198" y="-201" on="1"/>
        <pt x="221" y="-194" on="0"/>
        <pt x="230" y="-179" on="1"/>
        <pt x="246" y="-150" on="0"/>
        <pt x="220" y="-121" on="1"/>
        <pt x="207" y="-107" on="0"/>
        <pt x="206" y="-101" on="1"/>
        <pt x="203" y="-89" on="0"/>
        <pt x="207" y="-80" on="1"/>
        <pt x="214" y="-63" on="0"/>
      </contour>
    </TTGlyph>
    <TTGlyph name="T" xMin="20" yMin="-1" xMax="599" yMax="720">
      <contour>
        <pt x="589" y="611" on="1"/>
        <pt x="589" y="635" on="0"/>
        <pt x="555" y="670" on="0"/>
        <pt x="532" y="671" on="1"/>
        <pt x="342" y="671" on="1"/>
        <pt x="342" y="72" on="1"/>
        <pt x="343" y="46" on="0"/>
        <pt x="380" y="10" on="0"/>
        <pt x="406" y="10" on="1"/>
        <pt x="419" y="10" on="1"/>
        <pt x="419" y="0" on="1"/>
        <pt x="200" y="0" on="1"/>
        <pt x="200" y="10" on="1"/>
        <pt x="213" y="10" on="1"/>
        <pt x="239" y="10" on="0"/>
        <pt x="276" y="46" on="0"/>
        <pt x="277" y="71" on="1"/>
        <pt x="277" y="671" on="1"/>
        <pt x="87" y="671" on="1"/>
        <pt x="63" y="670" on="0"/>
        <pt x="30" y="635" on="0"/>
        <pt x="30" y="611" on="1"/>
        <pt x="30" y="594" on="1"/>
        <pt x="20" y="593" on="1"/>
        <pt x="20" y="719" on="1"/>
        <pt x="35" y="713" on="0"/>
        <pt x="109" y="701" on="0"/>
        <pt x="140" y="701" on="1"/>
        <pt x="478" y="701" on="1"/>
        <pt x="527" y="701" on="0"/>
        <pt x="592" y="716" on="0"/>
        <pt x="599" y="719" on="1"/>
        <pt x="599" y="593" on="1"/>
        <pt x="589" y="594" on="1"/>
      </contour>
    </TTGlyph>
    <TTGlyph name="Tbar" xMin="20" yMin="-1" xMax="599" yMax="720">
      <contour>
        <pt x="589" y="611" on="1"/>
        <pt x="589" y="645" on="0"/>
        <pt x="560" y="662" on="1"/>
        <pt x="547" y="670" on="0"/>
        <pt x="532" y="671" on="1"/>
        <pt x="342" y="671" on="1"/>
        <pt x="342" y="401" on="1"/>
        <pt x="504" y="401" on="1"/>
        <pt x="504" y="371" on="1"/>
        <pt x="342" y="371" on="1"/>
        <pt x="342" y="72" on="1"/>
        <pt x="343" y="46" on="0"/>
        <pt x="380" y="10" on="0"/>
        <pt x="406" y="10" on="1"/>
        <pt x="419" y="10" on="1"/>
        <pt x="419" y="0" on="1"/>
        <pt x="200" y="0" on="1"/>
        <pt x="200" y="10" on="1"/>
        <pt x="213" y="10" on="1"/>
        <pt x="239" y="10" on="0"/>
        <pt x="276" y="46" on="0"/>
        <pt x="277" y="71" on="1"/>
        <pt x="277" y="371" on="1"/>
        <pt x="116" y="371" on="1"/>
        <pt x="116" y="401" on="1"/>
        <pt x="277" y="401" on="1"/>
        <pt x="277" y="671" on="1"/>
        <pt x="87" y="671" on="1"/>
        <pt x="63" y="670" on="0"/>
        <pt x="30" y="635" on="0"/>
        <pt x="30" y="611" on="1"/>
        <pt x="30" y="594" on="1"/>
        <pt x="20" y="593" on="1"/>
        <pt x="20" y="719" on="1"/>
        <pt x="35" y="713" on="0"/>
        <pt x="109" y="701" on="0"/>
        <pt x="140" y="701" on="1"/>
        <pt x="478" y="701" on="1"/>
        <pt x="509" y="701" on="0"/>
        <pt x="584" y="713" on="0"/>
        <pt x="599" y="719" on="1"/>
        <pt x="599" y="593" on="1"/>
        <pt x="589" y="594" on="1"/>
      </contour>
    </TTGlyph>
    <TTGlyph name="Tcaron" xMin="19" yMin="-1" xMax="599" yMax="891">
      <contour>
        <pt x="314" y="764" on="1"/>
        <pt x="304" y="764" on="1"/>
        <pt x="190" y="883" on="1"/>
        <pt x="196" y="891" on="1"/>
        <pt x="309" y="825" on="1"/>
        <pt x="414" y="891" on="1"/>
        <pt x="420" y="883" on="1"/>
      </contour>
      <contour>
        <pt x="589" y="611" on="1"/>
        <pt x="589" y="645" on="0"/>
        <pt x="560" y="662" on="1"/>
        <pt x="547" y="670" on="0"/>
        <pt x="532" y="671" on="1"/>
        <pt x="342" y="671" on="1"/>
        <pt x="342" y="72" on="1"/>
        <pt x="343" y="36" on="0"/>
        <pt x="374" y="18" on="1"/>
        <pt x="389" y="10" on="0"/>
        <pt x="406" y="10" on="1"/>
        <pt x="419" y="10" on="1"/>
        <pt x="419" y="0" on="1"/>
        <pt x="200" y="0" on="1"/>
        <pt x="200" y="10" on="1"/>
        <pt x="213" y="10" on="1"/>
        <pt x="239" y="10" on="0"/>
        <pt x="276" y="46" on="0"/>
        <pt x="277" y="71" on="1"/>
        <pt x="277" y="671" on="1"/>
        <pt x="87" y="671" on="1"/>
        <pt x="63" y="670" on="0"/>
        <pt x="30" y="635" on="0"/>
        <pt x="30" y="611" on="1"/>
        <pt x="30" y="594" on="1"/>
        <pt x="20" y="593" on="1"/>
        <pt x="20" y="719" on="1"/>
        <pt x="35" y="713" on="0"/>
        <pt x="109" y="701" on="0"/>
        <pt x="140" y="701" on="1"/>
        <pt x="478" y="701" on="1"/>
        <pt x="509" y="701" on="0"/>
        <pt x="584" y="713" on="0"/>
        <pt x="599" y="719" on="1"/>
        <pt x="599" y="593" on="1"/>
        <pt x="589" y="594" on="1"/>
      </contour>
    </TTGlyph>
    <TTGlyph name="Tcedilla" xMin="20" yMin="-187" xMax="599" yMax="720">
      <contour>
        <pt x="340" y="-108" on="1"/>
        <pt x="340" y="-64" on="0"/>
        <pt x="289" y="-64" on="1"/>
        <pt x="273" y="-64" on="0"/>
        <pt x="256" y="-72" on="1"/>
        <pt x="251" y="-62" on="1"/>
        <pt x="299" y="0" on="1"/>
        <pt x="200" y="0" on="1"/>
        <pt x="200" y="10" on="1"/>
        <pt x="213" y="10" on="1"/>
        <pt x="239" y="10" on="0"/>
        <pt x="276" y="46" on="0"/>
        <pt x="277" y="71" on="1"/>
        <pt x="277" y="671" on="1"/>
        <pt x="87" y="671" on="1"/>
        <pt x="63" y="670" on="0"/>
        <pt x="30" y="635" on="0"/>
        <pt x="30" y="611" on="1"/>
        <pt x="30" y="594" on="1"/>
        <pt x="20" y="593" on="1"/>
        <pt x="20" y="719" on="1"/>
        <pt x="35" y="713" on="0"/>
        <pt x="109" y="701" on="0"/>
        <pt x="140" y="701" on="1"/>
        <pt x="478" y="701" on="1"/>
        <pt x="522" y="701" on="0"/>
        <pt x="589" y="715" on="0"/>
        <pt x="599" y="719" on="1"/>
        <pt x="599" y="593" on="1"/>
        <pt x="589" y="594" on="1"/>
        <pt x="589" y="611" on="1"/>
        <pt x="589" y="645" on="0"/>
        <pt x="560" y="662" on="1"/>
        <pt x="547" y="670" on="0"/>
        <pt x="532" y="671" on="1"/>
        <pt x="342" y="671" on="1"/>
        <pt x="342" y="72" on="1"/>
        <pt x="343" y="46" on="0"/>
        <pt x="380" y="10" on="0"/>
        <pt x="406" y="10" on="1"/>
        <pt x="419" y="10" on="1"/>
        <pt x="419" y="0" on="1"/>
        <pt x="326" y="0" on="1"/>
        <pt x="285" y="-48" on="1"/>
        <pt x="301" y="-42" on="0"/>
        <pt x="318" y="-42" on="1"/>
        <pt x="360" y="-42" on="0"/>
        <pt x="390" y="-83" on="0"/>
        <pt x="390" y="-109" on="1"/>
        <pt x="390" y="-153" on="0"/>
        <pt x="346" y="-174" on="1"/>
        <pt x="321" y="-186" on="0"/>
        <pt x="272" y="-186" on="0"/>
        <pt x="249" y="-179" on="1"/>
        <pt x="250" y="-169" on="1"/>
        <pt x="286" y="-169" on="0"/>
        <pt x="340" y="-139" on="0"/>
      </contour>
    </TTGlyph>
    <TTGlyph name="Thorn" xMin="42" yMin="-1" xMax="505" yMax="701">
      <contour>
        <pt x="505" y="399" on="0"/>
        <pt x="505" y="310" on="0"/>
        <pt x="487" y="273" on="1"/>
        <pt x="455" y="202" on="0"/>
        <pt x="374" y="174" on="1"/>
        <pt x="345" y="164" on="0"/>
        <pt x="325" y="164" on="1"/>
        <pt x="263" y="164" on="0"/>
        <pt x="219" y="187" on="1"/>
        <pt x="219" y="197" on="1"/>
        <pt x="291" y="181" on="0"/>
        <pt x="354" y="213" on="1"/>
        <pt x="408" y="240" on="0"/>
        <pt x="428" y="305" on="1"/>
        <pt x="435" y="325" on="0"/>
        <pt x="435" y="360" on="0"/>
        <pt x="435" y="365" on="1"/>
        <pt x="433" y="435" on="0"/>
        <pt x="363" y="518" on="0"/>
        <pt x="300" y="518" on="1"/>
        <pt x="185" y="518" on="1"/>
        <pt x="185" y="73" on="1"/>
        <pt x="185" y="36" on="0"/>
        <pt x="217" y="18" on="1"/>
        <pt x="231" y="10" on="0"/>
        <pt x="249" y="10" on="1"/>
        <pt x="261" y="10" on="1"/>
        <pt x="261" y="0" on="1"/>
        <pt x="43" y="0" on="1"/>
        <pt x="43" y="10" on="1"/>
        <pt x="55" y="10" on="1"/>
        <pt x="82" y="10" on="0"/>
        <pt x="119" y="47" on="0"/>
        <pt x="120" y="73" on="1"/>
        <pt x="120" y="628" on="1"/>
        <pt x="119" y="654" on="0"/>
        <pt x="82" y="690" on="0"/>
        <pt x="56" y="690" on="1"/>
        <pt x="43" y="690" on="1"/>
        <pt x="43" y="700" on="1"/>
        <pt x="261" y="700" on="1"/>
        <pt x="261" y="690" on="1"/>
        <pt x="249" y="690" on="1"/>
        <pt x="223" y="690" on="0"/>
        <pt x="185" y="654" on="0"/>
        <pt x="185" y="628" on="1"/>
        <pt x="185" y="548" on="1"/>
        <pt x="304" y="548" on="1"/>
        <pt x="451" y="548" on="0"/>
        <pt x="492" y="435" on="1"/>
      </contour>
    </TTGlyph>
    <TTGlyph name="U" xMin="49" yMin="-15" xMax="736" yMax="701">
      <contour>
        <pt x="735" y="690" on="1"/>
        <pt x="719" y="690" on="1"/>
        <pt x="698" y="690" on="0"/>
        <pt x="667" y="663" on="0"/>
        <pt x="666" y="643" on="1"/>
        <pt x="666" y="247" on="1"/>
        <pt x="666" y="130" on="0"/>
        <pt x="518" y="-14" on="0"/>
        <pt x="272" y="-14" on="0"/>
        <pt x="119" y="129" on="0"/>
        <pt x="119" y="246" on="1"/>
        <pt x="119" y="640" on="1"/>
        <pt x="119" y="670" on="0"/>
        <pt x="93" y="684" on="1"/>
        <pt x="81" y="690" on="0"/>
        <pt x="66" y="690" on="1"/>
        <pt x="50" y="690" on="1"/>
        <pt x="50" y="700" on="1"/>
        <pt x="253" y="700" on="1"/>
        <pt x="253" y="690" on="1"/>
        <pt x="237" y="690" on="1"/>
        <pt x="215" y="690" on="0"/>
        <pt x="185" y="663" on="0"/>
        <pt x="184" y="642" on="1"/>
        <pt x="184" y="260" on="1"/>
        <pt x="184" y="151" on="0"/>
        <pt x="301" y="17" on="0"/>
        <pt x="497" y="17" on="0"/>
        <pt x="619" y="144" on="0"/>
        <pt x="619" y="247" on="1"/>
        <pt x="619" y="642" on="1"/>
        <pt x="618" y="663" on="0"/>
        <pt x="588" y="690" on="0"/>
        <pt x="566" y="690" on="1"/>
        <pt x="550" y="690" on="1"/>
        <pt x="550" y="700" on="1"/>
        <pt x="735" y="700" on="1"/>
      </contour>
    </TTGlyph>
    <TTGlyph name="Uacute" xMin="50" yMin="-14" xMax="736" yMax="902">
      <contour>
        <pt x="402" y="764" on="1"/>
        <pt x="395" y="771" on="1"/>
        <pt x="471" y="853" on="0"/>
        <pt x="522" y="902" on="1"/>
        <pt x="548" y="875" on="0"/>
        <pt x="562" y="849" on="1"/>
        <pt x="498" y="812" on="0"/>
      </contour>
      <contour>
        <pt x="735" y="690" on="1"/>
        <pt x="719" y="690" on="1"/>
        <pt x="698" y="690" on="0"/>
        <pt x="667" y="663" on="0"/>
        <pt x="666" y="643" on="1"/>
        <pt x="666" y="247" on="1"/>
        <pt x="666" y="130" on="0"/>
        <pt x="518" y="-14" on="0"/>
        <pt x="272" y="-14" on="0"/>
        <pt x="119" y="129" on="0"/>
        <pt x="119" y="246" on="1"/>
        <pt x="119" y="641" on="1"/>
        <pt x="119" y="662" on="0"/>
        <pt x="88" y="690" on="0"/>
        <pt x="66" y="690" on="1"/>
        <pt x="50" y="690" on="1"/>
        <pt x="50" y="700" on="1"/>
        <pt x="253" y="700" on="1"/>
        <pt x="253" y="690" on="1"/>
        <pt x="237" y="690" on="1"/>
        <pt x="207" y="690" on="0"/>
        <pt x="192" y="667" on="1"/>
        <pt x="185" y="656" on="0"/>
        <pt x="184" y="642" on="1"/>
        <pt x="184" y="260" on="1"/>
        <pt x="184" y="151" on="0"/>
        <pt x="301" y="17" on="0"/>
        <pt x="396" y="17" on="1"/>
        <pt x="497" y="17" on="0"/>
        <pt x="619" y="144" on="0"/>
        <pt x="619" y="247" on="1"/>
        <pt x="619" y="642" on="1"/>
        <pt x="618" y="675" on="0"/>
        <pt x="587" y="686" on="1"/>
        <pt x="577" y="690" on="0"/>
        <pt x="566" y="690" on="1"/>
        <pt x="550" y="690" on="1"/>
        <pt x="550" y="700" on="1"/>
        <pt x="735" y="700" on="1"/>
      </contour>
    </TTGlyph>
    <TTGlyph name="Ucircumflex" xMin="50" yMin="-14" xMax="736" yMax="890">
      <contour>
        <pt x="396" y="890" on="1"/>
        <pt x="406" y="890" on="1"/>
        <pt x="521" y="771" on="1"/>
        <pt x="515" y="763" on="1"/>
        <pt x="401" y="829" on="1"/>
        <pt x="296" y="763" on="1"/>
        <pt x="290" y="771" on="1"/>
      </contour>
      <contour>
        <pt x="735" y="690" on="1"/>
        <pt x="719" y="690" on="1"/>
        <pt x="698" y="690" on="0"/>
        <pt x="667" y="663" on="0"/>
        <pt x="666" y="643" on="1"/>
        <pt x="666" y="247" on="1"/>
        <pt x="666" y="130" on="0"/>
        <pt x="518" y="-14" on="0"/>
        <pt x="272" y="-14" on="0"/>
        <pt x="119" y="129" on="0"/>
        <pt x="119" y="246" on="1"/>
        <pt x="119" y="640" on="1"/>
        <pt x="119" y="662" on="0"/>
        <pt x="88" y="690" on="0"/>
        <pt x="66" y="690" on="1"/>
        <pt x="50" y="690" on="1"/>
        <pt x="50" y="700" on="1"/>
        <pt x="253" y="700" on="1"/>
        <pt x="253" y="690" on="1"/>
        <pt x="237" y="690" on="1"/>
        <pt x="215" y="690" on="0"/>
        <pt x="185" y="663" on="0"/>
        <pt x="184" y="642" on="1"/>
        <pt x="184" y="260" on="1"/>
        <pt x="184" y="151" on="0"/>
        <pt x="301" y="17" on="0"/>
        <pt x="497" y="17" on="0"/>
        <pt x="619" y="144" on="0"/>
        <pt x="619" y="247" on="1"/>
        <pt x="619" y="642" on="1"/>
        <pt x="618" y="675" on="0"/>
        <pt x="587" y="686" on="1"/>
        <pt x="577" y="690" on="0"/>
        <pt x="566" y="690" on="1"/>
        <pt x="550" y="690" on="1"/>
        <pt x="550" y="700" on="1"/>
        <pt x="735" y="700" on="1"/>
      </contour>
    </TTGlyph>
    <TTGlyph name="Udieresis" xMin="50" yMin="-15" xMax="736" yMax="843">
      <contour>
        <pt x="324" y="764" on="0"/>
        <pt x="291" y="764" on="0"/>
        <pt x="268" y="787" on="0"/>
        <pt x="268" y="819" on="0"/>
        <pt x="291" y="842" on="0"/>
        <pt x="324" y="842" on="0"/>
        <pt x="347" y="819" on="0"/>
        <pt x="347" y="787" on="0"/>
      </contour>
      <contour>
        <pt x="512" y="764" on="0"/>
        <pt x="480" y="764" on="0"/>
        <pt x="457" y="787" on="0"/>
        <pt x="457" y="819" on="0"/>
        <pt x="480" y="842" on="0"/>
        <pt x="512" y="842" on="0"/>
        <pt x="535" y="819" on="0"/>
        <pt x="535" y="787" on="0"/>
      </contour>
      <contour>
        <pt x="735" y="690" on="1"/>
        <pt x="719" y="690" on="1"/>
        <pt x="698" y="690" on="0"/>
        <pt x="667" y="663" on="0"/>
        <pt x="666" y="643" on="1"/>
        <pt x="666" y="247" on="1"/>
        <pt x="666" y="130" on="0"/>
        <pt x="518" y="-14" on="0"/>
        <pt x="272" y="-14" on="0"/>
        <pt x="119" y="129" on="0"/>
        <pt x="119" y="246" on="1"/>
        <pt x="119" y="640" on="1"/>
        <pt x="119" y="670" on="0"/>
        <pt x="93" y="684" on="1"/>
        <pt x="81" y="690" on="0"/>
        <pt x="66" y="690" on="1"/>
        <pt x="50" y="690" on="1"/>
        <pt x="50" y="700" on="1"/>
        <pt x="253" y="700" on="1"/>
        <pt x="253" y="690" on="1"/>
        <pt x="237" y="690" on="1"/>
        <pt x="207" y="690" on="0"/>
        <pt x="192" y="667" on="1"/>
        <pt x="185" y="656" on="0"/>
        <pt x="184" y="642" on="1"/>
        <pt x="184" y="260" on="1"/>
        <pt x="184" y="151" on="0"/>
        <pt x="301" y="17" on="0"/>
        <pt x="396" y="17" on="1"/>
        <pt x="497" y="17" on="0"/>
        <pt x="619" y="144" on="0"/>
        <pt x="619" y="247" on="1"/>
        <pt x="619" y="642" on="1"/>
        <pt x="618" y="675" on="0"/>
        <pt x="587" y="686" on="1"/>
        <pt x="577" y="690" on="0"/>
        <pt x="566" y="690" on="1"/>
        <pt x="550" y="690" on="1"/>
        <pt x="550" y="700" on="1"/>
        <pt x="735" y="700" on="1"/>
      </contour>
    </TTGlyph>
    <TTGlyph name="Ugrave" xMin="49" yMin="-15" xMax="736" yMax="902">
      <contour>
        <pt x="409" y="771" on="1"/>
        <pt x="402" y="764" on="1"/>
        <pt x="321" y="802" on="0"/>
        <pt x="241" y="849" on="1"/>
        <pt x="255" y="877" on="0"/>
        <pt x="282" y="902" on="1"/>
        <pt x="345" y="841" on="0"/>
      </contour>
      <contour>
        <pt x="735" y="690" on="1"/>
        <pt x="719" y="690" on="1"/>
        <pt x="698" y="690" on="0"/>
        <pt x="667" y="663" on="0"/>
        <pt x="666" y="643" on="1"/>
        <pt x="666" y="247" on="1"/>
        <pt x="666" y="130" on="0"/>
        <pt x="518" y="-14" on="0"/>
        <pt x="272" y="-14" on="0"/>
        <pt x="119" y="129" on="0"/>
        <pt x="119" y="246" on="1"/>
        <pt x="119" y="640" on="1"/>
        <pt x="119" y="670" on="0"/>
        <pt x="93" y="684" on="1"/>
        <pt x="81" y="690" on="0"/>
        <pt x="66" y="690" on="1"/>
        <pt x="50" y="690" on="1"/>
        <pt x="50" y="700" on="1"/>
        <pt x="253" y="700" on="1"/>
        <pt x="253" y="690" on="1"/>
        <pt x="237" y="690" on="1"/>
        <pt x="215" y="690" on="0"/>
        <pt x="185" y="663" on="0"/>
        <pt x="184" y="642" on="1"/>
        <pt x="184" y="260" on="1"/>
        <pt x="184" y="151" on="0"/>
        <pt x="301" y="17" on="0"/>
        <pt x="497" y="17" on="0"/>
        <pt x="619" y="144" on="0"/>
        <pt x="619" y="247" on="1"/>
        <pt x="619" y="642" on="1"/>
        <pt x="618" y="663" on="0"/>
        <pt x="588" y="690" on="0"/>
        <pt x="566" y="690" on="1"/>
        <pt x="550" y="690" on="1"/>
        <pt x="550" y="700" on="1"/>
        <pt x="735" y="700" on="1"/>
      </contour>
    </TTGlyph>
    <TTGlyph name="Uhungarumlaut" xMin="50" yMin="-14" xMax="736" yMax="902">
      <contour>
        <pt x="345" y="768" on="1"/>
        <pt x="334" y="770" on="1"/>
        <pt x="364" y="836" on="0"/>
        <pt x="401" y="901" on="1"/>
        <pt x="437" y="899" on="0"/>
        <pt x="461" y="889" on="1"/>
        <pt x="407" y="829" on="0"/>
      </contour>
      <contour>
        <pt x="467" y="768" on="1"/>
        <pt x="456" y="770" on="1"/>
        <pt x="486" y="843" on="0"/>
        <pt x="523" y="901" on="1"/>
        <pt x="552" y="901" on="0"/>
        <pt x="584" y="889" on="1"/>
        <pt x="516" y="813" on="0"/>
      </contour>
      <contour>
        <pt x="735" y="690" on="1"/>
        <pt x="719" y="690" on="1"/>
        <pt x="698" y="690" on="0"/>
        <pt x="667" y="663" on="0"/>
        <pt x="666" y="643" on="1"/>
        <pt x="666" y="247" on="1"/>
        <pt x="666" y="130" on="0"/>
        <pt x="518" y="-14" on="0"/>
        <pt x="272" y="-14" on="0"/>
        <pt x="119" y="129" on="0"/>
        <pt x="119" y="246" on="1"/>
        <pt x="119" y="641" on="1"/>
        <pt x="119" y="662" on="0"/>
        <pt x="88" y="690" on="0"/>
        <pt x="66" y="690" on="1"/>
        <pt x="50" y="690" on="1"/>
        <pt x="50" y="700" on="1"/>
        <pt x="253" y="700" on="1"/>
        <pt x="253" y="690" on="1"/>
        <pt x="237" y="690" on="1"/>
        <pt x="207" y="690" on="0"/>
        <pt x="192" y="667" on="1"/>
        <pt x="185" y="656" on="0"/>
        <pt x="184" y="642" on="1"/>
        <pt x="184" y="260" on="1"/>
        <pt x="184" y="151" on="0"/>
        <pt x="301" y="17" on="0"/>
        <pt x="497" y="17" on="0"/>
        <pt x="619" y="144" on="0"/>
        <pt x="619" y="247" on="1"/>
        <pt x="619" y="642" on="1"/>
        <pt x="618" y="663" on="0"/>
        <pt x="588" y="690" on="0"/>
        <pt x="567" y="690" on="1"/>
        <pt x="550" y="690" on="1"/>
        <pt x="550" y="700" on="1"/>
        <pt x="735" y="700" on="1"/>
      </contour>
    </TTGlyph>
    <TTGlyph name="Umacron" xMin="49" yMin="-15" xMax="736" yMax="831">
      <contour>
        <pt x="279" y="795" on="1"/>
        <pt x="279" y="830" on="1"/>
        <pt x="529" y="830" on="1"/>
        <pt x="529" y="795" on="1"/>
      </contour>
      <contour>
        <pt x="735" y="690" on="1"/>
        <pt x="719" y="690" on="1"/>
        <pt x="698" y="690" on="0"/>
        <pt x="667" y="663" on="0"/>
        <pt x="666" y="643" on="1"/>
        <pt x="666" y="247" on="1"/>
        <pt x="666" y="130" on="0"/>
        <pt x="518" y="-14" on="0"/>
        <pt x="272" y="-14" on="0"/>
        <pt x="119" y="129" on="0"/>
        <pt x="119" y="246" on="1"/>
        <pt x="119" y="640" on="1"/>
        <pt x="119" y="670" on="0"/>
        <pt x="93" y="684" on="1"/>
        <pt x="81" y="690" on="0"/>
        <pt x="66" y="690" on="1"/>
        <pt x="50" y="690" on="1"/>
        <pt x="50" y="700" on="1"/>
        <pt x="253" y="700" on="1"/>
        <pt x="253" y="690" on="1"/>
        <pt x="237" y="690" on="1"/>
        <pt x="215" y="690" on="0"/>
        <pt x="185" y="663" on="0"/>
        <pt x="184" y="642" on="1"/>
        <pt x="184" y="260" on="1"/>
        <pt x="184" y="151" on="0"/>
        <pt x="301" y="17" on="0"/>
        <pt x="497" y="17" on="0"/>
        <pt x="619" y="144" on="0"/>
        <pt x="619" y="247" on="1"/>
        <pt x="619" y="642" on="1"/>
        <pt x="618" y="663" on="0"/>
        <pt x="588" y="690" on="0"/>
        <pt x="566" y="690" on="1"/>
        <pt x="550" y="690" on="1"/>
        <pt x="550" y="700" on="1"/>
        <pt x="735" y="700" on="1"/>
      </contour>
    </TTGlyph>
    <TTGlyph name="Uogonek" xMin="49" yMin="-186" xMax="736" yMax="701">
      <contour>
        <pt x="372" y="-85" on="1"/>
        <pt x="372" y="-115" on="0"/>
        <pt x="412" y="-155" on="0"/>
        <pt x="470" y="-155" on="0"/>
        <pt x="494" y="-130" on="1"/>
        <pt x="500" y="-136" on="1"/>
        <pt x="491" y="-160" on="0"/>
        <pt x="470" y="-175" on="1"/>
        <pt x="431" y="-203" on="0"/>
        <pt x="379" y="-186" on="1"/>
        <pt x="357" y="-178" on="0"/>
        <pt x="326" y="-132" on="0"/>
        <pt x="326" y="-70" on="0"/>
        <pt x="363" y="-24" on="0"/>
        <pt x="393" y="-14" on="1"/>
        <pt x="270" y="-13" on="0"/>
        <pt x="119" y="130" on="0"/>
        <pt x="119" y="246" on="1"/>
        <pt x="119" y="640" on="1"/>
        <pt x="119" y="670" on="0"/>
        <pt x="93" y="684" on="1"/>
        <pt x="81" y="690" on="0"/>
        <pt x="66" y="690" on="1"/>
        <pt x="50" y="690" on="1"/>
        <pt x="50" y="700" on="1"/>
        <pt x="253" y="700" on="1"/>
        <pt x="253" y="690" on="1"/>
        <pt x="237" y="690" on="1"/>
        <pt x="215" y="690" on="0"/>
        <pt x="185" y="663" on="0"/>
        <pt x="184" y="642" on="1"/>
        <pt x="184" y="260" on="1"/>
        <pt x="184" y="151" on="0"/>
        <pt x="301" y="17" on="0"/>
        <pt x="497" y="17" on="0"/>
        <pt x="619" y="144" on="0"/>
        <pt x="619" y="247" on="1"/>
        <pt x="619" y="642" on="1"/>
        <pt x="618" y="663" on="0"/>
        <pt x="588" y="690" on="0"/>
        <pt x="566" y="690" on="1"/>
        <pt x="550" y="690" on="1"/>
        <pt x="550" y="700" on="1"/>
        <pt x="735" y="700" on="1"/>
        <pt x="735" y="690" on="1"/>
        <pt x="719" y="690" on="1"/>
        <pt x="698" y="690" on="0"/>
        <pt x="667" y="663" on="0"/>
        <pt x="666" y="643" on="1"/>
        <pt x="666" y="247" on="1"/>
        <pt x="666" y="142" on="0"/>
        <pt x="545" y="2" on="0"/>
        <pt x="442" y="-11" on="1"/>
        <pt x="372" y="-29" on="0"/>
      </contour>
    </TTGlyph>
    <TTGlyph name="Uring" xMin="49" yMin="-15" xMax="736" yMax="915">
      <contour>
        <pt x="333" y="895" on="0"/>
        <pt x="375" y="914" on="0"/>
        <pt x="443" y="914" on="0"/>
        <pt x="496" y="874" on="0"/>
        <pt x="496" y="839" on="1"/>
        <pt x="496" y="795" on="0"/>
        <pt x="450" y="774" on="1"/>
        <pt x="428" y="764" on="0"/>
        <pt x="362" y="764" on="0"/>
        <pt x="308" y="807" on="0"/>
        <pt x="308" y="861" on="0"/>
      </contour>
      <contour>
        <pt x="423" y="897" on="0"/>
        <pt x="380" y="897" on="0"/>
        <pt x="353" y="866" on="0"/>
        <pt x="353" y="812" on="0"/>
        <pt x="380" y="782" on="0"/>
        <pt x="423" y="782" on="0"/>
        <pt x="451" y="812" on="0"/>
        <pt x="451" y="866" on="0"/>
      </contour>
      <contour>
        <pt x="735" y="690" on="1"/>
        <pt x="719" y="690" on="1"/>
        <pt x="698" y="690" on="0"/>
        <pt x="667" y="663" on="0"/>
        <pt x="666" y="643" on="1"/>
        <pt x="666" y="247" on="1"/>
        <pt x="666" y="130" on="0"/>
        <pt x="518" y="-14" on="0"/>
        <pt x="272" y="-14" on="0"/>
        <pt x="119" y="129" on="0"/>
        <pt x="119" y="246" on="1"/>
        <pt x="119" y="640" on="1"/>
        <pt x="119" y="662" on="0"/>
        <pt x="88" y="690" on="0"/>
        <pt x="66" y="690" on="1"/>
        <pt x="50" y="690" on="1"/>
        <pt x="50" y="700" on="1"/>
        <pt x="253" y="700" on="1"/>
        <pt x="253" y="690" on="1"/>
        <pt x="237" y="690" on="1"/>
        <pt x="215" y="690" on="0"/>
        <pt x="185" y="663" on="0"/>
        <pt x="184" y="642" on="1"/>
        <pt x="184" y="260" on="1"/>
        <pt x="184" y="151" on="0"/>
        <pt x="301" y="17" on="0"/>
        <pt x="497" y="17" on="0"/>
        <pt x="619" y="144" on="0"/>
        <pt x="619" y="247" on="1"/>
        <pt x="619" y="642" on="1"/>
        <pt x="618" y="663" on="0"/>
        <pt x="588" y="690" on="0"/>
        <pt x="566" y="690" on="1"/>
        <pt x="550" y="690" on="1"/>
        <pt x="550" y="700" on="1"/>
        <pt x="735" y="700" on="1"/>
      </contour>
    </TTGlyph>
    <TTGlyph name="V" xMin="-11" yMin="-15" xMax="751" yMax="701">
      <contour>
        <pt x="750" y="690" on="1"/>
        <pt x="741" y="690" on="1"/>
        <pt x="707" y="690" on="0"/>
        <pt x="679" y="663" on="1"/>
        <pt x="663" y="649" on="0"/>
        <pt x="654" y="628" on="1"/>
        <pt x="413" y="89" on="1"/>
        <pt x="376" y="8" on="0"/>
        <pt x="376" y="-14" on="1"/>
        <pt x="367" y="-14" on="1"/>
        <pt x="86" y="627" on="1"/>
        <pt x="72" y="659" on="0"/>
        <pt x="23" y="690" on="0"/>
        <pt x="-2" y="690" on="1"/>
        <pt x="-10" y="690" on="1"/>
        <pt x="-10" y="700" on="1"/>
        <pt x="215" y="700" on="1"/>
        <pt x="215" y="690" on="1"/>
        <pt x="206" y="690" on="1"/>
        <pt x="176" y="690" on="0"/>
        <pt x="166" y="662" on="1"/>
        <pt x="164" y="656" on="0"/>
        <pt x="164" y="640" on="0"/>
        <pt x="169" y="628" on="1"/>
        <pt x="378" y="104" on="1"/>
        <pt x="596" y="628" on="1"/>
        <pt x="600" y="640" on="0"/>
        <pt x="600" y="663" on="0"/>
        <pt x="579" y="690" on="0"/>
        <pt x="558" y="690" on="1"/>
        <pt x="549" y="690" on="1"/>
        <pt x="549" y="700" on="1"/>
        <pt x="750" y="700" on="1"/>
      </contour>
    </TTGlyph>
    <TTGlyph name="W" xMin="-10" yMin="-13" xMax="993" yMax="716">
      <contour>
        <pt x="992" y="690" on="1"/>
        <pt x="984" y="690" on="1"/>
        <pt x="947" y="690" on="0"/>
        <pt x="919" y="663" on="1"/>
        <pt x="903" y="649" on="0"/>
        <pt x="896" y="628" on="1"/>
        <pt x="730" y="99" on="1"/>
        <pt x="710" y="36" on="0"/>
        <pt x="708" y="-12" on="1"/>
        <pt x="699" y="-12" on="1"/>
        <pt x="495" y="560" on="1"/>
        <pt x="343" y="99" on="1"/>
        <pt x="324" y="37" on="0"/>
        <pt x="322" y="-12" on="1"/>
        <pt x="313" y="-12" on="1"/>
        <pt x="86" y="629" on="1"/>
        <pt x="74" y="659" on="0"/>
        <pt x="24" y="690" on="0"/>
        <pt x="-2" y="690" on="1"/>
        <pt x="-10" y="690" on="1"/>
        <pt x="-10" y="700" on="1"/>
        <pt x="212" y="700" on="1"/>
        <pt x="212" y="690" on="1"/>
        <pt x="203" y="690" on="1"/>
        <pt x="182" y="690" on="0"/>
        <pt x="161" y="663" on="0"/>
        <pt x="161" y="639" on="0"/>
        <pt x="164" y="629" on="1"/>
        <pt x="316" y="142" on="1"/>
        <pt x="502" y="716" on="1"/>
        <pt x="511" y="715" on="1"/>
        <pt x="708" y="162" on="1"/>
        <pt x="842" y="630" on="1"/>
        <pt x="845" y="641" on="0"/>
        <pt x="845" y="664" on="0"/>
        <pt x="825" y="690" on="0"/>
        <pt x="804" y="690" on="1"/>
        <pt x="795" y="690" on="1"/>
        <pt x="795" y="700" on="1"/>
        <pt x="992" y="700" on="1"/>
      </contour>
    </TTGlyph>
    <TTGlyph name="Wacute" xMin="-10" yMin="-12" xMax="993" yMax="902">
      <contour>
        <pt x="507" y="764" on="1"/>
        <pt x="500" y="771" on="1"/>
        <pt x="576" y="853" on="0"/>
        <pt x="627" y="902" on="1"/>
        <pt x="653" y="875" on="0"/>
        <pt x="668" y="849" on="1"/>
        <pt x="603" y="812" on="0"/>
      </contour>
      <contour>
        <pt x="992" y="690" on="1"/>
        <pt x="984" y="690" on="1"/>
        <pt x="958" y="690" on="0"/>
        <pt x="907" y="659" on="0"/>
        <pt x="896" y="628" on="1"/>
        <pt x="730" y="99" on="1"/>
        <pt x="710" y="36" on="0"/>
        <pt x="708" y="-12" on="1"/>
        <pt x="699" y="-12" on="1"/>
        <pt x="495" y="560" on="1"/>
        <pt x="343" y="99" on="1"/>
        <pt x="324" y="37" on="0"/>
        <pt x="322" y="-12" on="1"/>
        <pt x="313" y="-12" on="1"/>
        <pt x="86" y="629" on="1"/>
        <pt x="74" y="659" on="0"/>
        <pt x="24" y="690" on="0"/>
        <pt x="-2" y="690" on="1"/>
        <pt x="-10" y="690" on="1"/>
        <pt x="-10" y="700" on="1"/>
        <pt x="212" y="700" on="1"/>
        <pt x="212" y="690" on="1"/>
        <pt x="203" y="690" on="1"/>
        <pt x="182" y="690" on="0"/>
        <pt x="161" y="663" on="0"/>
        <pt x="161" y="639" on="0"/>
        <pt x="164" y="629" on="1"/>
        <pt x="316" y="142" on="1"/>
        <pt x="502" y="716" on="1"/>
        <pt x="511" y="715" on="1"/>
        <pt x="708" y="162" on="1"/>
        <pt x="842" y="630" on="1"/>
        <pt x="845" y="641" on="0"/>
        <pt x="845" y="664" on="0"/>
        <pt x="825" y="690" on="0"/>
        <pt x="804" y="690" on="1"/>
        <pt x="795" y="690" on="1"/>
        <pt x="795" y="700" on="1"/>
        <pt x="992" y="700" on="1"/>
      </contour>
    </TTGlyph>
    <TTGlyph name="Wcircumflex" xMin="-10" yMin="-13" xMax="993" yMax="890">
      <contour>
        <pt x="502" y="890" on="1"/>
        <pt x="512" y="890" on="1"/>
        <pt x="626" y="771" on="1"/>
        <pt x="620" y="763" on="1"/>
        <pt x="506" y="829" on="1"/>
        <pt x="402" y="763" on="1"/>
        <pt x="396" y="771" on="1"/>
      </contour>
      <contour>
        <pt x="992" y="690" on="1"/>
        <pt x="984" y="690" on="1"/>
        <pt x="958" y="690" on="0"/>
        <pt x="907" y="659" on="0"/>
        <pt x="896" y="628" on="1"/>
        <pt x="730" y="99" on="1"/>
        <pt x="710" y="36" on="0"/>
        <pt x="708" y="-12" on="1"/>
        <pt x="699" y="-12" on="1"/>
        <pt x="495" y="560" on="1"/>
        <pt x="343" y="99" on="1"/>
        <pt x="324" y="37" on="0"/>
        <pt x="322" y="-12" on="1"/>
        <pt x="313" y="-12" on="1"/>
        <pt x="86" y="629" on="1"/>
        <pt x="74" y="659" on="0"/>
        <pt x="24" y="690" on="0"/>
        <pt x="-2" y="690" on="1"/>
        <pt x="-10" y="690" on="1"/>
        <pt x="-10" y="700" on="1"/>
        <pt x="212" y="700" on="1"/>
        <pt x="212" y="690" on="1"/>
        <pt x="203" y="690" on="1"/>
        <pt x="182" y="690" on="0"/>
        <pt x="161" y="663" on="0"/>
        <pt x="161" y="639" on="0"/>
        <pt x="164" y="629" on="1"/>
        <pt x="316" y="142" on="1"/>
        <pt x="502" y="716" on="1"/>
        <pt x="511" y="715" on="1"/>
        <pt x="708" y="162" on="1"/>
        <pt x="842" y="630" on="1"/>
        <pt x="845" y="641" on="0"/>
        <pt x="845" y="664" on="0"/>
        <pt x="825" y="690" on="0"/>
        <pt x="804" y="690" on="1"/>
        <pt x="795" y="690" on="1"/>
        <pt x="795" y="700" on="1"/>
        <pt x="992" y="700" on="1"/>
      </contour>
    </TTGlyph>
    <TTGlyph name="Wdieresis" xMin="-10" yMin="-13" xMax="993" yMax="843">
      <contour>
        <pt x="429" y="764" on="0"/>
        <pt x="396" y="764" on="0"/>
        <pt x="374" y="787" on="0"/>
        <pt x="374" y="819" on="0"/>
        <pt x="396" y="842" on="0"/>
        <pt x="429" y="842" on="0"/>
        <pt x="452" y="819" on="0"/>
        <pt x="452" y="787" on="0"/>
      </contour>
      <contour>
        <pt x="617" y="764" on="0"/>
        <pt x="585" y="764" on="0"/>
        <pt x="562" y="787" on="0"/>
        <pt x="562" y="819" on="0"/>
        <pt x="585" y="842" on="0"/>
        <pt x="617" y="842" on="0"/>
        <pt x="640" y="819" on="0"/>
        <pt x="640" y="787" on="0"/>
      </contour>
      <contour>
        <pt x="992" y="690" on="1"/>
        <pt x="984" y="690" on="1"/>
        <pt x="947" y="690" on="0"/>
        <pt x="919" y="663" on="1"/>
        <pt x="903" y="649" on="0"/>
        <pt x="896" y="628" on="1"/>
        <pt x="730" y="99" on="1"/>
        <pt x="710" y="36" on="0"/>
        <pt x="708" y="-12" on="1"/>
        <pt x="699" y="-12" on="1"/>
        <pt x="495" y="560" on="1"/>
        <pt x="343" y="99" on="1"/>
        <pt x="324" y="37" on="0"/>
        <pt x="322" y="-12" on="1"/>
        <pt x="313" y="-12" on="1"/>
        <pt x="86" y="629" on="1"/>
        <pt x="74" y="659" on="0"/>
        <pt x="24" y="690" on="0"/>
        <pt x="-2" y="690" on="1"/>
        <pt x="-10" y="690" on="1"/>
        <pt x="-10" y="700" on="1"/>
        <pt x="212" y="700" on="1"/>
        <pt x="212" y="690" on="1"/>
        <pt x="203" y="690" on="1"/>
        <pt x="182" y="690" on="0"/>
        <pt x="161" y="663" on="0"/>
        <pt x="161" y="639" on="0"/>
        <pt x="164" y="629" on="1"/>
        <pt x="316" y="142" on="1"/>
        <pt x="502" y="716" on="1"/>
        <pt x="511" y="715" on="1"/>
        <pt x="708" y="162" on="1"/>
        <pt x="842" y="630" on="1"/>
        <pt x="845" y="641" on="0"/>
        <pt x="845" y="664" on="0"/>
        <pt x="825" y="690" on="0"/>
        <pt x="804" y="690" on="1"/>
        <pt x="795" y="690" on="1"/>
        <pt x="795" y="700" on="1"/>
        <pt x="992" y="700" on="1"/>
      </contour>
    </TTGlyph>
    <TTGlyph name="Wgrave" xMin="-10" yMin="-13" xMax="993" yMax="902">
      <contour>
        <pt x="514" y="771" on="1"/>
        <pt x="507" y="764" on="1"/>
        <pt x="426" y="802" on="0"/>
        <pt x="346" y="849" on="1"/>
        <pt x="361" y="877" on="0"/>
        <pt x="387" y="902" on="1"/>
        <pt x="450" y="841" on="0"/>
      </contour>
      <contour>
        <pt x="992" y="690" on="1"/>
        <pt x="984" y="690" on="1"/>
        <pt x="958" y="690" on="0"/>
        <pt x="907" y="659" on="0"/>
        <pt x="896" y="628" on="1"/>
        <pt x="730" y="99" on="1"/>
        <pt x="710" y="35" on="0"/>
        <pt x="708" y="-12" on="1"/>
        <pt x="699" y="-12" on="1"/>
        <pt x="495" y="560" on="1"/>
        <pt x="343" y="99" on="1"/>
        <pt x="324" y="37" on="0"/>
        <pt x="322" y="-12" on="1"/>
        <pt x="313" y="-12" on="1"/>
        <pt x="86" y="629" on="1"/>
        <pt x="74" y="659" on="0"/>
        <pt x="24" y="690" on="0"/>
        <pt x="-2" y="690" on="1"/>
        <pt x="-10" y="690" on="1"/>
        <pt x="-10" y="700" on="1"/>
        <pt x="212" y="700" on="1"/>
        <pt x="212" y="690" on="1"/>
        <pt x="203" y="690" on="1"/>
        <pt x="182" y="690" on="0"/>
        <pt x="161" y="663" on="0"/>
        <pt x="161" y="639" on="0"/>
        <pt x="164" y="629" on="1"/>
        <pt x="316" y="142" on="1"/>
        <pt x="502" y="716" on="1"/>
        <pt x="511" y="715" on="1"/>
        <pt x="708" y="162" on="1"/>
        <pt x="842" y="630" on="1"/>
        <pt x="845" y="641" on="0"/>
        <pt x="845" y="664" on="0"/>
        <pt x="825" y="690" on="0"/>
        <pt x="804" y="690" on="1"/>
        <pt x="795" y="690" on="1"/>
        <pt x="795" y="700" on="1"/>
        <pt x="992" y="700" on="1"/>
      </contour>
    </TTGlyph>
    <TTGlyph name="X" xMin="-10" yMin="0" xMax="673" yMax="701">
      <contour>
        <pt x="659" y="10" on="1"/>
        <pt x="673" y="10" on="1"/>
        <pt x="673" y="0" on="1"/>
        <pt x="429" y="0" on="1"/>
        <pt x="429" y="10" on="1"/>
        <pt x="441" y="10" on="1"/>
        <pt x="463" y="10" on="0"/>
        <pt x="475" y="30" on="1"/>
        <pt x="482" y="41" on="0"/>
        <pt x="482" y="61" on="0"/>
        <pt x="477" y="71" on="1"/>
        <pt x="323" y="314" on="1"/>
        <pt x="169" y="72" on="1"/>
        <pt x="163" y="62" on="0"/>
        <pt x="163" y="41" on="0"/>
        <pt x="170" y="31" on="1"/>
        <pt x="183" y="10" on="0"/>
        <pt x="204" y="10" on="1"/>
        <pt x="217" y="10" on="1"/>
        <pt x="217" y="0" on="1"/>
        <pt x="-10" y="0" on="1"/>
        <pt x="-10" y="10" on="1"/>
        <pt x="4" y="10" on="1"/>
        <pt x="34" y="10" on="0"/>
        <pt x="88" y="44" on="0"/>
        <pt x="106" y="69" on="1"/>
        <pt x="297" y="354" on="1"/>
        <pt x="122" y="631" on="1"/>
        <pt x="98" y="666" on="0"/>
        <pt x="61" y="682" on="1"/>
        <pt x="41" y="690" on="0"/>
        <pt x="21" y="690" on="1"/>
        <pt x="7" y="690" on="1"/>
        <pt x="7" y="700" on="1"/>
        <pt x="249" y="700" on="1"/>
        <pt x="249" y="690" on="1"/>
        <pt x="237" y="690" on="1"/>
        <pt x="216" y="690" on="0"/>
        <pt x="203" y="670" on="1"/>
        <pt x="196" y="659" on="0"/>
        <pt x="196" y="639" on="0"/>
        <pt x="201" y="629" on="1"/>
        <pt x="339" y="413" on="1"/>
        <pt x="475" y="628" on="1"/>
        <pt x="481" y="638" on="0"/>
        <pt x="481" y="659" on="0"/>
        <pt x="475" y="669" on="1"/>
        <pt x="463" y="690" on="0"/>
        <pt x="441" y="690" on="1"/>
        <pt x="429" y="690" on="1"/>
        <pt x="429" y="700" on="1"/>
        <pt x="654" y="700" on="1"/>
        <pt x="654" y="690" on="1"/>
        <pt x="640" y="690" on="1"/>
        <pt x="610" y="690" on="0"/>
        <pt x="557" y="656" on="0"/>
        <pt x="539" y="631" on="1"/>
        <pt x="364" y="373" on="1"/>
        <pt x="558" y="68" on="1"/>
        <pt x="582" y="34" on="0"/>
        <pt x="619" y="18" on="1"/>
        <pt x="639" y="10" on="0"/>
      </contour>
    </TTGlyph>
    <TTGlyph name="Y" xMin="-10" yMin="-1" xMax="672" yMax="701">
      <contour>
        <pt x="672" y="690" on="1"/>
        <pt x="658" y="690" on="1"/>
        <pt x="628" y="690" on="0"/>
        <pt x="575" y="657" on="0"/>
        <pt x="557" y="632" on="1"/>
        <pt x="360" y="312" on="1"/>
        <pt x="360" y="73" on="1"/>
        <pt x="360" y="47" on="0"/>
        <pt x="397" y="10" on="0"/>
        <pt x="424" y="10" on="1"/>
        <pt x="436" y="10" on="1"/>
        <pt x="436" y="0" on="1"/>
        <pt x="218" y="0" on="1"/>
        <pt x="218" y="10" on="1"/>
        <pt x="231" y="10" on="1"/>
        <pt x="257" y="10" on="0"/>
        <pt x="294" y="46" on="0"/>
        <pt x="295" y="72" on="1"/>
        <pt x="295" y="313" on="1"/>
        <pt x="104" y="632" on="1"/>
        <pt x="89" y="656" on="0"/>
        <pt x="34" y="690" on="0"/>
        <pt x="4" y="690" on="1"/>
        <pt x="-10" y="690" on="1"/>
        <pt x="-10" y="700" on="1"/>
        <pt x="236" y="700" on="1"/>
        <pt x="236" y="690" on="1"/>
        <pt x="223" y="690" on="1"/>
        <pt x="201" y="690" on="0"/>
        <pt x="189" y="670" on="1"/>
        <pt x="183" y="659" on="0"/>
        <pt x="183" y="638" on="0"/>
        <pt x="188" y="628" on="1"/>
        <pt x="338" y="348" on="1"/>
        <pt x="498" y="629" on="1"/>
        <pt x="503" y="639" on="0"/>
        <pt x="503" y="659" on="0"/>
        <pt x="496" y="670" on="1"/>
        <pt x="484" y="690" on="0"/>
        <pt x="462" y="690" on="1"/>
        <pt x="450" y="690" on="1"/>
        <pt x="450" y="700" on="1"/>
        <pt x="672" y="700" on="1"/>
      </contour>
    </TTGlyph>
    <TTGlyph name="Yacute" xMin="-10" yMin="0" xMax="672" yMax="902">
      <contour>
        <pt x="340" y="764" on="1"/>
        <pt x="333" y="771" on="1"/>
        <pt x="409" y="853" on="0"/>
        <pt x="460" y="902" on="1"/>
        <pt x="487" y="875" on="0"/>
        <pt x="501" y="849" on="1"/>
        <pt x="437" y="812" on="0"/>
      </contour>
      <contour>
        <pt x="672" y="690" on="1"/>
        <pt x="658" y="690" on="1"/>
        <pt x="628" y="690" on="0"/>
        <pt x="575" y="657" on="0"/>
        <pt x="557" y="632" on="1"/>
        <pt x="360" y="312" on="1"/>
        <pt x="360" y="73" on="1"/>
        <pt x="360" y="47" on="0"/>
        <pt x="397" y="10" on="0"/>
        <pt x="424" y="10" on="1"/>
        <pt x="436" y="10" on="1"/>
        <pt x="436" y="0" on="1"/>
        <pt x="218" y="0" on="1"/>
        <pt x="218" y="10" on="1"/>
        <pt x="231" y="10" on="1"/>
        <pt x="257" y="10" on="0"/>
        <pt x="294" y="46" on="0"/>
        <pt x="295" y="72" on="1"/>
        <pt x="295" y="313" on="1"/>
        <pt x="104" y="632" on="1"/>
        <pt x="89" y="656" on="0"/>
        <pt x="34" y="690" on="0"/>
        <pt x="4" y="690" on="1"/>
        <pt x="-10" y="690" on="1"/>
        <pt x="-10" y="700" on="1"/>
        <pt x="236" y="700" on="1"/>
        <pt x="236" y="690" on="1"/>
        <pt x="223" y="690" on="1"/>
        <pt x="201" y="690" on="0"/>
        <pt x="189" y="670" on="1"/>
        <pt x="183" y="659" on="0"/>
        <pt x="183" y="638" on="0"/>
        <pt x="188" y="628" on="1"/>
        <pt x="338" y="348" on="1"/>
        <pt x="498" y="629" on="1"/>
        <pt x="503" y="639" on="0"/>
        <pt x="503" y="659" on="0"/>
        <pt x="496" y="670" on="1"/>
        <pt x="483" y="690" on="0"/>
        <pt x="462" y="690" on="1"/>
        <pt x="450" y="690" on="1"/>
        <pt x="450" y="700" on="1"/>
        <pt x="672" y="700" on="1"/>
      </contour>
    </TTGlyph>
    <TTGlyph name="Ycircumflex" xMin="-10" yMin="-1" xMax="672" yMax="890">
      <contour>
        <pt x="335" y="890" on="1"/>
        <pt x="345" y="890" on="1"/>
        <pt x="459" y="771" on="1"/>
        <pt x="453" y="763" on="1"/>
        <pt x="339" y="829" on="1"/>
        <pt x="235" y="763" on="1"/>
        <pt x="229" y="771" on="1"/>
      </contour>
      <contour>
        <pt x="672" y="690" on="1"/>
        <pt x="658" y="690" on="1"/>
        <pt x="628" y="690" on="0"/>
        <pt x="575" y="657" on="0"/>
        <pt x="557" y="632" on="1"/>
        <pt x="360" y="312" on="1"/>
        <pt x="360" y="73" on="1"/>
        <pt x="360" y="47" on="0"/>
        <pt x="397" y="10" on="0"/>
        <pt x="424" y="10" on="1"/>
        <pt x="436" y="10" on="1"/>
        <pt x="436" y="0" on="1"/>
        <pt x="218" y="0" on="1"/>
        <pt x="218" y="10" on="1"/>
        <pt x="231" y="10" on="1"/>
        <pt x="257" y="10" on="0"/>
        <pt x="294" y="46" on="0"/>
        <pt x="295" y="72" on="1"/>
        <pt x="295" y="313" on="1"/>
        <pt x="104" y="632" on="1"/>
        <pt x="89" y="656" on="0"/>
        <pt x="34" y="690" on="0"/>
        <pt x="4" y="690" on="1"/>
        <pt x="-10" y="690" on="1"/>
        <pt x="-10" y="700" on="1"/>
        <pt x="236" y="700" on="1"/>
        <pt x="236" y="690" on="1"/>
        <pt x="223" y="690" on="1"/>
        <pt x="201" y="690" on="0"/>
        <pt x="189" y="670" on="1"/>
        <pt x="183" y="659" on="0"/>
        <pt x="183" y="638" on="0"/>
        <pt x="188" y="628" on="1"/>
        <pt x="338" y="348" on="1"/>
        <pt x="498" y="629" on="1"/>
        <pt x="503" y="639" on="0"/>
        <pt x="503" y="659" on="0"/>
        <pt x="496" y="670" on="1"/>
        <pt x="484" y="690" on="0"/>
        <pt x="462" y="690" on="1"/>
        <pt x="450" y="690" on="1"/>
        <pt x="450" y="700" on="1"/>
        <pt x="672" y="700" on="1"/>
      </contour>
    </TTGlyph>
    <TTGlyph name="Ydieresis" xMin="-10" yMin="-1" xMax="672" yMax="843">
      <contour>
        <pt x="262" y="764" on="0"/>
        <pt x="230" y="764" on="0"/>
        <pt x="207" y="787" on="0"/>
        <pt x="207" y="819" on="0"/>
        <pt x="230" y="842" on="0"/>
        <pt x="262" y="842" on="0"/>
        <pt x="285" y="819" on="0"/>
        <pt x="285" y="787" on="0"/>
      </contour>
      <contour>
        <pt x="450" y="764" on="0"/>
        <pt x="418" y="764" on="0"/>
        <pt x="395" y="787" on="0"/>
        <pt x="395" y="819" on="0"/>
        <pt x="418" y="842" on="0"/>
        <pt x="450" y="842" on="0"/>
        <pt x="473" y="819" on="0"/>
        <pt x="473" y="787" on="0"/>
      </contour>
      <contour>
        <pt x="672" y="690" on="1"/>
        <pt x="658" y="690" on="1"/>
        <pt x="628" y="690" on="0"/>
        <pt x="575" y="657" on="0"/>
        <pt x="557" y="632" on="1"/>
        <pt x="360" y="312" on="1"/>
        <pt x="360" y="73" on="1"/>
        <pt x="360" y="47" on="0"/>
        <pt x="397" y="10" on="0"/>
        <pt x="424" y="10" on="1"/>
        <pt x="436" y="10" on="1"/>
        <pt x="436" y="0" on="1"/>
        <pt x="218" y="0" on="1"/>
        <pt x="218" y="10" on="1"/>
        <pt x="231" y="10" on="1"/>
        <pt x="257" y="10" on="0"/>
        <pt x="294" y="46" on="0"/>
        <pt x="295" y="72" on="1"/>
        <pt x="295" y="313" on="1"/>
        <pt x="104" y="632" on="1"/>
        <pt x="89" y="656" on="0"/>
        <pt x="34" y="690" on="0"/>
        <pt x="4" y="690" on="1"/>
        <pt x="-10" y="690" on="1"/>
        <pt x="-10" y="700" on="1"/>
        <pt x="236" y="700" on="1"/>
        <pt x="236" y="690" on="1"/>
        <pt x="223" y="690" on="1"/>
        <pt x="201" y="690" on="0"/>
        <pt x="189" y="670" on="1"/>
        <pt x="183" y="659" on="0"/>
        <pt x="183" y="638" on="0"/>
        <pt x="188" y="628" on="1"/>
        <pt x="338" y="348" on="1"/>
        <pt x="498" y="629" on="1"/>
        <pt x="503" y="639" on="0"/>
        <pt x="503" y="659" on="0"/>
        <pt x="496" y="670" on="1"/>
        <pt x="483" y="690" on="0"/>
        <pt x="462" y="690" on="1"/>
        <pt x="450" y="690" on="1"/>
        <pt x="450" y="700" on="1"/>
        <pt x="672" y="700" on="1"/>
      </contour>
    </TTGlyph>
    <TTGlyph name="Ygrave" xMin="-10" yMin="-1" xMax="672" yMax="902">
      <contour>
        <pt x="347" y="771" on="1"/>
        <pt x="340" y="764" on="1"/>
        <pt x="260" y="802" on="0"/>
        <pt x="179" y="849" on="1"/>
        <pt x="194" y="877" on="0"/>
        <pt x="220" y="902" on="1"/>
        <pt x="284" y="841" on="0"/>
      </contour>
      <contour>
        <pt x="672" y="690" on="1"/>
        <pt x="658" y="690" on="1"/>
        <pt x="628" y="690" on="0"/>
        <pt x="575" y="657" on="0"/>
        <pt x="557" y="632" on="1"/>
        <pt x="360" y="312" on="1"/>
        <pt x="360" y="73" on="1"/>
        <pt x="360" y="47" on="0"/>
        <pt x="397" y="10" on="0"/>
        <pt x="424" y="10" on="1"/>
        <pt x="436" y="10" on="1"/>
        <pt x="436" y="0" on="1"/>
        <pt x="218" y="0" on="1"/>
        <pt x="218" y="10" on="1"/>
        <pt x="231" y="10" on="1"/>
        <pt x="257" y="10" on="0"/>
        <pt x="294" y="46" on="0"/>
        <pt x="295" y="72" on="1"/>
        <pt x="295" y="313" on="1"/>
        <pt x="104" y="632" on="1"/>
        <pt x="89" y="656" on="0"/>
        <pt x="34" y="690" on="0"/>
        <pt x="4" y="690" on="1"/>
        <pt x="-10" y="690" on="1"/>
        <pt x="-10" y="700" on="1"/>
        <pt x="236" y="700" on="1"/>
        <pt x="236" y="690" on="1"/>
        <pt x="223" y="690" on="1"/>
        <pt x="201" y="690" on="0"/>
        <pt x="189" y="670" on="1"/>
        <pt x="183" y="659" on="0"/>
        <pt x="183" y="638" on="0"/>
        <pt x="188" y="628" on="1"/>
        <pt x="338" y="348" on="1"/>
        <pt x="498" y="629" on="1"/>
        <pt x="503" y="638" on="0"/>
        <pt x="503" y="659" on="0"/>
        <pt x="496" y="670" on="1"/>
        <pt x="484" y="690" on="0"/>
        <pt x="462" y="690" on="1"/>
        <pt x="450" y="690" on="1"/>
        <pt x="450" y="700" on="1"/>
        <pt x="672" y="700" on="1"/>
      </contour>
    </TTGlyph>
    <TTGlyph name="Z" xMin="59" yMin="0" xMax="617" yMax="720">
      <contour>
        <pt x="584" y="0" on="1"/>
        <pt x="60" y="0" on="1"/>
        <pt x="60" y="9" on="1"/>
        <pt x="480" y="671" on="1"/>
        <pt x="143" y="671" on="1"/>
        <pt x="118" y="670" on="0"/>
        <pt x="84" y="636" on="0"/>
        <pt x="84" y="611" on="1"/>
        <pt x="84" y="593" on="1"/>
        <pt x="74" y="593" on="1"/>
        <pt x="74" y="719" on="1"/>
        <pt x="89" y="713" on="0"/>
        <pt x="165" y="701" on="0"/>
        <pt x="196" y="701" on="0"/>
        <pt x="196" y="701" on="1"/>
        <pt x="474" y="701" on="1"/>
        <pt x="523" y="701" on="0"/>
        <pt x="575" y="712" on="0"/>
        <pt x="580" y="714" on="1"/>
        <pt x="580" y="705" on="1"/>
        <pt x="152" y="30" on="1"/>
        <pt x="470" y="30" on="1"/>
        <pt x="523" y="30" on="0"/>
        <pt x="591" y="98" on="0"/>
        <pt x="607" y="154" on="1"/>
        <pt x="617" y="154" on="1"/>
      </contour>
    </TTGlyph>
    <TTGlyph name="Zacute" xMin="59" yMin="0" xMax="617" yMax="902">
      <contour>
        <pt x="324" y="764" on="1"/>
        <pt x="317" y="771" on="1"/>
        <pt x="393" y="853" on="0"/>
        <pt x="444" y="902" on="1"/>
        <pt x="471" y="875" on="0"/>
        <pt x="485" y="849" on="1"/>
        <pt x="420" y="812" on="0"/>
      </contour>
      <contour>
        <pt x="584" y="0" on="1"/>
        <pt x="60" y="0" on="1"/>
        <pt x="60" y="9" on="1"/>
        <pt x="480" y="671" on="1"/>
        <pt x="143" y="671" on="1"/>
        <pt x="118" y="670" on="0"/>
        <pt x="84" y="636" on="0"/>
        <pt x="84" y="611" on="1"/>
        <pt x="84" y="593" on="1"/>
        <pt x="74" y="593" on="1"/>
        <pt x="74" y="719" on="1"/>
        <pt x="89" y="713" on="0"/>
        <pt x="165" y="701" on="0"/>
        <pt x="196" y="701" on="0"/>
        <pt x="196" y="701" on="1"/>
        <pt x="474" y="701" on="1"/>
        <pt x="516" y="701" on="0"/>
        <pt x="574" y="711" on="0"/>
        <pt x="580" y="714" on="1"/>
        <pt x="580" y="705" on="1"/>
        <pt x="152" y="30" on="1"/>
        <pt x="470" y="30" on="1"/>
        <pt x="523" y="30" on="0"/>
        <pt x="591" y="98" on="0"/>
        <pt x="607" y="154" on="1"/>
        <pt x="617" y="154" on="1"/>
      </contour>
    </TTGlyph>
</ttFont>
